<svg xmlns="http://www.w3.org/2000/svg" xmlns:xlink="http://www.w3.org/1999/xlink" width="109.576" height="108.815" viewBox="0 0 109.576 108.815">
  <defs>
    <clipPath id="clip-path">
      <rect id="Rectángulo_357755" data-name="Rectángulo 357755" width="58.425" height="54.171" fill="none"/>
    </clipPath>
  </defs>
  <g id="Grupo_1134691" data-name="Grupo 1134691" transform="translate(-263 -595.534)">
    <g id="Grupo_156356" data-name="Grupo 156356" transform="translate(263 639.713)">
      <g id="Grupo_156332" data-name="Grupo 156332" transform="translate(0 0)">
        <path id="Trazado_99257" data-name="Trazado 99257" d="M418.289,104.726a2.04,2.04,0,1,1-2.039-1.947A1.995,1.995,0,0,1,418.289,104.726Z" transform="translate(-414.214 -102.779)" fill="#12263f"/>
        <path id="Trazado_116526" data-name="Trazado 116526" d="M418.289,104.726a2.04,2.04,0,1,1-2.039-1.947A1.995,1.995,0,0,1,418.289,104.726Z" transform="translate(-368.075 -102.779)" fill="#12263f"/>
        <path id="Trazado_99258" data-name="Trazado 99258" d="M426.735,104.726a2.039,2.039,0,1,1-2.036-1.947A1.994,1.994,0,0,1,426.735,104.726Z" transform="translate(-413.433 -102.779)" fill="#12263f"/>
        <path id="Trazado_116527" data-name="Trazado 116527" d="M426.735,104.726a2.039,2.039,0,1,1-2.036-1.947A1.994,1.994,0,0,1,426.735,104.726Z" transform="translate(-367.293 -102.779)" fill="#12263f"/>
        <path id="Trazado_99259" data-name="Trazado 99259" d="M435.181,104.726a2.04,2.04,0,1,1-2.036-1.947A1.994,1.994,0,0,1,435.181,104.726Z" transform="translate(-412.65 -102.779)" fill="#12263f"/>
        <path id="Trazado_116531" data-name="Trazado 116531" d="M435.181,104.726a2.04,2.04,0,1,1-2.036-1.947A1.994,1.994,0,0,1,435.181,104.726Z" transform="translate(-366.512 -102.779)" fill="#12263f"/>
        <path id="Trazado_99260" data-name="Trazado 99260" d="M443.628,104.726a2.039,2.039,0,1,1-2.039-1.947A1.994,1.994,0,0,1,443.628,104.726Z" transform="translate(-411.87 -102.779)" fill="#12263f"/>
        <path id="Trazado_116532" data-name="Trazado 116532" d="M443.628,104.726a2.039,2.039,0,1,1-2.039-1.947A1.994,1.994,0,0,1,443.628,104.726Z" transform="translate(-365.73 -102.779)" fill="#12263f"/>
        <path id="Trazado_99261" data-name="Trazado 99261" d="M452.074,104.726a2.039,2.039,0,1,1-2.036-1.947A1.994,1.994,0,0,1,452.074,104.726Z" transform="translate(-411.088 -102.779)" fill="#12263f"/>
      </g>
      <g id="Grupo_156331" data-name="Grupo 156331" transform="translate(0 10.122)">
        <ellipse id="Elipse_3975" data-name="Elipse 3975" cx="2.037" cy="1.948" rx="2.037" ry="1.948" transform="translate(0 0.001)" fill="#12263f"/>
        <ellipse id="Elipse_4742" data-name="Elipse 4742" cx="2.037" cy="1.948" rx="2.037" ry="1.948" transform="translate(46.139 0.001)" fill="#12263f"/>
        <path id="Trazado_99268" data-name="Trazado 99268" d="M426.735,112.234a2.039,2.039,0,1,1-2.036-1.947A2,2,0,0,1,426.735,112.234Z" transform="translate(-413.433 -110.287)" fill="#12263f"/>
        <path id="Trazado_116528" data-name="Trazado 116528" d="M426.735,112.234a2.039,2.039,0,1,1-2.036-1.947A2,2,0,0,1,426.735,112.234Z" transform="translate(-367.293 -110.287)" fill="#12263f"/>
        <ellipse id="Elipse_3976" data-name="Elipse 3976" cx="2.037" cy="1.948" rx="2.037" ry="1.948" transform="translate(18.456 0.001)" fill="#12263f"/>
        <ellipse id="Elipse_4743" data-name="Elipse 4743" cx="2.037" cy="1.948" rx="2.037" ry="1.948" transform="translate(64.595 0.001)" fill="#12263f"/>
        <path id="Trazado_99269" data-name="Trazado 99269" d="M443.628,112.234a2.039,2.039,0,1,1-2.039-1.947A2,2,0,0,1,443.628,112.234Z" transform="translate(-411.87 -110.287)" fill="#12263f"/>
        <path id="Trazado_116533" data-name="Trazado 116533" d="M443.628,112.234a2.039,2.039,0,1,1-2.039-1.947A2,2,0,0,1,443.628,112.234Z" transform="translate(-365.73 -110.287)" fill="#12263f"/>
        <path id="Trazado_99270" data-name="Trazado 99270" d="M452.074,112.234a2.039,2.039,0,1,1-2.036-1.947A2,2,0,0,1,452.074,112.234Z" transform="translate(-411.088 -110.287)" fill="#12263f"/>
      </g>
      <g id="Grupo_156330" data-name="Grupo 156330" transform="translate(0 20.245)">
        <path id="Trazado_99274" data-name="Trazado 99274" d="M418.289,119.743a2.039,2.039,0,1,1-2.039-1.949A2,2,0,0,1,418.289,119.743Z" transform="translate(-414.214 -117.794)" fill="#12263f"/>
        <path id="Trazado_116529" data-name="Trazado 116529" d="M418.289,119.743a2.039,2.039,0,1,1-2.039-1.949A2,2,0,0,1,418.289,119.743Z" transform="translate(-368.075 -117.794)" fill="#12263f"/>
        <path id="Trazado_99275" data-name="Trazado 99275" d="M426.735,119.743a2.039,2.039,0,1,1-2.036-1.949A2,2,0,0,1,426.735,119.743Z" transform="translate(-413.433 -117.794)" fill="#12263f"/>
        <path id="Trazado_116530" data-name="Trazado 116530" d="M426.735,119.743a2.039,2.039,0,1,1-2.036-1.949A2,2,0,0,1,426.735,119.743Z" transform="translate(-367.293 -117.794)" fill="#12263f"/>
        <path id="Trazado_99276" data-name="Trazado 99276" d="M435.181,119.743a2.039,2.039,0,1,1-2.036-1.949A2,2,0,0,1,435.181,119.743Z" transform="translate(-412.65 -117.794)" fill="#12263f"/>
        <path id="Trazado_116534" data-name="Trazado 116534" d="M435.181,119.743a2.039,2.039,0,1,1-2.036-1.949A2,2,0,0,1,435.181,119.743Z" transform="translate(-366.512 -117.794)" fill="#12263f"/>
        <path id="Trazado_99277" data-name="Trazado 99277" d="M443.628,119.743a2.039,2.039,0,1,1-2.039-1.949A2,2,0,0,1,443.628,119.743Z" transform="translate(-411.87 -117.794)" fill="#12263f"/>
        <path id="Trazado_116535" data-name="Trazado 116535" d="M443.628,119.743a2.039,2.039,0,1,1-2.039-1.949A2,2,0,0,1,443.628,119.743Z" transform="translate(-365.73 -117.794)" fill="#12263f"/>
        <path id="Trazado_99278" data-name="Trazado 99278" d="M452.074,119.743a2.039,2.039,0,1,1-2.036-1.949A2,2,0,0,1,452.074,119.743Z" transform="translate(-411.088 -117.794)" fill="#12263f"/>
      </g>
      <g id="Grupo_156327" data-name="Grupo 156327" transform="translate(0 50.614)">
        <path id="Trazado_116550" data-name="Trazado 116550" d="M418.289,119.743a2.039,2.039,0,1,1-2.039-1.949A2,2,0,0,1,418.289,119.743Z" transform="translate(-414.214 -117.794)" fill="#12263f"/>
        <path id="Trazado_116551" data-name="Trazado 116551" d="M418.289,119.743a2.039,2.039,0,1,1-2.039-1.949A2,2,0,0,1,418.289,119.743Z" transform="translate(-368.075 -117.794)" fill="#12263f"/>
        <path id="Trazado_116552" data-name="Trazado 116552" d="M426.735,119.743a2.039,2.039,0,1,1-2.036-1.949A2,2,0,0,1,426.735,119.743Z" transform="translate(-413.433 -117.794)" fill="#12263f"/>
        <path id="Trazado_116553" data-name="Trazado 116553" d="M426.735,119.743a2.039,2.039,0,1,1-2.036-1.949A2,2,0,0,1,426.735,119.743Z" transform="translate(-367.293 -117.794)" fill="#12263f"/>
        <path id="Trazado_116554" data-name="Trazado 116554" d="M435.181,119.743a2.039,2.039,0,1,1-2.036-1.949A2,2,0,0,1,435.181,119.743Z" transform="translate(-412.65 -117.794)" fill="#12263f"/>
        <path id="Trazado_116555" data-name="Trazado 116555" d="M435.181,119.743a2.039,2.039,0,1,1-2.036-1.949A2,2,0,0,1,435.181,119.743Z" transform="translate(-366.512 -117.794)" fill="#12263f"/>
        <path id="Trazado_116556" data-name="Trazado 116556" d="M443.628,119.743a2.039,2.039,0,1,1-2.039-1.949A2,2,0,0,1,443.628,119.743Z" transform="translate(-411.87 -117.794)" fill="#12263f"/>
        <path id="Trazado_116557" data-name="Trazado 116557" d="M443.628,119.743a2.039,2.039,0,1,1-2.039-1.949A2,2,0,0,1,443.628,119.743Z" transform="translate(-365.73 -117.794)" fill="#12263f"/>
        <path id="Trazado_116558" data-name="Trazado 116558" d="M452.074,119.743a2.039,2.039,0,1,1-2.036-1.949A2,2,0,0,1,452.074,119.743Z" transform="translate(-411.088 -117.794)" fill="#12263f"/>
      </g>
      <g id="Grupo_156329" data-name="Grupo 156329" transform="translate(0 30.369)">
        <ellipse id="Elipse_3980" data-name="Elipse 3980" cx="2.037" cy="1.948" rx="2.037" ry="1.948" transform="translate(0 0.002)" fill="#12263f"/>
        <ellipse id="Elipse_4744" data-name="Elipse 4744" cx="2.037" cy="1.948" rx="2.037" ry="1.948" transform="translate(46.139 0.002)" fill="#12263f"/>
        <path id="Trazado_99285" data-name="Trazado 99285" d="M426.735,127.251A2.039,2.039,0,1,1,424.7,125.3,1.993,1.993,0,0,1,426.735,127.251Z" transform="translate(-413.433 -125.302)" fill="#12263f"/>
        <path id="Trazado_116536" data-name="Trazado 116536" d="M426.735,127.251A2.039,2.039,0,1,1,424.7,125.3,1.993,1.993,0,0,1,426.735,127.251Z" transform="translate(-367.293 -125.302)" fill="#12263f"/>
        <ellipse id="Elipse_3981" data-name="Elipse 3981" cx="2.037" cy="1.948" rx="2.037" ry="1.948" transform="translate(18.456 0.002)" fill="#12263f"/>
        <ellipse id="Elipse_4745" data-name="Elipse 4745" cx="2.037" cy="1.948" rx="2.037" ry="1.948" transform="translate(64.595 0.002)" fill="#12263f"/>
        <path id="Trazado_99286" data-name="Trazado 99286" d="M443.628,127.251a2.039,2.039,0,1,1-2.039-1.949A1.994,1.994,0,0,1,443.628,127.251Z" transform="translate(-411.87 -125.302)" fill="#12263f"/>
        <path id="Trazado_116537" data-name="Trazado 116537" d="M443.628,127.251a2.039,2.039,0,1,1-2.039-1.949A1.994,1.994,0,0,1,443.628,127.251Z" transform="translate(-365.73 -125.302)" fill="#12263f"/>
        <path id="Trazado_99287" data-name="Trazado 99287" d="M452.074,127.251a2.039,2.039,0,1,1-2.036-1.949A1.993,1.993,0,0,1,452.074,127.251Z" transform="translate(-411.088 -125.302)" fill="#12263f"/>
      </g>
      <g id="Grupo_156326" data-name="Grupo 156326" transform="translate(0 60.739)">
        <ellipse id="Elipse_4754" data-name="Elipse 4754" cx="2.037" cy="1.948" rx="2.037" ry="1.948" transform="translate(0 0.001)" fill="#12263f"/>
        <ellipse id="Elipse_4750" data-name="Elipse 4750" cx="2.037" cy="1.948" rx="2.037" ry="1.948" transform="translate(46.139 0.001)" fill="#12263f"/>
        <path id="Trazado_116548" data-name="Trazado 116548" d="M426.735,127.251A2.039,2.039,0,1,1,424.7,125.3,1.993,1.993,0,0,1,426.735,127.251Z" transform="translate(-413.433 -125.302)" fill="#12263f"/>
        <path id="Trazado_116542" data-name="Trazado 116542" d="M426.735,127.251A2.039,2.039,0,1,1,424.7,125.3,1.993,1.993,0,0,1,426.735,127.251Z" transform="translate(-367.293 -125.302)" fill="#12263f"/>
        <ellipse id="Elipse_4751" data-name="Elipse 4751" cx="2.037" cy="1.948" rx="2.037" ry="1.948" transform="translate(18.456 0.001)" fill="#12263f"/>
        <ellipse id="Elipse_4752" data-name="Elipse 4752" cx="2.037" cy="1.948" rx="2.037" ry="1.948" transform="translate(64.595 0.001)" fill="#12263f"/>
        <path id="Trazado_116543" data-name="Trazado 116543" d="M443.628,127.251a2.039,2.039,0,1,1-2.039-1.949A1.994,1.994,0,0,1,443.628,127.251Z" transform="translate(-411.87 -125.302)" fill="#12263f"/>
        <path id="Trazado_116544" data-name="Trazado 116544" d="M443.628,127.251a2.039,2.039,0,1,1-2.039-1.949A1.994,1.994,0,0,1,443.628,127.251Z" transform="translate(-365.73 -125.302)" fill="#12263f"/>
        <path id="Trazado_116545" data-name="Trazado 116545" d="M452.074,127.251a2.039,2.039,0,1,1-2.036-1.949A1.993,1.993,0,0,1,452.074,127.251Z" transform="translate(-411.088 -125.302)" fill="#12263f"/>
      </g>
      <g id="Grupo_156328" data-name="Grupo 156328" transform="translate(0 40.492)">
        <ellipse id="Elipse_3985" data-name="Elipse 3985" cx="2.037" cy="1.948" rx="2.037" ry="1.948" transform="translate(0 0)" fill="#12263f"/>
        <ellipse id="Elipse_4746" data-name="Elipse 4746" cx="2.037" cy="1.948" rx="2.037" ry="1.948" transform="translate(46.139 0)" fill="#12263f"/>
        <path id="Trazado_99291" data-name="Trazado 99291" d="M426.735,134.759a2.039,2.039,0,1,1-2.036-1.949A1.993,1.993,0,0,1,426.735,134.759Z" transform="translate(-413.433 -132.81)" fill="#12263f"/>
        <path id="Trazado_116538" data-name="Trazado 116538" d="M426.735,134.759a2.039,2.039,0,1,1-2.036-1.949A1.993,1.993,0,0,1,426.735,134.759Z" transform="translate(-367.293 -132.81)" fill="#12263f"/>
        <ellipse id="Elipse_3986" data-name="Elipse 3986" cx="2.037" cy="1.948" rx="2.037" ry="1.948" transform="translate(18.456 0)" fill="#12263f"/>
        <ellipse id="Elipse_4747" data-name="Elipse 4747" cx="2.037" cy="1.948" rx="2.037" ry="1.948" transform="translate(64.595 0)" fill="#12263f"/>
        <path id="Trazado_99292" data-name="Trazado 99292" d="M443.628,134.759a2.039,2.039,0,1,1-2.039-1.949A1.994,1.994,0,0,1,443.628,134.759Z" transform="translate(-411.87 -132.81)" fill="#12263f"/>
        <path id="Trazado_116539" data-name="Trazado 116539" d="M443.628,134.759a2.039,2.039,0,1,1-2.039-1.949A1.994,1.994,0,0,1,443.628,134.759Z" transform="translate(-365.73 -132.81)" fill="#12263f"/>
        <path id="Trazado_99293" data-name="Trazado 99293" d="M452.074,134.759a2.039,2.039,0,1,1-2.036-1.949A1.993,1.993,0,0,1,452.074,134.759Z" transform="translate(-411.088 -132.81)" fill="#12263f"/>
      </g>
    </g>
    <g id="Grupo_1015138" data-name="Grupo 1015138" transform="translate(274.653 595.534)">
      <circle id="Elipse_8447" data-name="Elipse 8447" cx="48.962" cy="48.962" r="48.962" transform="translate(0 0)" fill="#340b81"/>
      <circle id="Elipse_8448" data-name="Elipse 8448" cx="41.022" cy="41.022" r="41.022" transform="translate(7.94 7.94)" fill="#fff"/>
      <g id="Grupo_1021340" data-name="Grupo 1021340" transform="translate(19.749 21.876)">
        <g id="Grupo_1021339" data-name="Grupo 1021339" clip-path="url(#clip-path)">
          <path id="Trazado_749863" data-name="Trazado 749863" d="M0,32.731a9.679,9.679,0,0,0,.331-1.821,16.137,16.137,0,0,1,1.742-4.884,20.452,20.452,0,0,1,2.118-3.29,18.639,18.639,0,0,1,5.615-4.758,23.948,23.948,0,0,1,2.769-1.311A16.878,16.878,0,0,1,16.933,15.6c1.23-.1,2.453-.052,3.679-.074.4-.007.528-.1.5-.5a3.1,3.1,0,0,1,1.008-2.592l.124-.091a3.21,3.21,0,0,1,2.161-.705c4.776-.014,9.553-.007,14.329-.008.208,0,.416-.011.624-.016.067.02.145.057.182-.029.01-.023-.058-.079-.09-.12a6.727,6.727,0,0,0-2.221-1.428,2.657,2.657,0,0,1-1.511-2.516,2.605,2.605,0,0,1,1.654-2.373,6.148,6.148,0,0,0,3.287-3.174,2.775,2.775,0,0,1,2.1-1.786C42.819.169,42.988.153,43,0h.456a.416.416,0,0,0,.354.218,2.3,2.3,0,0,1,1.868,1.492,6.343,6.343,0,0,0,3.03,3.295c.02.15.038.305.228.114A2.623,2.623,0,0,1,50.2,6.178a2.222,2.222,0,0,1,.463,2.076,2.613,2.613,0,0,1-1.505,1.789,5.478,5.478,0,0,0-2.166,1.474l-.082.08.086.011c.907.006,1.818.056,2.721,0a1.284,1.284,0,0,1,1.5.918,1.678,1.678,0,0,1-1.6.826c-1.1-.077-2.2-.01-3.3-.025a.664.664,0,0,0-.737.411,2.645,2.645,0,0,1-1.346,1.2,2.538,2.538,0,0,1-3.33-1.253.531.531,0,0,0-.553-.36c-5.338.012-10.676.01-16.014.023a1.664,1.664,0,0,0-.983.3c-.663.464-.519,1.134-.537,1.773-.008.268.074.389.372.444a12.543,12.543,0,0,1,1.977.492,19.4,19.4,0,0,1,5.253,2.684,1.637,1.637,0,0,0,1.072.328q10.173-.02,20.346-.008a1.5,1.5,0,0,0,1.685-1.673c0-.874-.007-1.748,0-2.621a2.229,2.229,0,0,0-.271-1.127.852.852,0,0,1,.121-1.035c.576-.325,1-.277,1.277.15a3.363,3.363,0,0,1,.581,1.872c-.007.836,0,1.671,0,2.507a3.264,3.264,0,0,1-1.851,3.323c-.169.079-.183.139-.122.323a11.96,11.96,0,0,1,.113,6.023c.631,0,1.313-.024,1.993,0a3.147,3.147,0,0,1,2.929,2.575,15.331,15.331,0,0,1-.138,4.98,3.551,3.551,0,0,1-3.205,1.957,14.784,14.784,0,0,1,.194,5,1.614,1.614,0,0,1-.153.692,3.275,3.275,0,0,1-3.1,1.969c-4.98-.028-9.96,0-14.94-.024-.667,0-1.155.056-1.441.77a4.608,4.608,0,0,1-.546.833,19.613,19.613,0,0,1-3.721,3.913A16.921,16.921,0,0,1,27.4,52.157c-.548.239-1.088.5-1.631.747l-.908.258a2.113,2.113,0,0,1-.252.095,17.152,17.152,0,0,1-4.169.7c-.083,0-.462-.185-.256.218h-.228c.08-.063.131-.186.012-.193a12.779,12.779,0,0,0-1.394,0c-.118.006-.066.13.013.193h-.228c.183-.162.069-.236-.091-.22-.589.059-1.153-.158-1.741-.13a2.107,2.107,0,0,1-1.07-.216,5.692,5.692,0,0,0-2.112-.474c-.068-.176-.232-.064-.342-.114a2.668,2.668,0,0,0-.8-.424l-.342-.111c-.152-.189-.373-.114-.565-.149-.031-.129-.146-.089-.229-.113a2.891,2.891,0,0,0-.912-.457c-.031-.129-.146-.088-.228-.114a.8.8,0,0,0-.57-.342,2.4,2.4,0,0,0-.57-.571l-.106-.552c.139-.029.075-.177.145-.247.315-.252.688-.534,1.062-.276a15.025,15.025,0,0,0,2.489,1.215,9.249,9.249,0,0,0,2.091.869,24.53,24.53,0,0,0,5.492.517c.013.146.1.2.238.195a2.641,2.641,0,0,1,.565-.231,17.68,17.68,0,0,0,4.424-.976,23.76,23.76,0,0,0,4.031-2.1l.091-.078a16.4,16.4,0,0,0,2.412-2.082l.812-.806.086-.091a15.5,15.5,0,0,0,2.856-4.811c.154-.023.286-.057.1-.231a17.448,17.448,0,0,0,1.263-6.538c.016-1.063-.241-2.1-.327-3.159.155-.2-.012-.2-.141-.225a13.355,13.355,0,0,0-1.855-5.126,16.232,16.232,0,0,0-3.62-4.43,16.736,16.736,0,0,0-4.006-2.684,17.17,17.17,0,0,0-10.011-1.567,12.753,12.753,0,0,0-3.316.8,12.433,12.433,0,0,0-1.762.658,14.73,14.73,0,0,0-3.794,2.41,17.273,17.273,0,0,0-3.227,3.5,17.785,17.785,0,0,0-3.045,8.528,16.693,16.693,0,0,0,.47,5.814,18.231,18.231,0,0,0,1.385,3.692,18.715,18.715,0,0,0,3.323,4.513.662.662,0,0,1,.178.9c-.3-.006-.372.174-.363.427-.3.263-.6.1-.9.017a6.2,6.2,0,0,0-.92-.921,9.406,9.406,0,0,0-1.168-1.469.649.649,0,0,0-.312-.362,3.381,3.381,0,0,0-.668-1.016c-.019-.087.015-.2-.12-.227a.814.814,0,0,0-.346-.568,8.708,8.708,0,0,0-.646-1.344l-1.1-3.1c.014-.126.071-.264-.09-.344a6.194,6.194,0,0,0-.253-1.252c-.128-.409,0-.86-.209-1.255v-1.6q.176-.114,0-.228v-.342A.276.276,0,0,0,0,34.1ZM46.193,5.342l-.133-.1a8.577,8.577,0,0,1-1.878-2.68c-.21-.4-.412-.7-.877-.737a.921.921,0,0,0-.967.615,8.257,8.257,0,0,1-2.331,3.126,10.754,10.754,0,0,1-1.87,1.08,1.151,1.151,0,0,0-.729.973c-.042.519.323.743.68.919a10.957,10.957,0,0,1,2.377,1.525,8.519,8.519,0,0,1,1.94,2.848.883.883,0,0,0,1.252.445,1.318,1.318,0,0,0,.588-.788,7.213,7.213,0,0,1,3.762-3.843,2.648,2.648,0,0,0,.769-.534.852.852,0,0,0-.32-1.453,9.012,9.012,0,0,1-2.261-1.4m.191,23.463c-2.717,0-5.433.016-8.15-.013-.559-.006-.575.205-.446.622a23.225,23.225,0,0,1,.748,4.871c.04.461.168.546.588.544q7.552-.019,15.1-.006c.263,0,.526.021.789.044a1.528,1.528,0,0,0,1.571-1.144,15.363,15.363,0,0,0,.075-3.333c-.037-.97-.525-1.471-1.223-1.534-.4-.036-.794-.05-1.191-.05q-3.933-.006-7.865,0M32.908,21.071c.329.384.57.691.837.974A17.638,17.638,0,0,1,36.8,26.752c.12.255.212.346.469.346,4.349,0,8.7.007,13.048-.009a1.455,1.455,0,0,0,1.613-1.653c.012-.873.005-1.747,0-2.621,0-1.2-.544-1.742-1.754-1.744q-4.758-.006-9.516,0H32.908m3.941,21.48c5.142,0,10.232.006,15.322-.006a1.413,1.413,0,0,0,1.34-1.461c.017-.892.005-1.785,0-2.678,0-1.361-.507-1.874-1.857-1.875q-3.163,0-6.325,0c-2.127,0-4.255,0-6.382,0-.313,0-.493.009-.545.423-.059.473-.119.956-.224,1.423a19.193,19.193,0,0,1-1.332,4.177" transform="translate(0 -0.001)"/>
          <path id="Trazado_749864" data-name="Trazado 749864" d="M0,298.248a.276.276,0,0,1,0,.456Z" transform="translate(0 -264.149)" fill="#010101"/>
          <path id="Trazado_749865" data-name="Trazado 749865" d="M0,305.23q.176.114,0,.228Z" transform="translate(0 -270.333)" fill="#010101"/>
          <path id="Trazado_749866" data-name="Trazado 749866" d="M22.387,30.742a2.333,2.333,0,0,1-.586,3.788,5.52,5.52,0,0,0-1.6.987A7,7,0,0,0,19.013,37.3a2.277,2.277,0,0,1-1.851,1.332,2.149,2.149,0,0,1-2.3-1.307,4.839,4.839,0,0,0-1.784-2.238c-.41-.24-.832-.458-1.25-.684a2.313,2.313,0,0,1,.193-4.042,5.3,5.3,0,0,0,2.748-2.653,2.274,2.274,0,0,1,3.607-.937,2.173,2.173,0,0,1,.716.958A4.82,4.82,0,0,0,21.7,30.313a4.457,4.457,0,0,1,.568.342c.019.061.042.114.123.086M21.362,32.5c0-.39-.012-.472-.54-.715a6.064,6.064,0,0,1-3.194-3.2c-.126-.293-.3-.592-.746-.566-.418.025-.514.318-.651.6a5.642,5.642,0,0,1-2.256,2.633c-.368.205-.741.4-1.1.625-.588.363-.585.885.03,1.169a6.594,6.594,0,0,1,3.441,3.444c.093.214.173.465.5.444a.716.716,0,0,0,.691-.458,6.454,6.454,0,0,1,3.5-3.491c.246-.106.377-.236.323-.48" transform="translate(-9.5 -23.238)" fill="#010101"/>
          <path id="Trazado_749867" data-name="Trazado 749867" d="M344.317,100.209c.032.041.1.1.09.12-.037.086-.115.049-.182.029l.092-.15" transform="translate(-304.869 -88.752)" fill="#d3d3ff"/>
          <path id="Trazado_749868" data-name="Trazado 749868" d="M193.564,107.853l-.124.091c.017-.063.044-.114.124-.091" transform="translate(-171.324 -95.517)" fill="#010101"/>
          <path id="Trazado_749869" data-name="Trazado 749869" d="M21.64,190.194l-1.48-1.123a.387.387,0,0,0-.243-.241l.137-.316a.662.662,0,0,0-.178-.9,18.712,18.712,0,0,1-3.323-4.513,18.234,18.234,0,0,1-1.385-3.692,16.693,16.693,0,0,1-.47-5.814,17.785,17.785,0,0,1,3.045-8.528,17.273,17.273,0,0,1,3.227-3.5,14.73,14.73,0,0,1,3.794-2.41,12.434,12.434,0,0,1,1.762-.658c-.219.682-.47,1.356-.648,2.049a6.407,6.407,0,0,0-.486,2.3.869.869,0,0,0-.038.1,1.529,1.529,0,0,0-.773.464c-.091,0-.187,0-.216.116l-.453.273c-.146-.016-.1.114-.136.18-.089,0-.179,0-.213.11a4.017,4.017,0,0,1-1.127.985.849.849,0,0,0-.416.442c-.082.38-.393.518-.621.746a.363.363,0,0,0-.248.34l-.209.235c-.122.025-.115.123-.12.214l-.108.123c-.064.013-.107.045-.1.118l-.136.227c-.119.034-.11.135-.12.227a.393.393,0,0,0-.227.342c-.116.038-.1.135-.106.226a2.963,2.963,0,0,0-.571,1.022c-.061.02-.109.049-.09.126s-.2.133-.027.231l-.316.681-.225.684c.012.431.126.887-.333,1.193-.041.027,0,.157-.035.215-.311.508-.024,1.064-.122,1.616a9.822,9.822,0,0,0,.065,3.2c.1.631.372,1.188.5,1.792a9.373,9.373,0,0,0,1.609,3.52.23.23,0,0,0,.165.263l.013.022c.053.093.023.236.167.273a1.685,1.685,0,0,0,.563.7.352.352,0,0,0,.234.334,14.69,14.69,0,0,0,2.167,2.052c.036.11.129.106.219.109l.123.108c.013.065.045.107.118.1a5.921,5.921,0,0,0,1.365.83c.261.153.455.434.8.418a3.361,3.361,0,0,0,1.141.445c.152.171.389.137.57.24a12.566,12.566,0,0,0,4.318.591c.535-.028,1.065-.107,1.59-.172A13.485,13.485,0,0,0,36,188.513c.163-.007.338.014.419-.181a2.767,2.767,0,0,0,1.407-.5c.087-.016.193.007.23-.112.244.037.392-.137.565-.256.122-.056.268-.071.348-.2a7.455,7.455,0,0,0,1.49-.917.423.423,0,0,0,.088-.008c.089.357.428.276.652.325,1.155.257,2.319.475,3.48.706a16.4,16.4,0,0,1-2.412,2.082c-.078-.03-.1.008-.091.078a23.761,23.761,0,0,1-4.031,2.1,17.685,17.685,0,0,1-4.424.976,2.642,2.642,0,0,0-.565.231c-.014-.144-.055-.255-.238-.195a24.537,24.537,0,0,1-5.492-.517,9.254,9.254,0,0,1-2.091-.869,15.025,15.025,0,0,1-2.489-1.215c-.374-.258-.747.024-1.062.277l-.147-.123" transform="translate(-12.961 -140.379)" fill="#3379db"/>
          <path id="Trazado_749870" data-name="Trazado 749870" d="M227.9,109.577a9.953,9.953,0,0,1,1.62.088,1.477,1.477,0,0,1,.537.288.852.852,0,0,0-.121,1.035,2.229,2.229,0,0,1,.271,1.127c-.011.873,0,1.747,0,2.621a1.5,1.5,0,0,1-1.685,1.673q-10.173,0-20.346.008a1.637,1.637,0,0,1-1.072-.328,19.4,19.4,0,0,0-5.253-2.684,12.543,12.543,0,0,0-1.977-.492c-.3-.056-.38-.176-.372-.444.018-.64-.126-1.309.537-1.774a1.664,1.664,0,0,1,.983-.3c5.338-.013,10.676-.01,16.014-.023a.531.531,0,0,1,.553.36,2.538,2.538,0,0,0,3.33,1.253,2.645,2.645,0,0,0,1.346-1.2.664.664,0,0,1,.737-.411c1.1.015,2.208-.052,3.3.025a1.678,1.678,0,0,0,1.6-.826" transform="translate(-176.686 -97.049)" fill="#fae84c"/>
          <path id="Trazado_749871" data-name="Trazado 749871" d="M127.913,179.671c-1.161-.231-2.325-.448-3.48-.706-.224-.05-.562.031-.652-.326l.249-.225a5.7,5.7,0,0,0,1.257-1.137l0,0a5.166,5.166,0,0,0,1.254-1.477c.133-.094.284-.171.311-.357.339-.616,1-1.045,1.064-1.819a.727.727,0,0,0,.226-.458,10.96,10.96,0,0,0,1.223-4.516,13.961,13.961,0,0,0-.206-4.107,13.352,13.352,0,0,0-1.593-4.143l.079-.086-.08-.047c-.072-.409-.455-.584-.675-.884a13.639,13.639,0,0,0-4.47-4.123,14.417,14.417,0,0,0-8.6-1.733,18.2,18.2,0,0,0-4.054,1.067c-.076-.02-.1.027-.123.088l0-.005c-.085.02-.192-.006-.227.113-.084.022-.192-.006-.228.113l-.568.24a6.406,6.406,0,0,1,.486-2.295c.178-.693.429-1.367.648-2.049a12.762,12.762,0,0,1,3.316-.8,17.17,17.17,0,0,1,10.011,1.567,16.733,16.733,0,0,1,4.006,2.684,16.233,16.233,0,0,1,3.62,4.43,13.354,13.354,0,0,1,1.855,5.126c-.13.186.066.168.141.225.086,1.055.343,2.1.327,3.159a17.448,17.448,0,0,1-1.263,6.538c-.051.069-.276.061-.1.231a15.5,15.5,0,0,1-2.856,4.811c-.072-.011-.106.015-.086.091l-.812.806" transform="translate(-96.192 -132.681)" fill="#6993e4"/>
          <path id="Trazado_749872" data-name="Trazado 749872" d="M338.6,251.837q3.933,0,7.865,0c.4,0,.8.014,1.191.05.7.064,1.186.564,1.223,1.534a15.369,15.369,0,0,1-.075,3.333,1.528,1.528,0,0,1-1.571,1.144c-.263-.023-.526-.044-.789-.044q-7.551-.006-15.1.006c-.42,0-.548-.084-.588-.544a23.235,23.235,0,0,0-.748-4.871c-.129-.417-.113-.628.446-.622,2.716.029,5.433.013,8.15.013" transform="translate(-292.215 -223.033)" fill="#fae84c"/>
          <path id="Trazado_749873" data-name="Trazado 749873" d="M287.829,184.282h7.757q4.758,0,9.515,0c1.21,0,1.75.543,1.754,1.744,0,.874.01,1.747,0,2.621a1.455,1.455,0,0,1-1.613,1.653c-4.349.016-8.7.006-13.048.009-.257,0-.349-.091-.469-.346a17.638,17.638,0,0,0-3.059-4.708c-.267-.282-.508-.589-.836-.974" transform="translate(-254.921 -163.212)" fill="#fec737"/>
          <path id="Trazado_749874" data-name="Trazado 749874" d="M322.3,325.5a19.191,19.191,0,0,0,1.332-4.177c.106-.467.165-.95.224-1.423.052-.415.232-.424.545-.423,2.127.008,4.255,0,6.382,0q3.163,0,6.325,0c1.35,0,1.856.514,1.857,1.875,0,.893.012,1.785,0,2.678a1.413,1.413,0,0,1-1.34,1.461c-5.09.012-10.179.006-15.322.006" transform="translate(-285.45 -282.952)" fill="#fec737"/>
          <path id="Trazado_749875" data-name="Trazado 749875" d="M335.938,19.449a9.012,9.012,0,0,0,2.261,1.4.852.852,0,0,1,.32,1.453,2.648,2.648,0,0,1-.769.534,7.213,7.213,0,0,0-3.762,3.843,1.318,1.318,0,0,1-.588.788.883.883,0,0,1-1.252-.445,8.517,8.517,0,0,0-1.941-2.848,10.957,10.957,0,0,0-2.376-1.525c-.357-.175-.722-.4-.68-.919a1.151,1.151,0,0,1,.729-.973,10.754,10.754,0,0,0,1.87-1.08,8.257,8.257,0,0,0,2.331-3.126.921.921,0,0,1,.967-.615c.466.039.668.335.877.737a8.574,8.574,0,0,0,1.878,2.68c.024.061.052.116.133.1" transform="translate(-289.745 -14.108)" fill="#fec737"/>
          <path id="Trazado_749876" data-name="Trazado 749876" d="M59.218,421l-.137.316-.118.117-.055.011-.053-.016c-.009-.253.068-.433.363-.427" transform="translate(-52.125 -372.871)"/>
          <path id="Trazado_749877" data-name="Trazado 749877" d="M309.788,359.3c-.172-.17.052-.161.1-.231.182.174.05.207-.1.231" transform="translate(-274.313 -318.013)" fill="#010101"/>
          <path id="Trazado_749878" data-name="Trazado 749878" d="M317.945,272.508c-.076-.057-.272-.039-.141-.225.13.023.3.024.141.225" transform="translate(-281.43 -241.152)" fill="#010101"/>
          <path id="Trazado_749879" data-name="Trazado 749879" d="M426.031,43.776c.084.022.2-.027.228.114-.19.191-.208.037-.228-.114" transform="translate(-377.322 -38.771)"/>
          <path id="Trazado_749880" data-name="Trazado 749880" d="M174.585,456.98c.182-.061.223.051.238.195-.135,0-.225-.049-.238-.195" transform="translate(-154.624 -404.717)" fill="#010101"/>
          <path id="Trazado_749881" data-name="Trazado 749881" d="M410.361,100.728a.286.286,0,0,1,0,.09l-.086-.011.082-.08" transform="translate(-363.371 -89.212)" fill="#d3d3ff"/>
          <path id="Trazado_749882" data-name="Trazado 749882" d="M255.547,429.211c-.007-.07.013-.108.091-.078l-.091.078" transform="translate(-226.329 -380.061)" fill="#010101"/>
          <path id="Trazado_749883" data-name="Trazado 749883" d="M284.511,403.233c-.02-.076.013-.1.086-.091l-.086.091" transform="translate(-251.977 -357.049)" fill="#010101"/>
          <path id="Trazado_749884" data-name="Trazado 749884" d="M402.991,45.952c-.082.017-.109-.038-.133-.1l.133.1" transform="translate(-356.799 -40.611)" fill="#010101"/>
          <path id="Trazado_749885" data-name="Trazado 749885" d="M34.626,46.267c.053.244-.078.374-.323.48a6.454,6.454,0,0,0-3.5,3.491.716.716,0,0,1-.691.458c-.329.021-.409-.23-.5-.444a6.594,6.594,0,0,0-3.441-3.444c-.614-.283-.618-.805-.03-1.169.359-.221.731-.419,1.1-.625a5.642,5.642,0,0,0,2.256-2.633c.138-.282.234-.575.651-.6.445-.026.621.273.746.566a6.064,6.064,0,0,0,3.194,3.2c.528.242.536.324.54.715" transform="translate(-22.764 -37.004)" fill="#fec737"/>
          <path id="Trazado_749886" data-name="Trazado 749886" d="M54.2,182.744a18.2,18.2,0,0,1,4.054-1.067,14.418,14.418,0,0,1,8.6,1.733,13.64,13.64,0,0,1,4.47,4.123c.22.3.6.475.675.884,0,.045,0,.089,0,.134a13.351,13.351,0,0,1,1.593,4.143A13.962,13.962,0,0,1,73.8,196.8a10.961,10.961,0,0,1-1.223,4.516c-.283.05-.483.141-.226.458-.068.774-.726,1.2-1.064,1.819-.266-.023-.34.123-.311.357a5.165,5.165,0,0,1-1.254,1.477c-.019-.083-.013-.185-.141-.18a.053.053,0,0,0-.036.036c0,.128.1.122.181.141a5.7,5.7,0,0,1-1.257,1.137c-.121.064-.45-.171-.337.233a7.454,7.454,0,0,1-1.49.917c-.3-.25-.34-.054-.348.2-.173.119-.321.293-.565.256-.188-.19-.209-.04-.23.112a2.759,2.759,0,0,1-1.407.5c-.193-.062-.377-.1-.419.182a13.492,13.492,0,0,1-1.965.392c-.525.065-1.055.145-1.59.173a12.572,12.572,0,0,1-4.318-.591c-.127-.451-.28-.516-.57-.24a3.358,3.358,0,0,1-1.141-.444.507.507,0,0,0-.32-.471c-.153-.045-.377-.4-.485.053a5.923,5.923,0,0,1-1.365-.83l-.118-.1-.123-.108c.069-.043.127-.113.059-.176-.108-.1-.2-.039-.278.067a14.686,14.686,0,0,1-2.167-2.052c-.086-.106.214-.482-.234-.334a1.685,1.685,0,0,1-.563-.7c.1-.069.14-.164.065-.264-.061-.082-.153-.054-.232-.009,0,0-.013-.022-.013-.022.06-.1.1-.22.015-.315-.061-.07-.134-.014-.181.053a9.374,9.374,0,0,1-1.609-3.52c-.126-.6-.4-1.16-.5-1.792a9.822,9.822,0,0,1-.065-3.2c.1-.552-.189-1.108.122-1.616.036-.058-.005-.188.035-.215.459-.305.345-.762.333-1.193.478-.17.537-.35.225-.684l.316-.681a.236.236,0,0,0,.122-.231l0-.126a2.967,2.967,0,0,1,.571-1.021c.045.068.115.12.176.05.094-.108.036-.2-.07-.276a.393.393,0,0,1,.227-.342c.147-.019.3-.033.12-.227l.136-.227.1-.118.108-.123c.042.068.109.128.174.064.1-.1.048-.2-.054-.277l.209-.235c.248.008.253-.163.248-.34.228-.228.539-.366.621-.746a.848.848,0,0,1,.416-.442,4.016,4.016,0,0,0,1.127-.985c.184.2.3.152.348-.1q0-.094,0-.188l.453-.273c.075.1.174.159.277.058.066-.064.007-.132-.061-.174a1.53,1.53,0,0,1,.773-.464c.273.012.576.08.606-.34.035-.119.144-.092.227-.113.189.19.209.041.227-.113l0,.005.123-.088m-4.7,19.367c-.093.02-.2.047-.154.17.049.142.179.169.316.164.148.121.324.222.325.449.047.105-.136.432.226.234l.229.339c.047.1-.132.435.228.228a12.878,12.878,0,0,0,3.422,2.737c.083.408.319.514.692.35a2.944,2.944,0,0,1,1.133.448c.009.115.027.227.179.222.119,0,.14-.1.158-.19.241-.073.414.076.6.18.169.092.344.193.537.048.03.154.075.267.231.087a3.312,3.312,0,0,0,1.174.238,12.217,12.217,0,0,0,4.754-.553c.248.271.353.244.565-.146l.917-.424c.012.073.029.171.114.157.157-.025.1-.171.115-.271.108-.059.2-.163.337-.146.294.249.339.058.347-.2l1.25-.83c.294.191.2-.075.233-.2a11.2,11.2,0,0,0,3.327-4.011c.169,0,.339-.009.407-.2.056-.154-.022-.24-.179-.26.108-.25.214-.5.324-.75a9.575,9.575,0,0,0,.769-3.192,13.871,13.871,0,0,0-.058-2.989c-.141-.99-.509-1.906-.714-2.87l-.091-.119a12.164,12.164,0,0,0-2.771-4.082c-.606-.588-1.311-1.041-1.935-1.6-.017-.142-.015-.319-.223-.127a16.706,16.706,0,0,0-3.894-1.5,14.408,14.408,0,0,0-4.68-.073,5.79,5.79,0,0,0-1.52.359,7.171,7.171,0,0,1-1.532.534c-.392-.222-.552-.058-.57.342l-.914.565c-.073-.1-.17-.159-.275-.064-.068.061-.015.13.052.174-.084.305-.557.2-.588.562-.092.009-.226-.02-.272.031a19.913,19.913,0,0,0-2.563,2.955c-.039-.067-.1-.133-.167-.064s-.007.128.06.168a14.232,14.232,0,0,0-1.138,2.3,19.165,19.165,0,0,0-.687,2.993,12.3,12.3,0,0,0,1.9,7.819" transform="translate(-40.627 -160.827)"/>
          <path id="Trazado_749887" data-name="Trazado 749887" d="M110.686,409.36c.108-.454.332-.1.485-.053a.507.507,0,0,1,.32.471c-.349.016-.543-.265-.8-.418" transform="translate(-98.031 -362.355)"/>
          <path id="Trazado_749888" data-name="Trazado 749888" d="M51.3,262.34c.312.334.253.515-.225.684l.225-.684" transform="translate(-45.236 -232.346)"/>
          <path id="Trazado_749889" data-name="Trazado 749889" d="M127.7,417.4c.29-.276.443-.211.57.24-.18-.1-.418-.069-.57-.24" transform="translate(-113.102 -369.531)"/>
          <path id="Trazado_749890" data-name="Trazado 749890" d="M108.994,194.4c-.03.42-.333.353-.606.34a.883.883,0,0,1,.038-.1l.568-.24" transform="translate(-95.996 -172.17)"/>
          <path id="Trazado_749891" data-name="Trazado 749891" d="M224.467,409.377c.008-.254.049-.45.348-.2-.08.129-.225.145-.348.2" transform="translate(-198.803 -362.293)"/>
          <path id="Trazado_749892" data-name="Trazado 749892" d="M73.727,379.962c.448-.147.148.229.234.334a.352.352,0,0,1-.234-.334" transform="translate(-65.297 -336.491)"/>
          <path id="Trazado_749893" data-name="Trazado 749893" d="M65.767,368.54c.047-.067.12-.123.181-.053.084.1.044.212-.015.315a.229.229,0,0,1-.166-.263" transform="translate(-58.246 -326.329)"/>
          <path id="Trazado_749894" data-name="Trazado 749894" d="M68.884,231.406c.1.076.157.175.054.277-.065.064-.132,0-.174-.064.005-.091,0-.188.12-.214" transform="translate(-60.902 -204.949)"/>
          <path id="Trazado_749895" data-name="Trazado 749895" d="M201.544,419.244c.042-.285.226-.244.419-.182-.081.2-.256.175-.419.182" transform="translate(-178.501 -371.111)"/>
          <path id="Trazado_749896" data-name="Trazado 749896" d="M61.926,242.345c.106.072.164.168.07.276-.061.07-.131.018-.176-.05,0-.091-.01-.188.106-.226" transform="translate(-54.752 -214.637)"/>
          <path id="Trazado_749897" data-name="Trazado 749897" d="M240.36,400.163c-.114-.4.215-.168.337-.233l-.249.225a.43.43,0,0,1-.088.008" transform="translate(-212.858 -354.196)"/>
          <path id="Trazado_749898" data-name="Trazado 749898" d="M94.728,400.186c.073-.106.17-.167.278-.067.068.063.009.133-.059.176-.089,0-.183,0-.219-.109" transform="translate(-83.898 -354.328)"/>
          <path id="Trazado_749899" data-name="Trazado 749899" d="M99.958,201.426c.068.042.127.11.061.174-.1.1-.2.045-.277-.058.029-.119.125-.113.216-.116" transform="translate(-88.338 -178.397)"/>
          <path id="Trazado_749900" data-name="Trazado 749900" d="M67.343,371.348c.08-.046.172-.073.232.009.074.1.034.195-.065.264-.144-.037-.114-.18-.167-.273" transform="translate(-59.644 -328.853)"/>
          <path id="Trazado_749901" data-name="Trazado 749901" d="M93.078,206.417c-.052.253-.163.3-.348.1.034-.108.124-.108.213-.11l.135.008" transform="translate(-82.128 -182.81)"/>
          <path id="Trazado_749902" data-name="Trazado 749902" d="M71.884,226.381c0,.177,0,.347-.248.34a.363.363,0,0,1,.248-.34" transform="translate(-63.446 -200.499)"/>
          <path id="Trazado_749903" data-name="Trazado 749903" d="M64.851,237.374c.184.194.027.208-.12.227.01-.091,0-.193.12-.227" transform="translate(-57.33 -210.235)"/>
          <path id="Trazado_749904" data-name="Trazado 749904" d="M217.516,413.485c.021-.152.042-.3.23-.112-.037.12-.143.1-.23.112" transform="translate(-192.647 -366.033)"/>
          <path id="Trazado_749905" data-name="Trazado 749905" d="M55.412,254.358a.236.236,0,0,1-.122.231c-.172-.1.048-.151.027-.231h.094" transform="translate(-48.91 -225.277)" fill="#010101"/>
          <path id="Trazado_749906" data-name="Trazado 749906" d="M94.725,205.011,94.59,205c.037-.067-.01-.2.136-.18q0,.094,0,.188" transform="translate(-83.775 -181.404)" fill="#010101"/>
          <path id="Trazado_749907" data-name="Trazado 749907" d="M56.1,253.381h-.094c-.02-.077.028-.106.09-.126,0,.042,0,.084,0,.126" transform="translate(-49.599 -224.3)"/>
          <path id="Trazado_749908" data-name="Trazado 749908" d="M67.054,234.351l-.1.118c-.009-.074.034-.105.1-.118" transform="translate(-59.3 -207.557)"/>
          <path id="Trazado_749909" data-name="Trazado 749909" d="M97.714,403l.118.1c-.073.008-.105-.034-.118-.1" transform="translate(-86.542 -356.924)"/>
          <path id="Trazado_749910" data-name="Trazado 749910" d="M276.531,354.6c-.257-.317-.057-.408.226-.458a.726.726,0,0,1-.226.458" transform="translate(-244.809 -313.65)"/>
          <path id="Trazado_749911" data-name="Trazado 749911" d="M265.374,374.395c-.029-.235.045-.38.311-.357-.027.186-.179.263-.311.357" transform="translate(-235.028 -331.271)"/>
          <path id="Trazado_749912" data-name="Trazado 749912" d="M115.905,192.418c-.018.154-.039.3-.227.113.035-.119.142-.093.227-.113" transform="translate(-102.452 -170.419)"/>
          <path id="Trazado_749913" data-name="Trazado 749913" d="M274.378,241.446v-.134l.08.047-.079.086" transform="translate(-243.007 -213.723)"/>
          <path id="Trazado_749914" data-name="Trazado 749914" d="M117.745,191.663l-.123.088c.019-.061.047-.108.123-.088" transform="translate(-104.174 -169.746)"/>
          <path id="Trazado_749915" data-name="Trazado 749915" d="M102.671,199.021c.032-.359.5-.257.588-.562.086-.012.2.024.223-.11l.914-.565a.759.759,0,0,0,.57-.342,7.163,7.163,0,0,0,1.532-.534,5.8,5.8,0,0,1,1.52-.359,14.407,14.407,0,0,1,4.68.073,16.707,16.707,0,0,1,3.894,1.5c.025.128.139.1.223.127.624.557,1.329,1.01,1.935,1.6a12.164,12.164,0,0,1,2.771,4.082c-.023.081.026.106.091.119.205.964.573,1.881.714,2.87a13.871,13.871,0,0,1,.058,2.989,9.577,9.577,0,0,1-.769,3.192c-.111.249-.216.5-.324.75l-.228.456a11.2,11.2,0,0,1-3.327,4.011c-.134,0-.18.1-.233.2l-1.25.83a.124.124,0,0,0-.1-.012,26.652,26.652,0,0,1-5.265-2.518c0-.361.008-.721,0-1.082,0-.209.043-.34.286-.4a3.957,3.957,0,0,0,2.879-2.665,3.58,3.58,0,0,0-.942-4.065,5.972,5.972,0,0,0-1.781-.975c-.132-.059-.342.007-.339-.272.014-1.284.006-2.569.006-3.905a5,5,0,0,1,1.027.528.824.824,0,0,0,1.23-.181.813.813,0,0,0-.164-1.138,2.721,2.721,0,0,0-1.3-.712c-.68-.131-1.069-.4-.912-1.172.076-.376-.251-.578-.528-.686a.677.677,0,0,0-.771.176,1.181,1.181,0,0,0-.4,1.053c.053.345-.108.47-.417.581a3.534,3.534,0,0,0-2.193,4.415c.376,1.28,1.518,1.792,2.609,2.318l.084.09q0,2.454,0,4.909l-.087.092a2.212,2.212,0,0,1-1.578-.506,1.551,1.551,0,0,0-1.044-.261,19.828,19.828,0,0,1-2.4-4.1,18.89,18.89,0,0,1-1.385-8.908c.029-.3.137-.642-.109-.924" transform="translate(-90.933 -173.937)" fill="#eeecff"/>
          <path id="Trazado_749916" data-name="Trazado 749916" d="M73.7,237.194a26.65,26.65,0,0,0,5.265,2.518l-.246.209c-.141-.017-.229.087-.337.146l-.228.113-.917.424-.566.146a12.216,12.216,0,0,1-4.754.553,3.31,3.31,0,0,1-1.174-.238c-.036-.138-.136-.106-.231-.087-.193.144-.367.044-.537-.048-.19-.1-.363-.252-.6-.18l-.337-.032a2.946,2.946,0,0,0-1.133-.448,1.425,1.425,0,0,0-.692-.35,12.881,12.881,0,0,1-3.422-2.737l-.228-.228-.229-.339-.226-.234c0-.227-.177-.328-.325-.449.023-.149-.1-.226-.162-.334a12.3,12.3,0,0,1-1.9-7.819,19.162,19.162,0,0,1,.687-2.993,14.228,14.228,0,0,1,1.138-2.3l.107-.1a19.912,19.912,0,0,1,2.563-2.955c.045-.051.179-.023.272-.031.245.282.137.623.109.924a18.89,18.89,0,0,0,1.385,8.908,19.826,19.826,0,0,0,2.4,4.1.883.883,0,0,0-.088,1.549,3.989,3.989,0,0,0,2.2.929c.4.049.544.153.507.54a1.207,1.207,0,0,0,.634,1.266c.431.216.752-.172,1.069-.421" transform="translate(-53.74 -194.316)" fill="#d3d3ff"/>
          <path id="Trazado_749917" data-name="Trazado 749917" d="M118.333,204.822a.759.759,0,0,1-.57.342c.018-.4.178-.564.57-.342" transform="translate(-104.299 -181.316)"/>
          <path id="Trazado_749918" data-name="Trazado 749918" d="M117.763,398.879a1.425,1.425,0,0,1,.692.35c-.373.164-.609.058-.692-.35" transform="translate(-104.299 -353.275)"/>
          <path id="Trazado_749919" data-name="Trazado 749919" d="M200.524,405.01l.565-.146c-.212.39-.317.418-.565.146" transform="translate(-177.598 -358.575)"/>
          <path id="Trazado_749920" data-name="Trazado 749920" d="M263.541,349.576l.228-.456c.157.02.236.106.179.26-.069.187-.238.2-.407.2" transform="translate(-233.41 -309.205)"/>
          <path id="Trazado_749921" data-name="Trazado 749921" d="M218.44,397.223l.246-.209a.124.124,0,0,1,.1.012c-.008.255-.053.446-.347.2" transform="translate(-193.465 -351.618)"/>
          <path id="Trazado_749922" data-name="Trazado 749922" d="M76.329,361.09c.062.107.185.185.162.334-.137.005-.267-.022-.316-.164-.042-.122.061-.15.154-.17" transform="translate(-67.457 -319.806)"/>
          <path id="Trazado_749923" data-name="Trazado 749923" d="M107.388,212.65c-.026.134-.136.1-.223.11-.068-.044-.121-.113-.053-.174.106-.1.2-.04.275.064" transform="translate(-94.838 -188.238)"/>
          <path id="Trazado_749924" data-name="Trazado 749924" d="M133.725,405.862l.337.032c-.019.092-.039.186-.158.19-.152,0-.17-.107-.179-.222" transform="translate(-118.436 -359.459)"/>
          <path id="Trazado_749925" data-name="Trazado 749925" d="M213.494,400.277l.228-.113c-.019.1.042.246-.115.271-.085.013-.1-.084-.114-.157" transform="translate(-189.085 -354.413)"/>
          <path id="Trazado_749926" data-name="Trazado 749926" d="M85.809,372.945l.228.228c-.36.207-.181-.124-.228-.228" transform="translate(-75.995 -330.306)"/>
          <path id="Trazado_749927" data-name="Trazado 749927" d="M81.815,367.933l.226.234c-.361.2-.179-.129-.226-.234" transform="translate(-72.456 -325.867)"/>
          <path id="Trazado_749928" data-name="Trazado 749928" d="M232.4,388.385c.053-.094.1-.2.233-.2-.031.122.06.387-.233.2" transform="translate(-205.834 -343.807)"/>
          <path id="Trazado_749929" data-name="Trazado 749929" d="M146.652,408c.1-.019.2-.051.231.087-.156.18-.2.067-.231-.087" transform="translate(-129.885 -361.34)"/>
          <path id="Trazado_749930" data-name="Trazado 749930" d="M76.336,244.8l-.107.1c-.067-.04-.131-.1-.06-.168s.128,0,.167.064" transform="translate(-67.432 -216.726)"/>
          <path id="Trazado_749931" data-name="Trazado 749931" d="M253.078,388.695c-.083-.018-.185-.013-.181-.141a.053.053,0,0,1,.036-.036c.128,0,.122.1.141.181l0,0" transform="translate(-223.984 -344.098)"/>
          <path id="Trazado_749932" data-name="Trazado 749932" d="M224.66,211.028c-.084-.025-.2,0-.223-.127.208-.192.206-.015.223.127" transform="translate(-198.777 -186.714)"/>
          <path id="Trazado_749933" data-name="Trazado 749933" d="M267.591,262.47c-.066-.012-.115-.038-.091-.119l.091.119" transform="translate(-236.911 -232.356)"/>
          <path id="Trazado_749934" data-name="Trazado 749934" d="M137.124,245.021c-.317.249-.638.638-1.069.422a1.207,1.207,0,0,1-.634-1.266c.036-.387-.111-.491-.507-.54a3.989,3.989,0,0,1-2.2-.929.883.883,0,0,1,.088-1.549,1.55,1.55,0,0,1,1.044.261,2.212,2.212,0,0,0,1.578.506c.083.02.106-.016.087-.092q0-2.454,0-4.909c.021-.076-.007-.106-.084-.09-1.091-.526-2.233-1.038-2.61-2.318A3.534,3.534,0,0,1,135,230.1c.31-.111.47-.236.417-.581a1.181,1.181,0,0,1,.4-1.053.678.678,0,0,1,.771-.176c.277.108.6.31.528.686-.157.774.233,1.041.912,1.172a2.719,2.719,0,0,1,1.3.712.813.813,0,0,1,.164,1.138.824.824,0,0,1-1.23.181,5,5,0,0,0-1.027-.528c0,1.337.008,2.621-.006,3.905,0,.279.207.214.339.273a5.971,5.971,0,0,1,1.782.975,3.58,3.58,0,0,1,.942,4.065,3.957,3.957,0,0,1-2.879,2.665c-.243.064-.288.2-.286.4,0,.361,0,.721,0,1.082m-1.617-10.262v-2.852c.02-.078-.005-.109-.086-.083a1.552,1.552,0,0,0-1.025,1.366c-.048.781.068,1.267.9,1.577.074.071.151.207.215-.008m1.729,6.984a.892.892,0,0,0,.648-.3,2.2,2.2,0,0,0-.157-3.708c-.266-.146-.513-.283-.5.251.028,1.248.009,2.5.009,3.755" transform="translate(-117.169 -202.143)"/>
          <path id="Trazado_749935" data-name="Trazado 749935" d="M159.728,347.145c.02.077,0,.113-.087.092l.087-.092" transform="translate(-141.389 -307.455)" fill="#d3d3ff"/>
          <path id="Trazado_749936" data-name="Trazado 749936" d="M159.644,303.392c.077-.016.1.014.084.09l-.084-.09" transform="translate(-141.392 -268.701)" fill="#d3d3ff"/>
          <path id="Trazado_749937" data-name="Trazado 749937" d="M175.45,314.311c0-1.257.019-2.507-.009-3.755-.012-.533.235-.4.5-.251a2.2,2.2,0,0,1,.157,3.708.893.893,0,0,1-.648.3" transform="translate(-155.382 -274.711)" fill="#eeecff"/>
          <path id="Trazado_749938" data-name="Trazado 749938" d="M151.719,259.678v2.852l-.215.008c-.829-.31-.944-.8-.9-1.577a1.552,1.552,0,0,1,1.025-1.366l.086.083" transform="translate(-133.381 -229.915)" fill="#eeecff"/>
          <path id="Trazado_749939" data-name="Trazado 749939" d="M158.52,285.279l.215-.008c-.064.215-.141.078-.215.008" transform="translate(-140.396 -252.656)" fill="#d3d3ff"/>
          <path id="Trazado_749940" data-name="Trazado 749940" d="M159.733,259.61l-.086-.083c.08-.025.106.005.086.083" transform="translate(-141.394 -229.847)" fill="#d3d3ff"/>
        </g>
      </g>
    </g>
  </g>
</svg>
