<svg xmlns="http://www.w3.org/2000/svg" xmlns:xlink="http://www.w3.org/1999/xlink" width="111.778" height="111.001" viewBox="0 0 111.778 111.001">
  <defs>
    <clipPath id="clip-path">
      <rect id="Rectángulo_352916" data-name="Rectángulo 352916" width="52.273" height="51.666" fill="#12263f"/>
    </clipPath>
  </defs>
  <g id="Grupo_1136630" data-name="Grupo 1136630" transform="translate(-263 -595.534)">
    <g id="Grupo_156356" data-name="Grupo 156356" transform="translate(263 640.6)">
      <g id="Grupo_156332" data-name="Grupo 156332" transform="translate(0 0)">
        <path id="Trazado_99257" data-name="Trazado 99257" d="M418.371,104.766a2.081,2.081,0,1,1-2.08-1.987A2.035,2.035,0,0,1,418.371,104.766Z" transform="translate(-414.214 -102.779)" fill="#12263f"/>
        <path id="Trazado_116526" data-name="Trazado 116526" d="M418.371,104.766a2.081,2.081,0,1,1-2.08-1.987A2.035,2.035,0,0,1,418.371,104.766Z" transform="translate(-367.148 -102.779)" fill="#12263f"/>
        <path id="Trazado_99258" data-name="Trazado 99258" d="M426.817,104.766a2.08,2.08,0,1,1-2.077-1.987A2.034,2.034,0,0,1,426.817,104.766Z" transform="translate(-413.247 -102.779)" fill="#12263f"/>
        <path id="Trazado_116527" data-name="Trazado 116527" d="M426.817,104.766a2.08,2.08,0,1,1-2.077-1.987A2.034,2.034,0,0,1,426.817,104.766Z" transform="translate(-366.18 -102.779)" fill="#12263f"/>
        <path id="Trazado_99259" data-name="Trazado 99259" d="M435.263,104.766a2.081,2.081,0,1,1-2.077-1.987A2.034,2.034,0,0,1,435.263,104.766Z" transform="translate(-412.28 -102.779)" fill="#12263f"/>
        <path id="Trazado_116531" data-name="Trazado 116531" d="M435.263,104.766a2.081,2.081,0,1,1-2.077-1.987A2.034,2.034,0,0,1,435.263,104.766Z" transform="translate(-365.213 -102.779)" fill="#12263f"/>
        <path id="Trazado_99260" data-name="Trazado 99260" d="M443.71,104.766a2.08,2.08,0,1,1-2.079-1.987A2.034,2.034,0,0,1,443.71,104.766Z" transform="translate(-411.314 -102.779)" fill="#12263f"/>
        <path id="Trazado_116532" data-name="Trazado 116532" d="M443.71,104.766a2.08,2.08,0,1,1-2.079-1.987A2.034,2.034,0,0,1,443.71,104.766Z" transform="translate(-364.247 -102.779)" fill="#12263f"/>
        <path id="Trazado_99261" data-name="Trazado 99261" d="M452.156,104.766a2.08,2.08,0,1,1-2.077-1.987A2.034,2.034,0,0,1,452.156,104.766Z" transform="translate(-410.346 -102.779)" fill="#12263f"/>
      </g>
      <g id="Grupo_156331" data-name="Grupo 156331" transform="translate(0 10.325)">
        <ellipse id="Elipse_3975" data-name="Elipse 3975" cx="2.078" cy="1.988" rx="2.078" ry="1.988" transform="translate(0 0.001)" fill="#12263f"/>
        <ellipse id="Elipse_4742" data-name="Elipse 4742" cx="2.078" cy="1.988" rx="2.078" ry="1.988" transform="translate(47.067 0.001)" fill="#12263f"/>
        <path id="Trazado_99268" data-name="Trazado 99268" d="M426.817,112.274a2.08,2.08,0,1,1-2.077-1.987A2.035,2.035,0,0,1,426.817,112.274Z" transform="translate(-413.247 -110.287)" fill="#12263f"/>
        <path id="Trazado_116528" data-name="Trazado 116528" d="M426.817,112.274a2.08,2.08,0,1,1-2.077-1.987A2.035,2.035,0,0,1,426.817,112.274Z" transform="translate(-366.18 -110.287)" fill="#12263f"/>
        <ellipse id="Elipse_3976" data-name="Elipse 3976" cx="2.078" cy="1.988" rx="2.078" ry="1.988" transform="translate(18.827 0.001)" fill="#12263f"/>
        <ellipse id="Elipse_4743" data-name="Elipse 4743" cx="2.078" cy="1.988" rx="2.078" ry="1.988" transform="translate(65.893 0.001)" fill="#12263f"/>
        <path id="Trazado_99269" data-name="Trazado 99269" d="M443.71,112.274a2.08,2.08,0,1,1-2.079-1.987A2.036,2.036,0,0,1,443.71,112.274Z" transform="translate(-411.314 -110.287)" fill="#12263f"/>
        <path id="Trazado_116533" data-name="Trazado 116533" d="M443.71,112.274a2.08,2.08,0,1,1-2.079-1.987A2.036,2.036,0,0,1,443.71,112.274Z" transform="translate(-364.247 -110.287)" fill="#12263f"/>
        <path id="Trazado_99270" data-name="Trazado 99270" d="M452.156,112.274a2.08,2.08,0,1,1-2.077-1.987A2.035,2.035,0,0,1,452.156,112.274Z" transform="translate(-410.346 -110.287)" fill="#12263f"/>
      </g>
      <g id="Grupo_156330" data-name="Grupo 156330" transform="translate(0 20.652)">
        <path id="Trazado_99274" data-name="Trazado 99274" d="M418.371,119.783a2.08,2.08,0,1,1-2.08-1.989A2.036,2.036,0,0,1,418.371,119.783Z" transform="translate(-414.214 -117.794)" fill="#12263f"/>
        <path id="Trazado_116529" data-name="Trazado 116529" d="M418.371,119.783a2.08,2.08,0,1,1-2.08-1.989A2.036,2.036,0,0,1,418.371,119.783Z" transform="translate(-367.148 -117.794)" fill="#12263f"/>
        <path id="Trazado_99275" data-name="Trazado 99275" d="M426.817,119.783a2.08,2.08,0,1,1-2.077-1.989A2.035,2.035,0,0,1,426.817,119.783Z" transform="translate(-413.247 -117.794)" fill="#12263f"/>
        <path id="Trazado_116530" data-name="Trazado 116530" d="M426.817,119.783a2.08,2.08,0,1,1-2.077-1.989A2.035,2.035,0,0,1,426.817,119.783Z" transform="translate(-366.18 -117.794)" fill="#12263f"/>
        <path id="Trazado_99276" data-name="Trazado 99276" d="M435.263,119.783a2.08,2.08,0,1,1-2.077-1.989A2.035,2.035,0,0,1,435.263,119.783Z" transform="translate(-412.28 -117.794)" fill="#12263f"/>
        <path id="Trazado_116534" data-name="Trazado 116534" d="M435.263,119.783a2.08,2.08,0,1,1-2.077-1.989A2.035,2.035,0,0,1,435.263,119.783Z" transform="translate(-365.213 -117.794)" fill="#12263f"/>
        <path id="Trazado_99277" data-name="Trazado 99277" d="M443.71,119.783a2.08,2.08,0,1,1-2.079-1.989A2.036,2.036,0,0,1,443.71,119.783Z" transform="translate(-411.314 -117.794)" fill="#12263f"/>
        <path id="Trazado_116535" data-name="Trazado 116535" d="M443.71,119.783a2.08,2.08,0,1,1-2.079-1.989A2.036,2.036,0,0,1,443.71,119.783Z" transform="translate(-364.247 -117.794)" fill="#12263f"/>
        <path id="Trazado_99278" data-name="Trazado 99278" d="M452.156,119.783a2.08,2.08,0,1,1-2.077-1.989A2.035,2.035,0,0,1,452.156,119.783Z" transform="translate(-410.346 -117.794)" fill="#12263f"/>
      </g>
      <g id="Grupo_156327" data-name="Grupo 156327" transform="translate(0 51.631)">
        <path id="Trazado_116550" data-name="Trazado 116550" d="M418.371,119.783a2.08,2.08,0,1,1-2.08-1.989A2.036,2.036,0,0,1,418.371,119.783Z" transform="translate(-414.214 -117.794)" fill="#12263f"/>
        <path id="Trazado_116551" data-name="Trazado 116551" d="M418.371,119.783a2.08,2.08,0,1,1-2.08-1.989A2.036,2.036,0,0,1,418.371,119.783Z" transform="translate(-367.148 -117.794)" fill="#12263f"/>
        <path id="Trazado_116552" data-name="Trazado 116552" d="M426.817,119.783a2.08,2.08,0,1,1-2.077-1.989A2.035,2.035,0,0,1,426.817,119.783Z" transform="translate(-413.247 -117.794)" fill="#12263f"/>
        <path id="Trazado_116553" data-name="Trazado 116553" d="M426.817,119.783a2.08,2.08,0,1,1-2.077-1.989A2.035,2.035,0,0,1,426.817,119.783Z" transform="translate(-366.18 -117.794)" fill="#12263f"/>
        <path id="Trazado_116554" data-name="Trazado 116554" d="M435.263,119.783a2.08,2.08,0,1,1-2.077-1.989A2.035,2.035,0,0,1,435.263,119.783Z" transform="translate(-412.28 -117.794)" fill="#12263f"/>
        <path id="Trazado_116555" data-name="Trazado 116555" d="M435.263,119.783a2.08,2.08,0,1,1-2.077-1.989A2.035,2.035,0,0,1,435.263,119.783Z" transform="translate(-365.213 -117.794)" fill="#12263f"/>
        <path id="Trazado_116556" data-name="Trazado 116556" d="M443.71,119.783a2.08,2.08,0,1,1-2.079-1.989A2.036,2.036,0,0,1,443.71,119.783Z" transform="translate(-411.314 -117.794)" fill="#12263f"/>
        <path id="Trazado_116557" data-name="Trazado 116557" d="M443.71,119.783a2.08,2.08,0,1,1-2.079-1.989A2.036,2.036,0,0,1,443.71,119.783Z" transform="translate(-364.247 -117.794)" fill="#12263f"/>
        <path id="Trazado_116558" data-name="Trazado 116558" d="M452.156,119.783a2.08,2.08,0,1,1-2.077-1.989A2.035,2.035,0,0,1,452.156,119.783Z" transform="translate(-410.346 -117.794)" fill="#12263f"/>
      </g>
      <g id="Grupo_156329" data-name="Grupo 156329" transform="translate(0 30.979)">
        <ellipse id="Elipse_3980" data-name="Elipse 3980" cx="2.078" cy="1.988" rx="2.078" ry="1.988" transform="translate(0 0.002)" fill="#12263f"/>
        <ellipse id="Elipse_4744" data-name="Elipse 4744" cx="2.078" cy="1.988" rx="2.078" ry="1.988" transform="translate(47.067 0.002)" fill="#12263f"/>
        <path id="Trazado_99285" data-name="Trazado 99285" d="M426.817,127.291a2.08,2.08,0,1,1-2.077-1.989A2.033,2.033,0,0,1,426.817,127.291Z" transform="translate(-413.247 -125.302)" fill="#12263f"/>
        <path id="Trazado_116536" data-name="Trazado 116536" d="M426.817,127.291a2.08,2.08,0,1,1-2.077-1.989A2.033,2.033,0,0,1,426.817,127.291Z" transform="translate(-366.18 -125.302)" fill="#12263f"/>
        <ellipse id="Elipse_3981" data-name="Elipse 3981" cx="2.078" cy="1.988" rx="2.078" ry="1.988" transform="translate(18.827 0.002)" fill="#12263f"/>
        <ellipse id="Elipse_4745" data-name="Elipse 4745" cx="2.078" cy="1.988" rx="2.078" ry="1.988" transform="translate(65.893 0.002)" fill="#12263f"/>
        <path id="Trazado_99286" data-name="Trazado 99286" d="M443.71,127.291a2.08,2.08,0,1,1-2.079-1.989A2.034,2.034,0,0,1,443.71,127.291Z" transform="translate(-411.314 -125.302)" fill="#12263f"/>
        <path id="Trazado_116537" data-name="Trazado 116537" d="M443.71,127.291a2.08,2.08,0,1,1-2.079-1.989A2.034,2.034,0,0,1,443.71,127.291Z" transform="translate(-364.247 -125.302)" fill="#12263f"/>
        <path id="Trazado_99287" data-name="Trazado 99287" d="M452.156,127.291a2.08,2.08,0,1,1-2.077-1.989A2.034,2.034,0,0,1,452.156,127.291Z" transform="translate(-410.346 -125.302)" fill="#12263f"/>
      </g>
      <g id="Grupo_156326" data-name="Grupo 156326" transform="translate(0 61.959)">
        <ellipse id="Elipse_4754" data-name="Elipse 4754" cx="2.078" cy="1.988" rx="2.078" ry="1.988" transform="translate(0 0.001)" fill="#12263f"/>
        <ellipse id="Elipse_4750" data-name="Elipse 4750" cx="2.078" cy="1.988" rx="2.078" ry="1.988" transform="translate(47.067 0.001)" fill="#12263f"/>
        <path id="Trazado_116548" data-name="Trazado 116548" d="M426.817,127.291a2.08,2.08,0,1,1-2.077-1.989A2.033,2.033,0,0,1,426.817,127.291Z" transform="translate(-413.247 -125.302)" fill="#12263f"/>
        <path id="Trazado_116542" data-name="Trazado 116542" d="M426.817,127.291a2.08,2.08,0,1,1-2.077-1.989A2.033,2.033,0,0,1,426.817,127.291Z" transform="translate(-366.18 -125.302)" fill="#12263f"/>
        <ellipse id="Elipse_4751" data-name="Elipse 4751" cx="2.078" cy="1.988" rx="2.078" ry="1.988" transform="translate(18.827 0.001)" fill="#12263f"/>
        <ellipse id="Elipse_4752" data-name="Elipse 4752" cx="2.078" cy="1.988" rx="2.078" ry="1.988" transform="translate(65.893 0.001)" fill="#12263f"/>
        <path id="Trazado_116543" data-name="Trazado 116543" d="M443.71,127.291a2.08,2.08,0,1,1-2.079-1.989A2.034,2.034,0,0,1,443.71,127.291Z" transform="translate(-411.314 -125.302)" fill="#12263f"/>
        <path id="Trazado_116544" data-name="Trazado 116544" d="M443.71,127.291a2.08,2.08,0,1,1-2.079-1.989A2.034,2.034,0,0,1,443.71,127.291Z" transform="translate(-364.247 -125.302)" fill="#12263f"/>
        <path id="Trazado_116545" data-name="Trazado 116545" d="M452.156,127.291a2.08,2.08,0,1,1-2.077-1.989A2.034,2.034,0,0,1,452.156,127.291Z" transform="translate(-410.346 -125.302)" fill="#12263f"/>
      </g>
      <g id="Grupo_156328" data-name="Grupo 156328" transform="translate(0 41.306)">
        <ellipse id="Elipse_3985" data-name="Elipse 3985" cx="2.078" cy="1.988" rx="2.078" ry="1.988" transform="translate(0 0)" fill="#12263f"/>
        <ellipse id="Elipse_4746" data-name="Elipse 4746" cx="2.078" cy="1.988" rx="2.078" ry="1.988" transform="translate(47.067 0)" fill="#12263f"/>
        <path id="Trazado_99291" data-name="Trazado 99291" d="M426.817,134.8a2.08,2.08,0,1,1-2.077-1.989A2.033,2.033,0,0,1,426.817,134.8Z" transform="translate(-413.247 -132.81)" fill="#12263f"/>
        <path id="Trazado_116538" data-name="Trazado 116538" d="M426.817,134.8a2.08,2.08,0,1,1-2.077-1.989A2.033,2.033,0,0,1,426.817,134.8Z" transform="translate(-366.18 -132.81)" fill="#12263f"/>
        <ellipse id="Elipse_3986" data-name="Elipse 3986" cx="2.078" cy="1.988" rx="2.078" ry="1.988" transform="translate(18.827 0)" fill="#12263f"/>
        <ellipse id="Elipse_4747" data-name="Elipse 4747" cx="2.078" cy="1.988" rx="2.078" ry="1.988" transform="translate(65.893 0)" fill="#12263f"/>
        <path id="Trazado_99292" data-name="Trazado 99292" d="M443.71,134.8a2.08,2.08,0,1,1-2.079-1.989A2.034,2.034,0,0,1,443.71,134.8Z" transform="translate(-411.314 -132.81)" fill="#12263f"/>
        <path id="Trazado_116539" data-name="Trazado 116539" d="M443.71,134.8a2.08,2.08,0,1,1-2.079-1.989A2.034,2.034,0,0,1,443.71,134.8Z" transform="translate(-364.247 -132.81)" fill="#12263f"/>
        <path id="Trazado_99293" data-name="Trazado 99293" d="M452.156,134.8a2.08,2.08,0,1,1-2.077-1.989A2.034,2.034,0,0,1,452.156,134.8Z" transform="translate(-410.346 -132.81)" fill="#12263f"/>
      </g>
    </g>
    <g id="Grupo_1015138" data-name="Grupo 1015138" transform="translate(274.887 595.534)">
      <circle id="Elipse_8447" data-name="Elipse 8447" cx="49.946" cy="49.946" r="49.946" transform="translate(0 0)" fill="#340b81"/>
      <circle id="Elipse_8448" data-name="Elipse 8448" cx="41.846" cy="41.846" r="41.846" transform="translate(8.099 8.099)" fill="#fff"/>
      <g id="Grupo_1019277" data-name="Grupo 1019277" transform="translate(26.562 22.144)">
        <g id="Grupo_1019277-2" data-name="Grupo 1019277" clip-path="url(#clip-path)">
          <path id="Trazado_735598" data-name="Trazado 735598" d="M0,2.047A2.754,2.754,0,0,1,1.95.09,3.6,3.6,0,0,1,2.756.009q9.715-.006,19.43,0a2.6,2.6,0,0,1,2.8,2.8q.014,5.788,0,11.576a2.652,2.652,0,0,1-2.874,2.854c-6.239,0-12.478-.025-18.716.02C1.781,17.27.582,16.811,0,15.214ZM1.73,6.942v.566q0,3.367,0,6.735c0,.995.264,1.255,1.282,1.255H21.941c1.033,0,1.3-.267,1.3-1.291q0-3.367,0-6.735v-.53Zm0-1.832H23.245c0-.728,0-1.421,0-2.114,0-1-.263-1.261-1.272-1.261H3c-.136,0-.273-.007-.408,0a.842.842,0,0,0-.855.84c-.025.829-.007,1.66-.007,2.53" transform="translate(0 -0.004)" fill="#12263f"/>
          <path id="Trazado_735599" data-name="Trazado 735599" d="M251.261,243.824c-.762.767-1.462,1.511-2.21,2.2a2.265,2.265,0,0,1-.961.5c-.872.216-1.758.382-2.643.536-.756.131-1.206-.285-1.085-1.045.16-1,.372-2,.6-2.992a1.465,1.465,0,0,1,.407-.624c.832-.852,1.681-1.687,2.524-2.528.748-.746.748-.746.624-1.9H246.2c-1.036,0-1.289-.254-1.29-1.3,0-1.361.014-2.722-.007-4.083a1.253,1.253,0,0,1,.783-1.286c2.259-1.1,4.5-2.232,6.747-3.367a1.477,1.477,0,0,1,1.222-.087c1.4.478,2.8.923,4.193,1.414a.693.693,0,0,0,.878-.22,14.4,14.4,0,0,1,1.08-1.085,2.579,2.579,0,0,1,3.729,3.563c-.4.46-.871.862-1.275,1.321a.682.682,0,0,0-.134.555q.969,3,1.992,5.988a1.72,1.72,0,0,0,.418.617q3.275,3.293,6.565,6.571c.7.7.7,1.055.006,1.752q-3.391,3.393-6.784,6.784c-.7.7-1.048.7-1.752-.005l-10.863-10.861c-.131-.13-.267-.255-.445-.425m6.209-6.08a2.322,2.322,0,0,1,.11.749c-.131.738-.949.924-1.542.349-.939-.912-1.921-1.793-2.762-2.79a2.017,2.017,0,0,0-2.53-.766c-.293.114-.455.175-.45.527.019,1.411-.005,2.823.021,4.234a1.056,1.056,0,0,0,.3.646c1.575,1.6,3.17,3.179,4.753,4.771.25.252.466.538.716.83,2.116-2.118,4.149-4.148,6.166-6.195a.63.63,0,0,0,.069-.528c-.406-1.276-.836-2.545-1.26-3.815-.136-.406-.278-.809-.417-1.214l-3.176,3.2m11.9,9.733-5.941-5.933-5.932,5.929,5.942,5.935,5.931-5.932m-22.7-11.277h1.893c0-.255,0-.474,0-.693s-.006-.442,0-.663a.955.955,0,0,1,.884-1.057c.581-.119,1.17-.2,1.745-.349.934-.235,1.855-.488,2.4.514l3.247-3.2c-1.145-.383-2.311-.781-3.485-1.154a.716.716,0,0,0-.477.075q-2.963,1.466-5.911,2.961a.578.578,0,0,0-.284.405c-.024,1.035-.013,2.071-.013,3.157m9.46.239c2.037-2.022,4.068-4.027,6.082-6.048a.819.819,0,0,0-.014-1.188.873.873,0,0,0-1.3.125q-2.925,2.916-5.84,5.843a.376.376,0,0,0-.059.1l1.135,1.167m-8.433,6.1,1.135,1.152,1.106-1.034-1.163-1.166L247.7,242.54m-.375,2.369-.8-.941-.225,1.169,1.023-.228" transform="translate(-219.354 -203.973)" fill="#12263f"/>
          <path id="Trazado_735600" data-name="Trazado 735600" d="M45.508,176.838h1.734v.549q0,14.209,0,28.418a4.9,4.9,0,0,1-.856,2.867h.663q14.056,0,28.112.007a3.184,3.184,0,0,0,2.178-.649l1.14,1.283A4.172,4.172,0,0,1,76,210.387c-.253.023-.51.015-.765.015H43.394c-.119,0-.238,0-.357,0a.89.89,0,0,1-.977-.826.914.914,0,0,1,.914-.9,2.613,2.613,0,0,0,2.533-2.92q0-14.107,0-28.214v-.7" transform="translate(-37.758 -158.753)" fill="#12263f"/>
          <path id="Trazado_735601" data-name="Trazado 735601" d="M275.786,1.729h-14.61V.03c.151-.01.3-.027.447-.027q8.722,0,17.445,0a4.258,4.258,0,0,1,4.314,3.2,2.251,2.251,0,0,1,.07.244c.248,1.426-.017,1.739-1.469,1.739h-5.311V21.5h-1.74c-.008-.17-.024-.349-.024-.528q0-8.161,0-16.323a4.709,4.709,0,0,1,.878-2.92m1.092,1.7H281.6a2.492,2.492,0,0,0-4.726,0" transform="translate(-234.466 0)" fill="#12263f"/>
          <path id="Trazado_735602" data-name="Trazado 735602" d="M282.743,43.893c-1.343,0-2.686,0-4.029,0-.793,0-1.125-.318-1.126-1.105q-.009-4.054,0-8.109c0-.795.316-1.122,1.107-1.125q4.08-.013,8.16,0c.787,0,1.1.331,1.1,1.13q.009,4.029,0,8.058c0,.845-.324,1.15-1.186,1.151q-2.015,0-4.029,0m3.424-8.551h-6.8V42.15h6.8Z" transform="translate(-249.195 -30.116)" fill="#12263f"/>
          <rect id="Rectángulo_352907" data-name="Rectángulo 352907" width="23.218" height="1.685" transform="translate(15.519 18.955)" fill="#12263f"/>
          <rect id="Rectángulo_352908" data-name="Rectángulo 352908" width="18.901" height="1.665" transform="translate(12.076 22.39)" fill="#12263f"/>
          <rect id="Rectángulo_352909" data-name="Rectángulo 352909" width="18.022" height="1.656" transform="translate(15.542 45.659)" fill="#12263f"/>
          <rect id="Rectángulo_352910" data-name="Rectángulo 352910" width="12.882" height="1.659" transform="translate(12.079 39.642)" fill="#12263f"/>
          <rect id="Rectángulo_352911" data-name="Rectángulo 352911" width="12.012" height="1.653" transform="translate(12.064 25.869)" fill="#12263f"/>
          <rect id="Rectángulo_352912" data-name="Rectángulo 352912" width="11.996" height="1.672" transform="translate(12.064 32.734)" fill="#12263f"/>
          <rect id="Rectángulo_352913" data-name="Rectángulo 352913" width="8.548" height="1.676" transform="translate(15.525 29.305)" fill="#12263f"/>
          <rect id="Rectángulo_352914" data-name="Rectángulo 352914" width="7.705" height="1.649" transform="translate(12.081 36.185)" fill="#12263f"/>
          <path id="Trazado_735603" data-name="Trazado 735603" d="M16.919,67.84H38.433v.53q0,3.367,0,6.735c0,1.024-.27,1.291-1.3,1.291H18.2c-1.018,0-1.282-.26-1.282-1.255q0-3.367,0-6.735V67.84" transform="translate(-15.188 -60.902)" fill="#dee4f0"/>
          <path id="Trazado_735604" data-name="Trazado 735604" d="M16.9,20.286c0-.871-.018-1.7.007-2.53a.842.842,0,0,1,.855-.84c.135-.011.272,0,.408,0H37.137c1.009,0,1.269.257,1.272,1.261,0,.693,0,1.386,0,2.114Z" transform="translate(-15.165 -15.179)" fill="#ffca28"/>
          <path id="Trazado_735606" data-name="Trazado 735606" d="M384.879,373.309l-5.931,5.932-5.942-5.936,5.932-5.929,5.941,5.933" transform="translate(-334.859 -329.805)" fill="#b0c0d2"/>
          <path id="Trazado_735608" data-name="Trazado 735608" d="M349.66,251.84l-1.135-1.167a.376.376,0,0,1,.059-.1q2.918-2.923,5.84-5.843a.873.873,0,0,1,1.3-.125.819.819,0,0,1,.014,1.188c-2.014,2.022-4.045,4.027-6.082,6.048" transform="translate(-312.882 -219.374)" fill="#6f88da"/>
          <path id="Trazado_735609" data-name="Trazado 735609" d="M277.161,367.914l1.077-1.048,1.163,1.166-1.106,1.034-1.135-1.152" transform="translate(-248.816 -329.347)" fill="#6f88da"/>
          <path id="Trazado_735610" data-name="Trazado 735610" d="M264.511,392.023l-1.023.228.225-1.169.8.941" transform="translate(-236.541 -351.086)" fill="#ffca28"/>
          <path id="Trazado_735611" data-name="Trazado 735611" d="M414.71,18.644a2.492,2.492,0,0,1,4.726,0H414.71Z" transform="translate(-372.298 -15.21)" fill="#12263f"/>
          <rect id="Rectángulo_352915" data-name="Rectángulo 352915" width="6.799" height="6.808" transform="translate(30.173 5.226)" fill="#4adbd1"/>
        </g>
      </g>
    </g>
  </g>
</svg>
