<svg xmlns="http://www.w3.org/2000/svg" xmlns:xlink="http://www.w3.org/1999/xlink" width="136.934" height="135.983" viewBox="0 0 136.934 135.983">
  <defs>
    <clipPath id="clip-path">
      <rect id="Rect치ngulo_360958" data-name="Rect치ngulo 360958" width="78" height="78" transform="translate(-0.198 -0.198)" fill="#12263f"/>
    </clipPath>
  </defs>
  <g id="Grupo_1136651" data-name="Grupo 1136651" transform="translate(-263 -595.534)">
    <g id="Grupo_156356" data-name="Grupo 156356" transform="translate(263 650.743)">
      <g id="Grupo_156332" data-name="Grupo 156332" transform="translate(0 0)">
        <path id="Trazado_99257" data-name="Trazado 99257" d="M419.306,105.213a2.549,2.549,0,1,1-2.548-2.434A2.492,2.492,0,0,1,419.306,105.213Z" transform="translate(-414.214 -102.779)" fill="#12263f"/>
        <path id="Trazado_116526" data-name="Trazado 116526" d="M419.306,105.213a2.549,2.549,0,1,1-2.548-2.434A2.492,2.492,0,0,1,419.306,105.213Z" transform="translate(-356.555 -102.779)" fill="#12263f"/>
        <path id="Trazado_99258" data-name="Trazado 99258" d="M427.752,105.213a2.549,2.549,0,1,1-2.545-2.434A2.492,2.492,0,0,1,427.752,105.213Z" transform="translate(-411.129 -102.779)" fill="#12263f"/>
        <path id="Trazado_116527" data-name="Trazado 116527" d="M427.752,105.213a2.549,2.549,0,1,1-2.545-2.434A2.492,2.492,0,0,1,427.752,105.213Z" transform="translate(-353.469 -102.779)" fill="#12263f"/>
        <path id="Trazado_99259" data-name="Trazado 99259" d="M436.2,105.213a2.549,2.549,0,1,1-2.545-2.434A2.492,2.492,0,0,1,436.2,105.213Z" transform="translate(-408.043 -102.779)" fill="#12263f"/>
        <path id="Trazado_116531" data-name="Trazado 116531" d="M436.2,105.213a2.549,2.549,0,1,1-2.545-2.434A2.492,2.492,0,0,1,436.2,105.213Z" transform="translate(-350.384 -102.779)" fill="#12263f"/>
        <path id="Trazado_99260" data-name="Trazado 99260" d="M444.645,105.213a2.549,2.549,0,1,1-2.547-2.434A2.492,2.492,0,0,1,444.645,105.213Z" transform="translate(-404.958 -102.779)" fill="#12263f"/>
        <path id="Trazado_116532" data-name="Trazado 116532" d="M444.645,105.213a2.549,2.549,0,1,1-2.547-2.434A2.492,2.492,0,0,1,444.645,105.213Z" transform="translate(-347.298 -102.779)" fill="#12263f"/>
        <path id="Trazado_99261" data-name="Trazado 99261" d="M453.091,105.213a2.549,2.549,0,1,1-2.545-2.434A2.492,2.492,0,0,1,453.091,105.213Z" transform="translate(-401.872 -102.779)" fill="#12263f"/>
      </g>
      <g id="Grupo_156331" data-name="Grupo 156331" transform="translate(0 12.649)">
        <ellipse id="Elipse_3975" data-name="Elipse 3975" cx="2.546" cy="2.435" rx="2.546" ry="2.435" transform="translate(0 0.001)" fill="#12263f"/>
        <ellipse id="Elipse_4742" data-name="Elipse 4742" cx="2.546" cy="2.435" rx="2.546" ry="2.435" transform="translate(57.659 0.001)" fill="#12263f"/>
        <path id="Trazado_99268" data-name="Trazado 99268" d="M427.752,112.721a2.549,2.549,0,1,1-2.545-2.434A2.493,2.493,0,0,1,427.752,112.721Z" transform="translate(-411.129 -110.287)" fill="#12263f"/>
        <path id="Trazado_116528" data-name="Trazado 116528" d="M427.752,112.721a2.549,2.549,0,1,1-2.545-2.434A2.493,2.493,0,0,1,427.752,112.721Z" transform="translate(-353.469 -110.287)" fill="#12263f"/>
        <ellipse id="Elipse_3976" data-name="Elipse 3976" cx="2.546" cy="2.435" rx="2.546" ry="2.435" transform="translate(23.064 0.001)" fill="#12263f"/>
        <ellipse id="Elipse_4743" data-name="Elipse 4743" cx="2.546" cy="2.435" rx="2.546" ry="2.435" transform="translate(80.723 0.001)" fill="#12263f"/>
        <path id="Trazado_99269" data-name="Trazado 99269" d="M444.645,112.721a2.549,2.549,0,1,1-2.547-2.434A2.494,2.494,0,0,1,444.645,112.721Z" transform="translate(-404.958 -110.287)" fill="#12263f"/>
        <path id="Trazado_116533" data-name="Trazado 116533" d="M444.645,112.721a2.549,2.549,0,1,1-2.547-2.434A2.494,2.494,0,0,1,444.645,112.721Z" transform="translate(-347.298 -110.287)" fill="#12263f"/>
        <path id="Trazado_99270" data-name="Trazado 99270" d="M453.091,112.721a2.549,2.549,0,1,1-2.545-2.434A2.493,2.493,0,0,1,453.091,112.721Z" transform="translate(-401.872 -110.287)" fill="#12263f"/>
      </g>
      <g id="Grupo_156330" data-name="Grupo 156330" transform="translate(0 25.3)">
        <path id="Trazado_99274" data-name="Trazado 99274" d="M419.306,120.23a2.549,2.549,0,1,1-2.548-2.436A2.494,2.494,0,0,1,419.306,120.23Z" transform="translate(-414.214 -117.794)" fill="#12263f"/>
        <path id="Trazado_116529" data-name="Trazado 116529" d="M419.306,120.23a2.549,2.549,0,1,1-2.548-2.436A2.494,2.494,0,0,1,419.306,120.23Z" transform="translate(-356.555 -117.794)" fill="#12263f"/>
        <path id="Trazado_99275" data-name="Trazado 99275" d="M427.752,120.23a2.549,2.549,0,1,1-2.545-2.436A2.493,2.493,0,0,1,427.752,120.23Z" transform="translate(-411.129 -117.794)" fill="#12263f"/>
        <path id="Trazado_116530" data-name="Trazado 116530" d="M427.752,120.23a2.549,2.549,0,1,1-2.545-2.436A2.493,2.493,0,0,1,427.752,120.23Z" transform="translate(-353.469 -117.794)" fill="#12263f"/>
        <path id="Trazado_99276" data-name="Trazado 99276" d="M436.2,120.23a2.549,2.549,0,1,1-2.545-2.436A2.493,2.493,0,0,1,436.2,120.23Z" transform="translate(-408.043 -117.794)" fill="#12263f"/>
        <path id="Trazado_116534" data-name="Trazado 116534" d="M436.2,120.23a2.549,2.549,0,1,1-2.545-2.436A2.493,2.493,0,0,1,436.2,120.23Z" transform="translate(-350.384 -117.794)" fill="#12263f"/>
        <path id="Trazado_99277" data-name="Trazado 99277" d="M444.645,120.23a2.549,2.549,0,1,1-2.547-2.436A2.494,2.494,0,0,1,444.645,120.23Z" transform="translate(-404.958 -117.794)" fill="#12263f"/>
        <path id="Trazado_116535" data-name="Trazado 116535" d="M444.645,120.23a2.549,2.549,0,1,1-2.547-2.436A2.494,2.494,0,0,1,444.645,120.23Z" transform="translate(-347.298 -117.794)" fill="#12263f"/>
        <path id="Trazado_99278" data-name="Trazado 99278" d="M453.091,120.23a2.549,2.549,0,1,1-2.545-2.436A2.493,2.493,0,0,1,453.091,120.23Z" transform="translate(-401.872 -117.794)" fill="#12263f"/>
      </g>
      <g id="Grupo_156327" data-name="Grupo 156327" transform="translate(0 63.252)">
        <path id="Trazado_116550" data-name="Trazado 116550" d="M419.306,120.23a2.549,2.549,0,1,1-2.548-2.436A2.494,2.494,0,0,1,419.306,120.23Z" transform="translate(-414.214 -117.794)" fill="#12263f"/>
        <path id="Trazado_116551" data-name="Trazado 116551" d="M419.306,120.23a2.549,2.549,0,1,1-2.548-2.436A2.494,2.494,0,0,1,419.306,120.23Z" transform="translate(-356.555 -117.794)" fill="#12263f"/>
        <path id="Trazado_116552" data-name="Trazado 116552" d="M427.752,120.23a2.549,2.549,0,1,1-2.545-2.436A2.493,2.493,0,0,1,427.752,120.23Z" transform="translate(-411.129 -117.794)" fill="#12263f"/>
        <path id="Trazado_116553" data-name="Trazado 116553" d="M427.752,120.23a2.549,2.549,0,1,1-2.545-2.436A2.493,2.493,0,0,1,427.752,120.23Z" transform="translate(-353.469 -117.794)" fill="#12263f"/>
        <path id="Trazado_116554" data-name="Trazado 116554" d="M436.2,120.23a2.549,2.549,0,1,1-2.545-2.436A2.493,2.493,0,0,1,436.2,120.23Z" transform="translate(-408.043 -117.794)" fill="#12263f"/>
        <path id="Trazado_116555" data-name="Trazado 116555" d="M436.2,120.23a2.549,2.549,0,1,1-2.545-2.436A2.493,2.493,0,0,1,436.2,120.23Z" transform="translate(-350.384 -117.794)" fill="#12263f"/>
        <path id="Trazado_116556" data-name="Trazado 116556" d="M444.645,120.23a2.549,2.549,0,1,1-2.547-2.436A2.494,2.494,0,0,1,444.645,120.23Z" transform="translate(-404.958 -117.794)" fill="#12263f"/>
        <path id="Trazado_116557" data-name="Trazado 116557" d="M444.645,120.23a2.549,2.549,0,1,1-2.547-2.436A2.494,2.494,0,0,1,444.645,120.23Z" transform="translate(-347.298 -117.794)" fill="#12263f"/>
        <path id="Trazado_116558" data-name="Trazado 116558" d="M453.091,120.23a2.549,2.549,0,1,1-2.545-2.436A2.493,2.493,0,0,1,453.091,120.23Z" transform="translate(-401.872 -117.794)" fill="#12263f"/>
      </g>
      <g id="Grupo_156329" data-name="Grupo 156329" transform="translate(0 37.951)">
        <ellipse id="Elipse_3980" data-name="Elipse 3980" cx="2.546" cy="2.435" rx="2.546" ry="2.435" transform="translate(0 0.002)" fill="#12263f"/>
        <ellipse id="Elipse_4744" data-name="Elipse 4744" cx="2.546" cy="2.435" rx="2.546" ry="2.435" transform="translate(57.659 0.002)" fill="#12263f"/>
        <path id="Trazado_99285" data-name="Trazado 99285" d="M427.752,127.738a2.549,2.549,0,1,1-2.545-2.436A2.491,2.491,0,0,1,427.752,127.738Z" transform="translate(-411.129 -125.302)" fill="#12263f"/>
        <path id="Trazado_116536" data-name="Trazado 116536" d="M427.752,127.738a2.549,2.549,0,1,1-2.545-2.436A2.491,2.491,0,0,1,427.752,127.738Z" transform="translate(-353.469 -125.302)" fill="#12263f"/>
        <ellipse id="Elipse_3981" data-name="Elipse 3981" cx="2.546" cy="2.435" rx="2.546" ry="2.435" transform="translate(23.064 0.002)" fill="#12263f"/>
        <ellipse id="Elipse_4745" data-name="Elipse 4745" cx="2.546" cy="2.435" rx="2.546" ry="2.435" transform="translate(80.723 0.002)" fill="#12263f"/>
        <path id="Trazado_99286" data-name="Trazado 99286" d="M444.645,127.738A2.549,2.549,0,1,1,442.1,125.3,2.492,2.492,0,0,1,444.645,127.738Z" transform="translate(-404.958 -125.302)" fill="#12263f"/>
        <path id="Trazado_116537" data-name="Trazado 116537" d="M444.645,127.738A2.549,2.549,0,1,1,442.1,125.3,2.492,2.492,0,0,1,444.645,127.738Z" transform="translate(-347.298 -125.302)" fill="#12263f"/>
        <path id="Trazado_99287" data-name="Trazado 99287" d="M453.091,127.738a2.549,2.549,0,1,1-2.545-2.436A2.491,2.491,0,0,1,453.091,127.738Z" transform="translate(-401.872 -125.302)" fill="#12263f"/>
      </g>
      <g id="Grupo_156326" data-name="Grupo 156326" transform="translate(0 75.904)">
        <ellipse id="Elipse_4754" data-name="Elipse 4754" cx="2.546" cy="2.435" rx="2.546" ry="2.435" transform="translate(0 0.001)" fill="#12263f"/>
        <ellipse id="Elipse_4750" data-name="Elipse 4750" cx="2.546" cy="2.435" rx="2.546" ry="2.435" transform="translate(57.659 0.001)" fill="#12263f"/>
        <path id="Trazado_116548" data-name="Trazado 116548" d="M427.752,127.738a2.549,2.549,0,1,1-2.545-2.436A2.491,2.491,0,0,1,427.752,127.738Z" transform="translate(-411.129 -125.302)" fill="#12263f"/>
        <path id="Trazado_116542" data-name="Trazado 116542" d="M427.752,127.738a2.549,2.549,0,1,1-2.545-2.436A2.491,2.491,0,0,1,427.752,127.738Z" transform="translate(-353.469 -125.302)" fill="#12263f"/>
        <ellipse id="Elipse_4751" data-name="Elipse 4751" cx="2.546" cy="2.435" rx="2.546" ry="2.435" transform="translate(23.064 0.001)" fill="#12263f"/>
        <ellipse id="Elipse_4752" data-name="Elipse 4752" cx="2.546" cy="2.435" rx="2.546" ry="2.435" transform="translate(80.723 0.001)" fill="#12263f"/>
        <path id="Trazado_116543" data-name="Trazado 116543" d="M444.645,127.738A2.549,2.549,0,1,1,442.1,125.3,2.492,2.492,0,0,1,444.645,127.738Z" transform="translate(-404.958 -125.302)" fill="#12263f"/>
        <path id="Trazado_116544" data-name="Trazado 116544" d="M444.645,127.738A2.549,2.549,0,1,1,442.1,125.3,2.492,2.492,0,0,1,444.645,127.738Z" transform="translate(-347.298 -125.302)" fill="#12263f"/>
        <path id="Trazado_116545" data-name="Trazado 116545" d="M453.091,127.738a2.549,2.549,0,1,1-2.545-2.436A2.491,2.491,0,0,1,453.091,127.738Z" transform="translate(-401.872 -125.302)" fill="#12263f"/>
      </g>
      <g id="Grupo_156328" data-name="Grupo 156328" transform="translate(0 50.602)">
        <ellipse id="Elipse_3985" data-name="Elipse 3985" cx="2.546" cy="2.435" rx="2.546" ry="2.435" transform="translate(0 0.001)" fill="#12263f"/>
        <ellipse id="Elipse_4746" data-name="Elipse 4746" cx="2.546" cy="2.435" rx="2.546" ry="2.435" transform="translate(57.659 0.001)" fill="#12263f"/>
        <path id="Trazado_99291" data-name="Trazado 99291" d="M427.752,135.246a2.549,2.549,0,1,1-2.545-2.436A2.491,2.491,0,0,1,427.752,135.246Z" transform="translate(-411.129 -132.81)" fill="#12263f"/>
        <path id="Trazado_116538" data-name="Trazado 116538" d="M427.752,135.246a2.549,2.549,0,1,1-2.545-2.436A2.491,2.491,0,0,1,427.752,135.246Z" transform="translate(-353.469 -132.81)" fill="#12263f"/>
        <ellipse id="Elipse_3986" data-name="Elipse 3986" cx="2.546" cy="2.435" rx="2.546" ry="2.435" transform="translate(23.064 0.001)" fill="#12263f"/>
        <ellipse id="Elipse_4747" data-name="Elipse 4747" cx="2.546" cy="2.435" rx="2.546" ry="2.435" transform="translate(80.723 0.001)" fill="#12263f"/>
        <path id="Trazado_99292" data-name="Trazado 99292" d="M444.645,135.246a2.549,2.549,0,1,1-2.547-2.436A2.492,2.492,0,0,1,444.645,135.246Z" transform="translate(-404.958 -132.81)" fill="#12263f"/>
        <path id="Trazado_116539" data-name="Trazado 116539" d="M444.645,135.246a2.549,2.549,0,1,1-2.547-2.436A2.492,2.492,0,0,1,444.645,135.246Z" transform="translate(-347.298 -132.81)" fill="#12263f"/>
        <path id="Trazado_99293" data-name="Trazado 99293" d="M453.091,135.246a2.549,2.549,0,1,1-2.545-2.436A2.491,2.491,0,0,1,453.091,135.246Z" transform="translate(-401.872 -132.81)" fill="#12263f"/>
      </g>
    </g>
    <g id="Grupo_1015138" data-name="Grupo 1015138" transform="translate(277.562 595.534)">
      <circle id="Elipse_8447" data-name="Elipse 8447" cx="61.186" cy="61.186" r="61.186" transform="translate(0 0)" fill="#340b81"/>
      <circle id="Elipse_8448" data-name="Elipse 8448" cx="51.264" cy="51.264" r="51.264" transform="translate(9.922 9.922)" fill="#fff"/>
      <g id="Grupo_1024806" data-name="Grupo 1024806" transform="translate(21.144 18.645)">
        <g id="Grupo_1024806-2" data-name="Grupo 1024806" transform="translate(-0.008)" clip-path="url(#clip-path)">
          <path id="Trazado_764761" data-name="Trazado 764761" d="M48.636,251.675a2.032,2.032,0,0,1-.827-1.883c.033-3.979.013-7.958.016-11.937,0-4.95,3.29-8.251,8.227-8.268h.866a13.6,13.6,0,0,0-.018-1.514.826.826,0,0,0-.386-.521,6.539,6.539,0,0,1-3.492-6.233,51.3,51.3,0,0,1,.167-5.912,6.246,6.246,0,0,1,6.175-5.3,22.752,22.752,0,0,1,3.964.144,6.335,6.335,0,0,1,5.275,6.209c.033,1.84.053,3.683-.006,5.521a6.3,6.3,0,0,1-2.738,5.1c-1.2.867-1.206.854-1.108,2.417.951.086,1.909.182,2.868.25a.6.6,0,0,0,.414-.187,8.066,8.066,0,0,1,6.727-2.581,2.573,2.573,0,0,0,.348-.046,13.078,13.078,0,0,0-.019-1.493.841.841,0,0,0-.41-.507,6.518,6.518,0,0,1-3.468-6.085c.008-1.624-.015-3.248.006-4.872a6.477,6.477,0,0,1,6.449-6.476,26.153,26.153,0,0,1,3.407.053,6.11,6.11,0,0,1,5.574,5.377,43.851,43.851,0,0,1-.013,7.444A5.041,5.041,0,0,1,84,224.463a1.954,1.954,0,0,0-1.033,2.459c.843.064,1.7.086,2.548.2a7.077,7.077,0,0,1,4.232,2.209,1.134,1.134,0,0,0,1.132.375c.768-.115,1.551-.124,2.42-.184a7.268,7.268,0,0,0-.019-1.268,1.151,1.151,0,0,0-.443-.729A6.539,6.539,0,0,1,89.4,221.5c0-1.6-.01-3.194,0-4.791a6.473,6.473,0,0,1,6.644-6.606,22.1,22.1,0,0,1,3.64.144,6.316,6.316,0,0,1,5.287,6.2,65.107,65.107,0,0,1-.154,6.563,5.126,5.126,0,0,1-2.723,4.116c-1.153.618-1.05,1.426-.966,2.394.894.07,1.759.076,2.6.214a7.668,7.668,0,0,1,6.434,7.392c.059,4.357.044,8.716-.015,13.073-.007.5-.505.985-.776,1.478H85.016c-1.022-.6-.766-1.66-.837-2.556H73.82c0,.962.135,1.951-.823,2.556Zm31.67-10.441h-2.6v-.921q0-4.5,0-9.009c0-.231,0-.623-.117-.668-.817-.333-1.358-1.291-2.433-1.062a5.748,5.748,0,0,1-1.134.013,5.206,5.206,0,0,0-5.406,5.426q-.008,5.316,0,10.633c0,.261.023.521.036.774H89.39c0-4.059.036-8.061-.033-12.061a5.166,5.166,0,0,0-.714-2.2,4.351,4.351,0,0,0-3.136-2.367c-1.523-.252-3.108-.676-4.547.494-.438.356-.69.6-.67,1.192.051,1.513.017,3.029.017,4.545v5.214m-20.788,2.605V242.9q0-4.5-.005-9.008c0-.23-.011-.619-.124-.664-.82-.328-1.354-1.3-2.434-1.056a4.892,4.892,0,0,1-1.052.012,5.2,5.2,0,0,0-5.479,5.513q-.008,5.275,0,10.55c0,.26.023.52.037.8H66.505a5.553,5.553,0,0,1-.468-1.588c.086-5.069-.305-10.149.248-15.251-1.208.011-2.48-.3-3.6.713A1.275,1.275,0,0,0,62.107,234c.023,1.975.009,3.949.009,5.924v3.911Zm48.032,5.216c.019-.18.039-.283.039-.387,0-3.789.01-7.579-.011-11.368a5.135,5.135,0,0,0-.256-1.51,4.618,4.618,0,0,0-3.146-3.248c-1.631-.461-3.32-.864-4.94.284a1.453,1.453,0,0,0-.756,1.392c.04,2.923.017,5.846.017,8.769v.849H95.9v-.913c0-2.869,0-5.738,0-8.607,0-.368.074-.881-.128-1.074a3.67,3.67,0,0,0-1.61-1.008,11.067,11.067,0,0,0-2.363-.042c.072,1.628.183,3.158.2,4.69.03,3.221.012,6.442.007,9.663,0,.88.192,1.81-.751,2.511Zm-28.6-25.917,0-.048h.811c2.908,0,4.283-1.548,4.49-4.455.143-2.011-.413-3.361-2.27-4.111a2.239,2.239,0,0,0-1.248-.2c-1.416.335-2.813.756-4.21,1.167-.9.264-2.162.312-2.579.922-.456.669-.152,1.875-.132,2.845a3.806,3.806,0,0,0,3.044,3.706,15.645,15.645,0,0,0,2.091.171m-23.33-4.262c0,1.075-.024,2.048,0,3.019a3.89,3.89,0,0,0,3.795,3.786c.918.028,1.838.026,2.756,0a3.9,3.9,0,0,0,3.829-3.838c.024-.918.03-1.839-.01-2.756a1.059,1.059,0,0,0-.35-.721c-.69-.518-1.42-.985-2.152-1.444a.842.842,0,0,0-.6-.12c-2.415.673-4.824,1.369-7.278,2.072m36.38,0c0,1.072-.023,2.044,0,3.015a3.89,3.89,0,0,0,3.791,3.789c.918.028,1.838.026,2.756,0a3.9,3.9,0,0,0,3.833-3.835c.024-.918.03-1.839-.01-2.756a1.061,1.061,0,0,0-.347-.722c-.69-.518-1.42-.985-2.152-1.444a.843.843,0,0,0-.595-.122c-2.415.673-4.824,1.368-7.282,2.072m-18.112-5.334c1.958-.559,3.843-1.012,5.667-1.645,1.516-.526,2.865-.593,4.092.584.021.02.092-.015.14-.024a3.62,3.62,0,0,0-3.332-2.348c-.97-.034-1.944-.037-2.914,0a3.842,3.842,0,0,0-3.652,3.435m-18.2,2.6c1.961-.556,3.842-1.016,5.67-1.632,1.47-.495,2.813-.69,4.021.526.043.043.134.038.221.061a3.613,3.613,0,0,0-3.328-2.386c-.943-.035-1.889-.03-2.833-.007a3.865,3.865,0,0,0-3.751,3.439m46.255-.974a3.488,3.488,0,0,0-3.234-2.453c-1.024-.043-2.053-.053-3.075,0a3.609,3.609,0,0,0-3.462,3.392c1.8-.5,3.608-.925,5.36-1.523,1.591-.543,3.074-.9,4.411.585M77.724,225.724c.033.892-.322,1.865.66,2.359a1.606,1.606,0,0,0,1.339-.059c.866-.536.542-1.457.561-2.3Zm-15.673,2.629H59.546c-.09,1.84.286,2.552,1.3,2.531s1.407-.812,1.209-2.531m33.866-.026c.027.853-.318,1.794.579,2.3a1.656,1.656,0,0,0,1.4,0c.881-.517.556-1.451.574-2.3Z" transform="translate(-40.021 -173.709)" fill="#12263f"/>
          <path id="Trazado_764762" data-name="Trazado 764762" d="M365.591,99.595a2.033,2.033,0,0,1-1.883.827c-2.976-.038-5.952-.015-8.928-.015h-.838V97.848h9V74.432H343.545v-2.61h.847c6.439,0,12.878.012,19.317-.015a2.038,2.038,0,0,1,1.882.826Z" transform="translate(-287.626 -60.121)" fill="#12263f"/>
          <path id="Trazado_764763" data-name="Trazado 764763" d="M165.98,23.4a6.684,6.684,0,0,1-3.778,2.42,6.466,6.466,0,0,1-7.879-6.934,1.056,1.056,0,0,0-.4-1.03,6.426,6.426,0,0,1,.047-9.779,1.1,1.1,0,0,0,.347-.785,6.545,6.545,0,0,1,3.82-6.725,6.461,6.461,0,0,1,7.533,1.686,2.534,2.534,0,0,1,.243.414A6.842,6.842,0,0,1,169.689.187a6.476,6.476,0,0,1,7.953,6.93,1.07,1.07,0,0,0,.406,1.029,6.441,6.441,0,0,1,0,9.736,1.2,1.2,0,0,0-.4.837,6.563,6.563,0,0,1-3.837,6.719,6.475,6.475,0,0,1-7.479-1.644c-.107-.115-.211-.232-.356-.391m-9.027-4.013a3.859,3.859,0,1,0,7.712.291q.073-6.693,0-13.387a3.846,3.846,0,0,0-4.209-3.676c-2.082.173-3.831,2.2-3.445,3.984a6.386,6.386,0,0,1,4.4.822l-1.261,2.187c-2.028-.853-3.782-.5-4.967.929a3.856,3.856,0,0,0-.232,4.607c1.091,1.63,2.783,2.06,5.232,1.3l1.243,2.169a6.53,6.53,0,0,1-4.469.777M171.8,16.432c2.319.784,3.947.416,5.1-1.109a3.849,3.849,0,0,0,.121-4.482c-1.083-1.61-2.7-2.019-5.228-1.293l-1.241-2.159a6.594,6.594,0,0,1,4.509-.76,5.146,5.146,0,0,0,0-.591,3.937,3.937,0,0,0-4-3.414A3.847,3.847,0,0,0,167.306,6.3c-.051,4.464-.044,8.93,0,13.395a3.848,3.848,0,0,0,3.311,3.667,3.9,3.9,0,0,0,4.23-2.556,10.046,10.046,0,0,0,.266-1.427,6.576,6.576,0,0,1-4.562-.765l1.25-2.178" transform="translate(-126.998 0)" fill="#12263f"/>
          <path id="Trazado_764764" data-name="Trazado 764764" d="M2.657,97.9h9v2.532c-.23.016-.463.045-.695.045q-4.628,0-9.256,0c-1.27,0-1.7-.433-1.7-1.708Q0,86.186,0,73.6c0-1.275.429-1.7,1.7-1.7q9.825,0,19.649,0h.684v2.579H2.657Z" transform="translate(0.007 -60.195)" fill="#12263f"/>
          <rect id="Rect치ngulo_360957" data-name="Rect치ngulo 360957" width="2.521" height="5.103" transform="translate(37.718 26.048)" fill="#12263f"/>
          <path id="Trazado_764765" data-name="Trazado 764765" d="M187.318,354.543v-5.214c0-1.515.034-3.031-.017-4.544-.02-.594.232-.836.67-1.193,1.439-1.171,3.024-.747,4.547-.494a4.352,4.352,0,0,1,3.136,2.367,5.168,5.168,0,0,1,.714,2.2c.069,4,.033,8,.033,12.062h-20.74c-.012-.253-.035-.514-.036-.774q0-5.316,0-10.633a5.206,5.206,0,0,1,5.406-5.426,5.749,5.749,0,0,0,1.134-.013c1.075-.229,1.616.728,2.433,1.062.112.046.116.437.117.668q.011,4.5,0,9.009v.921Z" transform="translate(-147.033 -287.018)" fill="#e6b046"/>
          <path id="Trazado_764766" data-name="Trazado 764766" d="M72.953,370.683h2.6v-3.911c0-1.975.013-3.95-.009-5.924a1.275,1.275,0,0,1,.575-1.081c1.124-1.011,2.4-.7,3.6-.713-.554,5.1-.162,10.182-.248,15.251a5.552,5.552,0,0,0,.468,1.588H63.9c-.014-.282-.037-.542-.037-.8q0-5.275,0-10.55a5.2,5.2,0,0,1,5.479-5.513,4.889,4.889,0,0,0,1.052-.012c1.08-.249,1.615.728,2.434,1.056.114.045.124.434.124.664q.012,4.5.005,9.008v.938" transform="translate(-53.456 -300.552)" fill="#57dbd8"/>
          <path id="Trazado_764767" data-name="Trazado 764767" d="M331.009,375.627H314.7c.943-.7.75-1.632.752-2.511,0-3.221.023-6.442-.008-9.663-.014-1.532-.126-3.063-.2-4.69a11.071,11.071,0,0,1,2.363.042,3.671,3.671,0,0,1,1.61,1.008c.2.194.127.706.128,1.074.008,2.869,0,5.738,0,8.607v.913h2.6v-.849c0-2.923.023-5.847-.017-8.77a1.453,1.453,0,0,1,.756-1.392c1.621-1.148,3.31-.745,4.94-.284a4.618,4.618,0,0,1,3.146,3.248,5.134,5.134,0,0,1,.256,1.51c.021,3.789.013,7.579.011,11.368,0,.1-.02.208-.039.387" transform="translate(-263.479 -300.281)" fill="#91b3fa"/>
          <path id="Trazado_764768" data-name="Trazado 764768" d="M208.071,226.951a3.842,3.842,0,0,1,3.652-3.435c.97-.034,1.944-.031,2.914,0a3.62,3.62,0,0,1,3.332,2.348c-.048.009-.12.043-.14.024-1.226-1.178-2.576-1.111-4.092-.584-1.823.633-3.709,1.086-5.667,1.645" transform="translate(-174.2 -187.118)" fill="#afafaf"/>
          <path id="Trazado_764769" data-name="Trazado 764769" d="M96.248,242.929A3.865,3.865,0,0,1,100,239.49c.944-.023,1.89-.028,2.833.007a3.614,3.614,0,0,1,3.328,2.386c-.087-.022-.178-.017-.221-.06-1.208-1.216-2.552-1.021-4.021-.526-1.828.616-3.709,1.076-5.67,1.632" transform="translate(-80.576 -200.497)" fill="#afafaf"/>
          <path id="Trazado_764770" data-name="Trazado 764770" d="M330.183,241.924c-1.337-1.484-2.82-1.129-4.411-.585-1.752.6-3.564,1.021-5.36,1.523a3.609,3.609,0,0,1,3.462-3.392c1.023-.052,2.052-.042,3.075,0a3.489,3.489,0,0,1,3.234,2.453" transform="translate(-268.256 -200.467)" fill="#afafaf"/>
          <path id="Trazado_764771" data-name="Trazado 764771" d="M170.329,32.782A6.531,6.531,0,0,0,174.8,32l-1.243-2.169c-2.45.764-4.141.333-5.232-1.3a3.857,3.857,0,0,1,.232-4.607c1.185-1.427,2.939-1.782,4.967-.929l1.261-2.187a6.385,6.385,0,0,0-4.4-.822c-.386-1.788,1.364-3.811,3.445-3.984a3.847,3.847,0,0,1,4.209,3.676q.084,6.693,0,13.387a3.859,3.859,0,1,1-7.712-.291" transform="translate(-140.374 -13.392)" fill="#f0dcc0"/>
          <path id="Trazado_764772" data-name="Trazado 764772" d="M251.928,29.917l-1.25,2.178a6.576,6.576,0,0,0,4.562.765,10.054,10.054,0,0,1-.266,1.427,3.9,3.9,0,0,1-4.23,2.556,3.848,3.848,0,0,1-3.311-3.667c-.039-4.465-.047-8.93,0-13.395a3.847,3.847,0,0,1,3.746-3.672,3.937,3.937,0,0,1,4,3.414,5.139,5.139,0,0,1,0,.591,6.594,6.594,0,0,0-4.509.76l1.241,2.159c2.523-.726,4.145-.317,5.228,1.293a3.849,3.849,0,0,1-.121,4.482c-1.15,1.525-2.778,1.893-5.1,1.109" transform="translate(-207.13 -13.484)" fill="#b0c0d2"/>
        </g>
      </g>
    </g>
  </g>
</svg>
