<svg id="Grupo_1134642" data-name="Grupo 1134642" xmlns="http://www.w3.org/2000/svg" xmlns:xlink="http://www.w3.org/1999/xlink" width="142.214" height="189.41" viewBox="0 0 142.214 189.41">
  <defs>
    <clipPath id="clip-path">
      <rect id="Rectángulo_362245" data-name="Rectángulo 362245" width="142.214" height="189.41" fill="none"/>
    </clipPath>
    <clipPath id="clip-path-3">
      <rect id="Rectángulo_362226" data-name="Rectángulo 362226" width="105.037" height="68.59" fill="none"/>
    </clipPath>
    <clipPath id="clip-path-4">
      <rect id="Rectángulo_362227" data-name="Rectángulo 362227" width="103.77" height="60.084" fill="none"/>
    </clipPath>
    <clipPath id="clip-path-5">
      <rect id="Rectángulo_362228" data-name="Rectángulo 362228" width="63.124" height="131.361" fill="none"/>
    </clipPath>
    <clipPath id="clip-path-6">
      <rect id="Rectángulo_362229" data-name="Rectángulo 362229" width="64.538" height="37.376" fill="none"/>
    </clipPath>
    <clipPath id="clip-path-7">
      <rect id="Rectángulo_362230" data-name="Rectángulo 362230" width="3.482" height="11.02" fill="none"/>
    </clipPath>
    <clipPath id="clip-path-8">
      <rect id="Rectángulo_362231" data-name="Rectángulo 362231" width="27.832" height="16.833" fill="none"/>
    </clipPath>
    <clipPath id="clip-path-9">
      <rect id="Rectángulo_362232" data-name="Rectángulo 362232" width="6.551" height="4.542" fill="none"/>
    </clipPath>
    <clipPath id="clip-path-12">
      <rect id="Rectángulo_362235" data-name="Rectángulo 362235" width="6.551" height="4.543" fill="none"/>
    </clipPath>
    <clipPath id="clip-path-15">
      <rect id="Rectángulo_362238" data-name="Rectángulo 362238" width="8.069" height="5.402" fill="none"/>
    </clipPath>
    <clipPath id="clip-path-16">
      <rect id="Rectángulo_362239" data-name="Rectángulo 362239" width="27.833" height="16.833" fill="none"/>
    </clipPath>
    <clipPath id="clip-path-17">
      <rect id="Rectángulo_362240" data-name="Rectángulo 362240" width="8.069" height="5.403" fill="none"/>
    </clipPath>
  </defs>
  <g id="Grupo_1026442" data-name="Grupo 1026442" clip-path="url(#clip-path)">
    <g id="Grupo_1026433" data-name="Grupo 1026433">
      <g id="Grupo_1026432" data-name="Grupo 1026432" clip-path="url(#clip-path)">
        <path id="Trazado_767819" data-name="Trazado 767819" d="M150.584,207.061a1,1,0,0,1-.491-.148L51.6,149.991a4.1,4.1,0,0,1-1.831-3.163V74.106c0-.682.288-1.089.769-1.089a1.49,1.49,0,0,1,.723.228l98.492,56.889a4.111,4.111,0,0,1,1.83,3.167v72.237a1.981,1.981,0,0,1-.317,1.115.853.853,0,0,1-.686.409" transform="translate(-12.262 -17.988)" fill="#fafafa"/>
        <path id="Trazado_767820" data-name="Trazado 767820" d="M186.786,227.175c-.216.115-1.768,1-2.449,1.387a2.035,2.035,0,0,0,.735-1.676V161.181l2.555-1.5v65.757a1.941,1.941,0,0,1-.841,1.733" transform="translate(-45.413 -39.34)" fill="#ebebeb"/>
        <path id="Trazado_767821" data-name="Trazado 767821" d="M50.433,73.245a1.139,1.139,0,0,1,.555.182l98.492,56.889a3.728,3.728,0,0,1,1.66,2.874v72.237c0,.632-.31,1.187-.665,1.187a.666.666,0,0,1-.323-.1l-98.49-56.923a3.721,3.721,0,0,1-1.66-2.87V74c0-.28.056-.751.431-.751m0-.674c-.655,0-1.1.522-1.1,1.425v72.723a4.4,4.4,0,0,0,2,3.454L149.815,207.1a1.317,1.317,0,0,0,.659.193c.78,0,1.338-.855,1.338-1.861V133.19a4.41,4.41,0,0,0-2-3.457L51.324,72.844a1.806,1.806,0,0,0-.892-.273" transform="translate(-12.152 -17.878)" fill="#e0e0e0"/>
        <path id="Trazado_767822" data-name="Trazado 767822" d="M49.33,73.485v6.579l102.482,59.184,2.555-1.487v-6.494a4.143,4.143,0,0,0-.607-2,4.026,4.026,0,0,0-1.39-1.456l-98.5-56.89a1.426,1.426,0,0,0-1.456-.115c-.365.225-2.112,1.219-2.47,1.4a.648.648,0,0,0-.151.1.972.972,0,0,0-.158.158,1.091,1.091,0,0,0-.127.2.944.944,0,0,0-.1.243,1.252,1.252,0,0,0-.061.273V73.2a2.081,2.081,0,0,0-.024.285" transform="translate(-12.153 -17.407)" fill="#ae9dcc"/>
        <g id="Grupo_1026389" data-name="Grupo 1026389" transform="translate(37.177 53.252)" opacity="0.15">
          <g id="Grupo_1026388" data-name="Grupo 1026388">
            <g id="Grupo_1026387" data-name="Grupo 1026387" clip-path="url(#clip-path-3)">
              <path id="Trazado_767823" data-name="Trazado 767823" d="M53.875,70.924a1.426,1.426,0,0,0-1.456-.115c-.365.225-2.112,1.219-2.47,1.4a.648.648,0,0,0-.151.1.972.972,0,0,0-.158.158,1.091,1.091,0,0,0-.127.2.944.944,0,0,0-.1.243,1.252,1.252,0,0,0-.061.273V73.2a2.081,2.081,0,0,0-.024.285" transform="translate(-49.33 -70.659)"/>
            </g>
          </g>
        </g>
        <path id="Trazado_767824" data-name="Trazado 767824" d="M49.33,73.956v6.579L151.812,139.72v-6.531a3.542,3.542,0,0,0-.243-1.238c-.025-.066-.049-.139-.079-.206a4.972,4.972,0,0,0-.273-.54,4.02,4.02,0,0,0-1.4-1.475L51.326,72.845a1.323,1.323,0,0,0-1.529-.06.972.972,0,0,0-.158.158,1.091,1.091,0,0,0-.127.2.944.944,0,0,0-.1.243,1.252,1.252,0,0,0-.061.273v.013a2.081,2.081,0,0,0-.024.285" transform="translate(-12.153 -17.878)" fill="#340b81"/>
        <path id="Trazado_767825" data-name="Trazado 767825" d="M65.991,85.1a3.286,3.286,0,0,1,1.246,2.638c0,1.06-.558,1.6-1.246,1.2A3.288,3.288,0,0,1,64.745,86.3c0-1.06.558-1.6,1.246-1.2" transform="translate(-15.95 -20.934)" fill="#fafafa"/>
        <path id="Trazado_767826" data-name="Trazado 767826" d="M60.039,81.661A3.286,3.286,0,0,1,61.285,84.3c0,1.06-.558,1.6-1.246,1.2a3.286,3.286,0,0,1-1.246-2.638c0-1.06.558-1.6,1.246-1.2" transform="translate(-14.484 -20.086)" fill="#fafafa"/>
        <path id="Trazado_767827" data-name="Trazado 767827" d="M54.086,78.218a3.286,3.286,0,0,1,1.246,2.638c0,1.06-.558,1.6-1.246,1.2a3.289,3.289,0,0,1-1.246-2.638c0-1.06.558-1.6,1.246-1.2" transform="translate(-13.018 -19.237)" fill="#fafafa"/>
        <path id="Trazado_767828" data-name="Trazado 767828" d="M51.54,72.371l98.49,56.889a4.114,4.114,0,0,1,1.406,1.482l2.537-1.469a3.982,3.982,0,0,0-1.388-1.457l-98.5-56.889a1.4,1.4,0,0,0-1.45-.119c-.358.219-2.015,1.161-2.437,1.387a1.447,1.447,0,0,1,1.338.176" transform="translate(-12.368 -17.407)" fill="#d6cee6"/>
        <path id="Trazado_767830" data-name="Trazado 767830" d="M178.431,166.431c0,.926-.65,1.3-1.453.839a3.224,3.224,0,0,1-1.457-2.519c0-.927.648-1.3,1.453-.838a3.217,3.217,0,0,1,1.457,2.519" transform="translate(-43.241 -40.332)" fill="#27debf"/>
        <path id="Trazado_767831" data-name="Trazado 767831" d="M161.479,156.753l-12.98-7.494c-.428-.247-.775-.072-.775.392a1.659,1.659,0,0,0,.774,1.286l12.981,7.494c.427.247.774.072.774-.392a1.66,1.66,0,0,0-.774-1.286" transform="translate(-36.393 -36.743)" fill="#e0e0e0"/>
        <path id="Trazado_767832" data-name="Trazado 767832" d="M138.548,143.343l-12.98-7.494c-.428-.247-.775-.072-.775.392a1.662,1.662,0,0,0,.774,1.286l12.981,7.494c.427.246.774.072.774-.392a1.659,1.659,0,0,0-.774-1.286" transform="translate(-30.744 -33.44)" fill="#e0e0e0"/>
        <path id="Trazado_767833" data-name="Trazado 767833" d="M115.617,129.932l-12.98-7.494c-.428-.247-.775-.072-.775.392a1.659,1.659,0,0,0,.774,1.286l12.981,7.494c.427.246.774.072.774-.392a1.658,1.658,0,0,0-.774-1.286" transform="translate(-25.094 -30.136)" fill="#e0e0e0"/>
        <path id="Trazado_767834" data-name="Trazado 767834" d="M92.686,116.522l-12.98-7.494c-.428-.247-.775-.072-.775.392A1.661,1.661,0,0,0,79.7,110.7L92.686,118.2c.427.246.774.072.774-.392a1.658,1.658,0,0,0-.774-1.286" transform="translate(-19.445 -26.832)" fill="#e0e0e0"/>
        <path id="Trazado_767835" data-name="Trazado 767835" d="M69.755,103.111l-12.98-7.494c-.428-.247-.775-.072-.775.392a1.659,1.659,0,0,0,.774,1.286l12.981,7.494c.427.246.774.072.775-.392a1.661,1.661,0,0,0-.775-1.286" transform="translate(-13.796 -23.528)" fill="#e0e0e0"/>
        <path id="Trazado_767836" data-name="Trazado 767836" d="M176.166,177.806v1.436c0,.4-.277.555-.62.357l-3.457-2a1.374,1.374,0,0,1-.621-1.072l0-1.442c0-.4.275-.555.617-.357l3.464,2a1.37,1.37,0,0,1,.62,1.074" transform="translate(-42.242 -43.025)" fill="#27debf"/>
        <path id="Trazado_767837" data-name="Trazado 767837" d="M164.709,171.274l-9.314-5.357c-.428-.247-.775-.072-.775.392a1.662,1.662,0,0,0,.774,1.286l9.314,5.357c.427.246.774.072.774-.392a1.66,1.66,0,0,0-.774-1.286" transform="translate(-38.092 -40.847)" fill="#e0e0e0"/>
        <path id="Trazado_767838" data-name="Trazado 767838" d="M172.733,172.474,152.392,160.73v6.711l20.341,11.743Z" transform="translate(-37.543 -39.597)" fill="none" stroke="#e0e0e0" stroke-linecap="round" stroke-linejoin="round" stroke-width="0.497"/>
        <path id="Trazado_767839" data-name="Trazado 767839" d="M176.166,191.162V192.6c0,.395-.277.555-.62.357l-3.457-2a1.375,1.375,0,0,1-.621-1.073l0-1.442c0-.4.275-.555.617-.358l3.464,2a1.37,1.37,0,0,1,.62,1.073" transform="translate(-42.242 -46.315)" fill="#27debf"/>
        <path id="Trazado_767840" data-name="Trazado 767840" d="M164.709,184.631l-9.314-5.357c-.428-.247-.775-.072-.775.391a1.662,1.662,0,0,0,.774,1.286l9.314,5.357c.427.247.774.072.774-.392a1.66,1.66,0,0,0-.774-1.286" transform="translate(-38.092 -44.138)" fill="#e0e0e0"/>
        <path id="Trazado_767841" data-name="Trazado 767841" d="M172.733,185.83l-20.341-11.744V180.8l20.341,11.743Z" transform="translate(-37.543 -42.887)" fill="none" stroke="#e0e0e0" stroke-linecap="round" stroke-linejoin="round" stroke-width="0.497"/>
        <path id="Trazado_767842" data-name="Trazado 767842" d="M176.166,204.52v1.437c0,.395-.277.555-.62.357l-3.457-2a1.377,1.377,0,0,1-.621-1.073l0-1.442c0-.4.275-.555.617-.357l3.464,2a1.37,1.37,0,0,1,.62,1.073" transform="translate(-42.242 -49.606)" fill="#27debf"/>
        <path id="Trazado_767843" data-name="Trazado 767843" d="M164.709,197.987,155.4,192.63c-.428-.247-.775-.072-.775.391a1.662,1.662,0,0,0,.774,1.286l9.314,5.357c.427.246.774.072.774-.392a1.66,1.66,0,0,0-.774-1.286" transform="translate(-38.092 -47.428)" fill="#e0e0e0"/>
        <path id="Trazado_767844" data-name="Trazado 767844" d="M172.733,199.187l-20.341-11.744v6.711L172.733,205.9Z" transform="translate(-37.543 -46.178)" fill="none" stroke="#e0e0e0" stroke-linecap="round" stroke-linejoin="round" stroke-width="0.497"/>
        <path id="Trazado_767845" data-name="Trazado 767845" d="M176.166,217.875v1.437c0,.395-.277.555-.62.357l-3.457-2a1.377,1.377,0,0,1-.621-1.073l0-1.442c0-.4.275-.555.617-.358l3.464,2a1.37,1.37,0,0,1,.62,1.073" transform="translate(-42.242 -52.896)" fill="#27debf"/>
        <path id="Trazado_767846" data-name="Trazado 767846" d="M164.709,211.344l-9.314-5.357c-.428-.247-.775-.072-.775.392a1.662,1.662,0,0,0,.774,1.286l9.314,5.357c.427.247.774.072.774-.392a1.66,1.66,0,0,0-.774-1.286" transform="translate(-38.092 -50.719)" fill="#e0e0e0"/>
        <path id="Trazado_767847" data-name="Trazado 767847" d="M172.733,212.543,152.392,200.8v6.711l20.341,11.743Z" transform="translate(-37.543 -49.468)" fill="none" stroke="#e0e0e0" stroke-linecap="round" stroke-linejoin="round" stroke-width="0.497"/>
        <path id="Trazado_767848" data-name="Trazado 767848" d="M176.166,231.233v1.437c0,.395-.277.555-.62.357l-3.457-2a1.376,1.376,0,0,1-.621-1.073l0-1.442c0-.4.275-.555.617-.357l3.464,2a1.37,1.37,0,0,1,.62,1.073" transform="translate(-42.242 -56.187)" fill="#27debf"/>
        <path id="Trazado_767849" data-name="Trazado 767849" d="M164.709,224.7l-9.314-5.357c-.428-.247-.775-.072-.775.391a1.662,1.662,0,0,0,.774,1.286l9.314,5.357c.427.246.774.072.774-.392a1.659,1.659,0,0,0-.774-1.286" transform="translate(-38.092 -54.009)" fill="#e0e0e0"/>
        <path id="Trazado_767850" data-name="Trazado 767850" d="M172.733,225.9l-20.341-11.744v6.711l20.341,11.743Z" transform="translate(-37.543 -52.759)" fill="none" stroke="#e0e0e0" stroke-linecap="round" stroke-linejoin="round" stroke-width="0.497"/>
        <path id="Trazado_767851" data-name="Trazado 767851" d="M134.026,178.188,112.736,165.9a3.161,3.161,0,0,1-1.43-2.477V145.032c0-.912.64-1.282,1.43-.826l21.29,12.292a3.162,3.162,0,0,1,1.43,2.477v18.387c0,.913-.641,1.282-1.43.826" transform="translate(-27.421 -35.478)" fill="#fafafa"/>
        <path id="Trazado_767852" data-name="Trazado 767852" d="M134.026,178.188,112.736,165.9a3.161,3.161,0,0,1-1.43-2.477V145.032c0-.912.64-1.282,1.43-.826l21.29,12.292a3.162,3.162,0,0,1,1.43,2.477v18.387C135.456,178.275,134.816,178.644,134.026,178.188Z" transform="translate(-27.421 -35.478)" fill="none" stroke="#e0e0e0" stroke-miterlimit="10" stroke-width="0.917"/>
        <path id="Trazado_767853" data-name="Trazado 767853" d="M144.766,158.538a.248.248,0,0,0,.124-.463l-.715-.413a.251.251,0,0,0-.338.091.247.247,0,0,0,.09.338l.716.413a.245.245,0,0,0,.124.033" transform="translate(-35.427 -38.834)" fill="#27debf"/>
        <path id="Trazado_767854" data-name="Trazado 767854" d="M134.55,152.679l-1.505-.869a.248.248,0,0,1-.091-.339.251.251,0,0,1,.338-.091l1.506.869a.248.248,0,0,1-.124.463.252.252,0,0,1-.124-.032m-3.01-1.738-1.505-.87a.247.247,0,0,1-.091-.338.251.251,0,0,1,.338-.091l1.505.869a.248.248,0,0,1-.124.463.251.251,0,0,1-.124-.032m-3.01-1.739-1.505-.869a.247.247,0,0,1-.091-.338.251.251,0,0,1,.338-.091l1.505.869a.248.248,0,0,1-.124.463.251.251,0,0,1-.124-.033m-3.01-1.738-1.505-.869a.248.248,0,0,1-.09-.338.251.251,0,0,1,.338-.091l1.505.869a.248.248,0,0,1-.124.463.256.256,0,0,1-.124-.033m-3.01-1.738L121,144.858a.248.248,0,0,1,.248-.43l1.505.869a.248.248,0,0,1-.124.463.256.256,0,0,1-.124-.033m-3.01-1.738-1.505-.869a.249.249,0,0,1-.091-.338.252.252,0,0,1,.339-.091l1.505.869a.248.248,0,0,1-.124.463.253.253,0,0,1-.124-.033m-3.01-1.738-1.505-.869a.248.248,0,0,1-.091-.338.251.251,0,0,1,.339-.091l1.505.869a.248.248,0,0,1-.124.463.251.251,0,0,1-.124-.033m-3.01-1.738-1.505-.869a.247.247,0,0,1-.091-.338.251.251,0,0,1,.339-.091l1.505.869a.248.248,0,0,1-.124.463.251.251,0,0,1-.124-.033" transform="translate(-27.555 -34.289)" fill="#27debf"/>
        <path id="Trazado_767855" data-name="Trazado 767855" d="M109.867,138.389a.248.248,0,0,0,.124-.463l-.714-.413a.251.251,0,0,0-.339.091.248.248,0,0,0,.091.338l.715.413a.243.243,0,0,0,.124.033" transform="translate(-26.829 -33.869)" fill="#27debf"/>
        <path id="Trazado_767856" data-name="Trazado 767856" d="M146.459,194.637a.248.248,0,0,0,.248-.248v-.825a.248.248,0,0,0-.5,0v.825a.248.248,0,0,0,.248.248" transform="translate(-36.02 -47.625)" fill="#27debf"/>
        <path id="Trazado_767857" data-name="Trazado 767857" d="M146.211,184.735v-1.583a.248.248,0,0,1,.5,0v1.583a.248.248,0,0,1-.5,0m0-3.167v-1.583a.248.248,0,0,1,.5,0v1.583a.248.248,0,1,1-.5,0m0-3.166v-1.584a.248.248,0,0,1,.5,0V178.4a.248.248,0,0,1-.5,0m0-3.168v-1.583a.248.248,0,1,1,.5,0v1.583a.248.248,0,0,1-.5,0m0-3.167v-1.583a.248.248,0,1,1,.5,0v1.583a.248.248,0,1,1-.5,0m0-3.166v-1.583a.248.248,0,1,1,.5,0V168.9a.248.248,0,1,1-.5,0m0-3.167v-1.583a.248.248,0,0,1,.5,0v1.583a.248.248,0,1,1-.5,0" transform="translate(-36.02 -40.379)" fill="#27debf"/>
        <path id="Trazado_767858" data-name="Trazado 767858" d="M146.46,162.027a.248.248,0,0,0,.248-.248v-.825a.248.248,0,1,0-.5,0v.825a.248.248,0,0,0,.248.248" transform="translate(-36.02 -39.591)" fill="#27debf"/>
        <path id="Trazado_767859" data-name="Trazado 767859" d="M109.839,175.449a.248.248,0,0,0,.124-.463l-.716-.412a.25.25,0,0,0-.338.09A.247.247,0,0,0,109,175l.716.413a.246.246,0,0,0,.124.033" transform="translate(-26.822 -43)" fill="#27debf"/>
        <path id="Trazado_767860" data-name="Trazado 767860" d="M134.542,189.75l-1.506-.869a.248.248,0,0,1,.248-.43l1.506.87a.248.248,0,0,1-.124.463.243.243,0,0,1-.124-.033m-3.012-1.739-1.506-.87a.248.248,0,1,1,.247-.43l1.507.87a.247.247,0,0,1-.124.462.255.255,0,0,1-.124-.032m-3.012-1.739-1.507-.87a.249.249,0,0,1-.091-.338.252.252,0,0,1,.339-.091l1.507.87a.248.248,0,0,1-.124.463.251.251,0,0,1-.124-.033m-3.013-1.739-1.506-.87a.247.247,0,0,1,.247-.429l1.507.87a.248.248,0,0,1-.124.463.254.254,0,0,1-.124-.033m-3.012-1.74-1.507-.869a.249.249,0,0,1-.091-.339.251.251,0,0,1,.339-.091l1.506.87a.248.248,0,0,1-.124.463.244.244,0,0,1-.124-.033m-3.013-1.739-1.506-.87a.248.248,0,0,1,.248-.43l1.506.87a.248.248,0,0,1,.091.338.251.251,0,0,1-.215.124.253.253,0,0,1-.124-.032m-3.012-1.739-1.507-.87a.247.247,0,0,1-.091-.338.25.25,0,0,1,.338-.091l1.507.87a.247.247,0,0,1,.091.338.247.247,0,0,1-.338.091m-3.013-1.739-1.507-.87a.248.248,0,0,1-.09-.338.251.251,0,0,1,.338-.091l1.507.87a.248.248,0,0,1-.124.463.251.251,0,0,1-.124-.033" transform="translate(-27.549 -43.419)" fill="#27debf"/>
        <path id="Trazado_767861" data-name="Trazado 767861" d="M144.766,195.614a.248.248,0,0,0,.124-.463l-.715-.413a.248.248,0,0,0-.248.43l.716.412a.245.245,0,0,0,.124.033" transform="translate(-35.427 -47.967)" fill="#27debf"/>
        <path id="Trazado_767862" data-name="Trazado 767862" d="M107.664,139.628a.248.248,0,0,0,.248-.248v-.825a.248.248,0,0,0-.5,0v.825a.248.248,0,0,0,.248.248" transform="translate(-26.463 -34.073)" fill="#27debf"/>
        <path id="Trazado_767863" data-name="Trazado 767863" d="M107.415,162.335v-1.583a.248.248,0,1,1,.5,0v1.583a.248.248,0,1,1-.5,0m0-3.167v-1.583a.248.248,0,0,1,.5,0v1.583a.248.248,0,0,1-.5,0m0-3.166v-1.584a.248.248,0,1,1,.5,0V156a.248.248,0,0,1-.5,0m0-3.167v-1.583a.248.248,0,1,1,.5,0v1.583a.248.248,0,0,1-.5,0m0-3.167v-1.583a.248.248,0,1,1,.5,0v1.583a.248.248,0,0,1-.5,0m0-3.167v-1.583a.248.248,0,1,1,.5,0V146.5a.248.248,0,1,1-.5,0m0-3.167v-1.583a.248.248,0,0,1,.5,0v1.583a.248.248,0,1,1-.5,0" transform="translate(-26.462 -34.861)" fill="#27debf"/>
        <path id="Trazado_767864" data-name="Trazado 767864" d="M107.663,172.237a.248.248,0,0,0,.248-.248v-.825a.248.248,0,0,0-.5,0v.825a.248.248,0,0,0,.248.248" transform="translate(-26.462 -42.106)" fill="#27debf"/>
        <path id="Trazado_767865" data-name="Trazado 767865" d="M108.281,138.367l-2.2-1.271a.248.248,0,0,1-.124-.215V134.34a.248.248,0,0,1,.372-.215l2.2,1.271a.248.248,0,0,1,.125.215v2.541a.248.248,0,0,1-.125.215.242.242,0,0,1-.123.033.247.247,0,0,1-.124-.033m-1.829-3.6v1.969l1.7.985v-1.969Z" transform="translate(-26.103 -33.034)" fill="#27debf"/>
        <path id="Trazado_767866" data-name="Trazado 767866" d="M108.281,175.443l-2.2-1.271a.248.248,0,0,1-.124-.215v-2.541a.247.247,0,0,1,.124-.215.251.251,0,0,1,.248,0l2.2,1.271a.248.248,0,0,1,.125.215v2.541a.248.248,0,0,1-.125.215.242.242,0,0,1-.123.033.247.247,0,0,1-.124-.033m-1.829-3.6v1.969l1.7.985V172.83Z" transform="translate(-26.103 -42.169)" fill="#27debf"/>
        <path id="Trazado_767867" data-name="Trazado 767867" d="M147.076,160.766l-2.2-1.271a.247.247,0,0,1-.124-.215v-2.541a.248.248,0,0,1,.372-.215l2.2,1.271a.249.249,0,0,1,.124.215v2.541a.249.249,0,0,1-.372.215m-1.829-3.6v1.969l1.7.985v-1.969Z" transform="translate(-35.661 -38.553)" fill="#27debf"/>
        <path id="Trazado_767868" data-name="Trazado 767868" d="M147.076,197.842l-2.2-1.271a.248.248,0,0,1-.124-.215v-2.541a.248.248,0,0,1,.124-.215.251.251,0,0,1,.248,0l2.2,1.271a.249.249,0,0,1,.124.215v2.541a.248.248,0,0,1-.372.215m-1.829-3.6v1.969l1.7.985v-1.969Z" transform="translate(-35.661 -47.687)" fill="#27debf"/>
        <path id="Trazado_767869" data-name="Trazado 767869" d="M106.275,156.4a2.653,2.653,0,0,0,1.108,2.117c.612.353,1.109-.021,1.109-.837a2.653,2.653,0,0,0-1.109-2.117c-.612-.353-1.108.021-1.108.837" transform="translate(-26.182 -38.291)" fill="#27debf"/>
        <path id="Trazado_767870" data-name="Trazado 767870" d="M125.687,146.984a2.653,2.653,0,0,0,1.108,2.117c.612.353,1.109-.022,1.109-.837a2.652,2.652,0,0,0-1.109-2.117c-.612-.353-1.108.021-1.108.837" transform="translate(-30.964 -35.971)" fill="#27debf"/>
        <path id="Trazado_767871" data-name="Trazado 767871" d="M125.687,184.06a2.654,2.654,0,0,0,1.108,2.117c.612.353,1.109-.022,1.109-.837a2.655,2.655,0,0,0-1.109-2.118c-.612-.353-1.108.022-1.108.838" transform="translate(-30.964 -45.105)" fill="#27debf"/>
        <path id="Trazado_767872" data-name="Trazado 767872" d="M145.072,178.848a2.653,2.653,0,0,0,1.108,2.117c.612.353,1.108-.022,1.108-.837a2.652,2.652,0,0,0-1.108-2.117c-.612-.353-1.108.021-1.108.837" transform="translate(-35.74 -43.821)" fill="#27debf"/>
        <path id="Trazado_767873" data-name="Trazado 767873" d="M119.871,162.247l1.339.943a.55.55,0,0,1,.188.284,8.748,8.748,0,0,0,.339,1.136.28.28,0,0,1-.073.29l-.755.651a.229.229,0,0,0-.047.278l1.078,1.867a.23.23,0,0,0,.265.1l.941-.329a.281.281,0,0,1,.288.081,8.874,8.874,0,0,0,.815.862.547.547,0,0,1,.152.3l.147,1.632a.4.4,0,0,0,.175.274l1.466.846a.11.11,0,0,0,.177-.09l.143-1.424a.154.154,0,0,1,.2-.138,2.912,2.912,0,0,0,.706.072.36.36,0,0,1,.283.141l1.085,1.63a.2.2,0,0,0,.259.061l.944-.545a.2.2,0,0,0,.077-.255l-.87-1.754a.363.363,0,0,1,.02-.317,2.883,2.883,0,0,0,.291-.647.156.156,0,0,1,.218-.1l1.3.589a.11.11,0,0,0,.167-.108v-1.693a.394.394,0,0,0-.15-.288l-1.339-.943a.541.541,0,0,1-.188-.284,8.713,8.713,0,0,0-.339-1.137.28.28,0,0,1,.073-.29l.755-.651a.229.229,0,0,0,.047-.277l-1.078-1.868a.23.23,0,0,0-.265-.1l-.941.329a.281.281,0,0,1-.288-.081,8.784,8.784,0,0,0-.815-.862.549.549,0,0,1-.152-.3l-.147-1.632a.4.4,0,0,0-.175-.274l-1.466-.846a.11.11,0,0,0-.177.09l-.143,1.424a.154.154,0,0,1-.2.138,2.912,2.912,0,0,0-.706-.072.362.362,0,0,1-.283-.141l-1.084-1.63a.2.2,0,0,0-.259-.061l-.944.545a.2.2,0,0,0-.077.255l.87,1.754a.363.363,0,0,1-.02.317,2.884,2.884,0,0,0-.291.647.156.156,0,0,1-.218.1l-1.3-.589a.11.11,0,0,0-.167.108v1.693a.394.394,0,0,0,.15.288m3.107.745c0-1.58,1.109-2.219,2.476-1.43a5.471,5.471,0,0,1,2.477,4.29c0,1.58-1.109,2.219-2.477,1.43a5.474,5.474,0,0,1-2.476-4.29" transform="translate(-29.494 -38.704)" fill="#27debf"/>
        <path id="Trazado_767874" data-name="Trazado 767874" d="M84.069,149.424l-21.29-12.292a3.161,3.161,0,0,1-1.43-2.477V116.268c0-.912.64-1.283,1.43-.826l21.29,12.292a3.162,3.162,0,0,1,1.43,2.477V148.6c0,.913-.641,1.282-1.43.826" transform="translate(-15.114 -28.392)" fill="#fafafa"/>
        <path id="Trazado_767875" data-name="Trazado 767875" d="M84.069,149.424l-21.29-12.292a3.161,3.161,0,0,1-1.43-2.477V116.268c0-.912.64-1.283,1.43-.826l21.29,12.292a3.162,3.162,0,0,1,1.43,2.477V148.6C85.5,149.51,84.859,149.88,84.069,149.424Z" transform="translate(-15.114 -28.392)" fill="none" stroke="#e0e0e0" stroke-miterlimit="10" stroke-width="0.917"/>
        <path id="Trazado_767876" data-name="Trazado 767876" d="M94.809,129.774a.248.248,0,0,0,.124-.463l-.715-.413a.251.251,0,0,0-.338.091.247.247,0,0,0,.09.338l.716.413a.245.245,0,0,0,.124.033" transform="translate(-23.12 -31.747)" fill="#27debf"/>
        <path id="Trazado_767877" data-name="Trazado 767877" d="M84.593,123.913l-1.505-.869a.247.247,0,0,1-.091-.338.251.251,0,0,1,.339-.091l1.505.869a.248.248,0,0,1-.124.463.245.245,0,0,1-.124-.033m-3.01-1.738-1.505-.869a.247.247,0,0,1-.091-.338.252.252,0,0,1,.339-.091l1.505.869a.248.248,0,0,1-.124.463.245.245,0,0,1-.124-.033m-3.01-1.738-1.505-.869a.247.247,0,0,1-.091-.338.251.251,0,0,1,.338-.091l1.505.869a.248.248,0,0,1-.124.463.253.253,0,0,1-.124-.033M75.563,118.7l-1.506-.869a.248.248,0,0,1-.09-.338.251.251,0,0,1,.338-.091l1.505.869a.248.248,0,0,1-.124.463.251.251,0,0,1-.124-.033m-3.011-1.738-1.505-.869a.248.248,0,0,1,.248-.43l1.505.869a.248.248,0,0,1-.124.463.256.256,0,0,1-.124-.033m-3.01-1.738-1.505-.869a.248.248,0,0,1-.09-.338.251.251,0,0,1,.338-.091l1.505.869a.248.248,0,0,1-.124.463.256.256,0,0,1-.124-.033m-3.01-1.738-1.505-.869a.248.248,0,1,1,.248-.43l1.505.869a.248.248,0,0,1-.124.463.254.254,0,0,1-.124-.033m-3.01-1.738-1.505-.869a.249.249,0,0,1-.091-.338.251.251,0,0,1,.339-.091l1.505.869a.248.248,0,0,1-.124.463.252.252,0,0,1-.124-.033" transform="translate(-15.248 -27.202)" fill="#27debf"/>
        <path id="Trazado_767878" data-name="Trazado 767878" d="M59.911,109.625a.248.248,0,0,0,.124-.463l-.714-.413a.25.25,0,0,0-.338.091.248.248,0,0,0,.09.338l.715.413a.251.251,0,0,0,.124.033" transform="translate(-14.522 -26.783)" fill="#27debf"/>
        <path id="Trazado_767879" data-name="Trazado 767879" d="M96.5,165.872a.248.248,0,0,0,.248-.248V164.8a.248.248,0,1,0-.5,0v.825a.248.248,0,0,0,.248.248" transform="translate(-23.713 -40.538)" fill="#27debf"/>
        <path id="Trazado_767880" data-name="Trazado 767880" d="M96.255,155.97v-1.583a.248.248,0,0,1,.5,0v1.583a.248.248,0,0,1-.5,0m0-3.167v-1.583a.248.248,0,1,1,.5,0V152.8a.248.248,0,1,1-.5,0m0-3.166v-1.584a.248.248,0,1,1,.5,0v1.584a.248.248,0,0,1-.5,0m0-3.168v-1.583a.248.248,0,1,1,.5,0v1.583a.248.248,0,0,1-.5,0m0-3.167V141.72a.248.248,0,1,1,.5,0V143.3a.248.248,0,1,1-.5,0m0-3.166v-1.583a.248.248,0,1,1,.5,0v1.583a.248.248,0,1,1-.5,0m0-3.167v-1.583a.248.248,0,0,1,.5,0v1.583a.248.248,0,1,1-.5,0" transform="translate(-23.713 -33.292)" fill="#27debf"/>
        <path id="Trazado_767881" data-name="Trazado 767881" d="M96.5,133.263a.248.248,0,0,0,.248-.248v-.825a.248.248,0,0,0-.5,0v.825a.248.248,0,0,0,.248.248" transform="translate(-23.713 -32.505)" fill="#27debf"/>
        <path id="Trazado_767882" data-name="Trazado 767882" d="M59.882,146.685a.248.248,0,0,0,.124-.463l-.715-.413a.25.25,0,0,0-.338.091.247.247,0,0,0,.09.338l.716.413a.253.253,0,0,0,.124.033" transform="translate(-14.515 -35.913)" fill="#27debf"/>
        <path id="Trazado_767883" data-name="Trazado 767883" d="M84.586,160.986l-1.506-.87a.248.248,0,0,1-.091-.338.251.251,0,0,1,.339-.091l1.506.87a.248.248,0,0,1-.124.463.251.251,0,0,1-.124-.033m-3.012-1.739-1.506-.87a.248.248,0,1,1,.247-.43l1.507.869a.248.248,0,0,1-.124.463.255.255,0,0,1-.124-.032m-3.012-1.739-1.507-.87a.249.249,0,0,1-.091-.339.252.252,0,0,1,.339-.09l1.507.87a.248.248,0,0,1-.124.462.25.25,0,0,1-.124-.032m-3.013-1.739-1.506-.871a.247.247,0,1,1,.247-.428l1.507.87a.248.248,0,0,1-.124.463.254.254,0,0,1-.124-.033m-3.012-1.74-1.507-.869a.249.249,0,0,1-.091-.339.251.251,0,0,1,.339-.091l1.506.87a.248.248,0,0,1-.124.463.251.251,0,0,1-.124-.033m-3.013-1.739-1.506-.87a.248.248,0,0,1,.248-.43l1.506.87a.247.247,0,0,1-.124.462.253.253,0,0,1-.124-.032M66.51,150.55,65,149.681a.248.248,0,1,1,.247-.43l1.507.87a.247.247,0,0,1,.091.338.25.25,0,0,1-.215.124.256.256,0,0,1-.124-.033M63.5,148.811l-1.507-.87a.248.248,0,0,1-.09-.338.251.251,0,0,1,.338-.091l1.507.87a.248.248,0,0,1-.124.463.251.251,0,0,1-.124-.033" transform="translate(-15.242 -36.333)" fill="#27debf"/>
        <path id="Trazado_767884" data-name="Trazado 767884" d="M94.809,166.85a.248.248,0,0,0,.124-.463l-.715-.412a.248.248,0,0,0-.248.43l.716.412a.245.245,0,0,0,.124.033" transform="translate(-23.12 -40.881)" fill="#27debf"/>
        <path id="Trazado_767885" data-name="Trazado 767885" d="M57.708,110.864a.248.248,0,0,0,.248-.248v-.825a.248.248,0,1,0-.5,0v.825a.248.248,0,0,0,.248.248" transform="translate(-14.156 -26.987)" fill="#27debf"/>
        <path id="Trazado_767886" data-name="Trazado 767886" d="M57.459,133.57v-1.584a.248.248,0,0,1,.5,0v1.584a.248.248,0,1,1-.5,0m0-3.167v-1.583a.248.248,0,1,1,.5,0V130.4a.248.248,0,1,1-.5,0m0-3.167v-1.583a.248.248,0,1,1,.5,0v1.583a.248.248,0,1,1-.5,0m0-3.167v-1.583a.248.248,0,1,1,.5,0v1.583a.248.248,0,1,1-.5,0m0-3.167V119.32a.248.248,0,1,1,.5,0V120.9a.248.248,0,1,1-.5,0m0-3.166v-1.583a.248.248,0,0,1,.5,0v1.583a.248.248,0,1,1-.5,0m0-3.167v-1.583a.248.248,0,0,1,.5,0v1.583a.248.248,0,1,1-.5,0" transform="translate(-14.155 -27.774)" fill="#27debf"/>
        <path id="Trazado_767887" data-name="Trazado 767887" d="M57.707,143.472a.248.248,0,0,0,.248-.248V142.4a.248.248,0,0,0-.5,0v.825a.248.248,0,0,0,.248.248" transform="translate(-14.155 -35.02)" fill="#27debf"/>
        <path id="Trazado_767888" data-name="Trazado 767888" d="M58.324,109.6l-2.2-1.271a.248.248,0,0,1-.124-.215v-2.541a.247.247,0,0,1,.371-.215l2.2,1.271a.249.249,0,0,1,.124.215v2.541a.248.248,0,0,1-.372.215M56.5,106v1.969l1.7.985V106.99Z" transform="translate(-13.796 -25.948)" fill="#27debf"/>
        <path id="Trazado_767889" data-name="Trazado 767889" d="M58.324,146.679l-2.2-1.271a.246.246,0,0,1-.124-.215v-2.541a.247.247,0,0,1,.371-.215l2.2,1.271a.249.249,0,0,1,.124.215v2.541a.249.249,0,0,1-.372.215m-1.829-3.6v1.969l1.7.985v-1.969Z" transform="translate(-13.796 -35.082)" fill="#27debf"/>
        <path id="Trazado_767890" data-name="Trazado 767890" d="M97.12,132l-2.2-1.271a.247.247,0,0,1-.124-.215v-2.541a.248.248,0,0,1,.372-.216l2.2,1.271a.249.249,0,0,1,.124.215v2.541a.248.248,0,0,1-.372.215m-1.829-3.6v1.969l1.7.985v-1.969Z" transform="translate(-23.354 -31.466)" fill="#27debf"/>
        <path id="Trazado_767891" data-name="Trazado 767891" d="M97.12,169.078l-2.2-1.271a.248.248,0,0,1-.124-.215v-2.541a.248.248,0,0,1,.372-.215l2.2,1.271a.249.249,0,0,1,.124.215v2.541a.248.248,0,0,1-.372.215m-1.829-3.6v1.969l1.7.985v-1.969Z" transform="translate(-23.354 -40.6)" fill="#27debf"/>
        <path id="Trazado_767892" data-name="Trazado 767892" d="M56.318,127.634a2.653,2.653,0,0,0,1.108,2.117c.612.353,1.108-.022,1.108-.837a2.652,2.652,0,0,0-1.108-2.117c-.612-.353-1.108.021-1.108.837" transform="translate(-13.874 -31.204)" fill="#27debf"/>
        <path id="Trazado_767893" data-name="Trazado 767893" d="M75.73,118.219a2.653,2.653,0,0,0,1.108,2.117c.612.353,1.109-.022,1.109-.837a2.653,2.653,0,0,0-1.109-2.117c-.612-.353-1.108.021-1.108.837" transform="translate(-18.657 -28.885)" fill="#27debf"/>
        <path id="Trazado_767894" data-name="Trazado 767894" d="M75.73,155.295a2.653,2.653,0,0,0,1.108,2.117c.612.353,1.109-.022,1.109-.837a2.653,2.653,0,0,0-1.109-2.117c-.612-.353-1.108.021-1.108.837" transform="translate(-18.657 -38.019)" fill="#27debf"/>
        <path id="Trazado_767895" data-name="Trazado 767895" d="M95.115,150.084a2.653,2.653,0,0,0,1.108,2.117c.612.353,1.108-.022,1.108-.837a2.652,2.652,0,0,0-1.108-2.117c-.612-.353-1.108.021-1.108.837" transform="translate(-23.432 -36.735)" fill="#27debf"/>
        <path id="Trazado_767896" data-name="Trazado 767896" d="M69.914,133.482l1.339.943a.541.541,0,0,1,.188.284,8.83,8.83,0,0,0,.339,1.136.279.279,0,0,1-.073.29l-.755.651a.228.228,0,0,0-.047.277l1.078,1.868a.229.229,0,0,0,.264.1l.941-.329a.281.281,0,0,1,.288.081,8.871,8.871,0,0,0,.815.862.549.549,0,0,1,.152.3l.147,1.632a.4.4,0,0,0,.175.274l1.466.846a.11.11,0,0,0,.177-.09l.143-1.424a.154.154,0,0,1,.2-.138,2.913,2.913,0,0,0,.706.072.365.365,0,0,1,.284.141l1.084,1.63a.2.2,0,0,0,.26.061l.944-.545a.2.2,0,0,0,.077-.255l-.87-1.754a.363.363,0,0,1,.02-.317,2.953,2.953,0,0,0,.291-.647.155.155,0,0,1,.217-.1l1.3.589a.11.11,0,0,0,.167-.108v-1.693a.394.394,0,0,0-.15-.288l-1.339-.943a.545.545,0,0,1-.188-.284,8.713,8.713,0,0,0-.339-1.137.28.28,0,0,1,.073-.29l.755-.651a.228.228,0,0,0,.047-.277l-1.078-1.868a.23.23,0,0,0-.265-.1l-.941.329a.281.281,0,0,1-.288-.081,8.784,8.784,0,0,0-.815-.862.546.546,0,0,1-.152-.3l-.147-1.632a.4.4,0,0,0-.175-.274l-1.466-.846a.11.11,0,0,0-.177.09l-.142,1.424a.155.155,0,0,1-.2.138,2.911,2.911,0,0,0-.706-.072.36.36,0,0,1-.283-.141l-1.084-1.63a.2.2,0,0,0-.259-.061l-.944.545a.2.2,0,0,0-.077.255l.87,1.754a.36.36,0,0,1-.02.317,2.885,2.885,0,0,0-.291.647.156.156,0,0,1-.218.1l-1.3-.589a.11.11,0,0,0-.167.108v1.693a.394.394,0,0,0,.15.288m3.107.745c0-1.58,1.109-2.219,2.477-1.43a5.474,5.474,0,0,1,2.476,4.29c0,1.58-1.109,2.219-2.476,1.43a5.473,5.473,0,0,1-2.477-4.29" transform="translate(-17.187 -31.617)" fill="#27debf"/>
        <path id="Trazado_767897" data-name="Trazado 767897" d="M125.739,202.268V194.1a3.423,3.423,0,0,0-1.549-2.682L57.548,152.943c-.855-.494-1.549-.094-1.549.894V162a3.422,3.422,0,0,0,1.549,2.682l66.642,38.476c.855.494,1.549.093,1.549-.895" transform="translate(-13.796 -37.626)" fill="#e0e0e0"/>
        <path id="Trazado_767898" data-name="Trazado 767898" d="M46.765,5.578,46.76,97.467a4.877,4.877,0,0,0,2.208,3.822l58.708,33.883a1.416,1.416,0,0,0,.732.21,1.247,1.247,0,0,0,.282-.036.831.831,0,0,0,.188-.065c.043-.022.08-.044.116-.065l.13-.087a.848.848,0,0,0,.124-.109,1.747,1.747,0,0,0,.405-.579,2.762,2.762,0,0,0,.231-1.115V41.988a4.888,4.888,0,0,0-2.208-3.822L48.968,4.319a1.6,1.6,0,0,0-1.484-.188.921.921,0,0,0-.188.115,1.56,1.56,0,0,0-.531,1.333" transform="translate(-11.52 -0.991)" fill="#455a64"/>
        <path id="Trazado_767899" data-name="Trazado 767899" d="M47.989,4.776a1.254,1.254,0,0,1,.6.2L107.3,38.819a4.177,4.177,0,0,1,1.831,3.169v91.338a2,2,0,0,1-.165.8,1,1,0,0,1-.227.333l-.038.035-.009.011-.012.01-.023.015-.05.034a.445.445,0,0,1-.087.043.6.6,0,0,1-.142.017.691.691,0,0,1-.323-.11L49.345,100.637a4.112,4.112,0,0,1-1.831-3.169l0-91.889c0-.54.209-.714.235-.734a.187.187,0,0,1,.053-.032.415.415,0,0,1,.182-.037m0-.754a1.166,1.166,0,0,0-.5.109.9.9,0,0,0-.188.114,1.563,1.563,0,0,0-.531,1.333l0,91.889a4.876,4.876,0,0,0,2.207,3.822l58.709,33.883a1.439,1.439,0,0,0,.7.211h.031a1.24,1.24,0,0,0,.282-.036.83.83,0,0,0,.188-.065c.044-.022.08-.044.116-.066l.13-.087a.939.939,0,0,0,.123-.109,1.736,1.736,0,0,0,.405-.58,2.762,2.762,0,0,0,.231-1.115V41.988a4.888,4.888,0,0,0-2.207-3.822L48.968,4.319a2.011,2.011,0,0,0-.979-.3" transform="translate(-11.52 -0.991)" fill="#455a64"/>
        <g id="Grupo_1026395" data-name="Grupo 1026395" transform="translate(35.241 3.031)" opacity="0.8">
          <g id="Grupo_1026394" data-name="Grupo 1026394">
            <g id="Grupo_1026393" data-name="Grupo 1026393" clip-path="url(#clip-path-5)">
              <path id="Trazado_767900" data-name="Trazado 767900" d="M46.765,5.578,46.76,97.467a4.877,4.877,0,0,0,2.208,3.822l58.708,33.883a1.416,1.416,0,0,0,.732.21,1.247,1.247,0,0,0,.282-.036.831.831,0,0,0,.188-.065c.043-.022.08-.044.116-.065l.13-.087a.848.848,0,0,0,.124-.109,1.747,1.747,0,0,0,.405-.579,2.762,2.762,0,0,0,.231-1.115V41.988a4.888,4.888,0,0,0-2.208-3.822L48.968,4.319a1.6,1.6,0,0,0-1.484-.188.921.921,0,0,0-.188.115,1.56,1.56,0,0,0-.531,1.333" transform="translate(-46.76 -4.022)" fill="#12263f"/>
            </g>
          </g>
        </g>
        <path id="Trazado_767901" data-name="Trazado 767901" d="M47.721,3.61A1.6,1.6,0,0,1,49.2,3.8l58.709,33.847a4.888,4.888,0,0,1,2.207,3.822v7.21l2.816-1.65V39.868a4.868,4.868,0,0,0-2.2-3.815L52.021,2.206a1.533,1.533,0,0,0-1.6-.13c-.4.239-2.23,1.288-2.7,1.534" transform="translate(-11.756 -0.47)" fill="#27debf"/>
        <path id="Trazado_767902" data-name="Trazado 767902" d="M46.767,5.578c.008-1.393.991-1.956,2.2-1.256l58.709,33.846a4.874,4.874,0,0,1,2.205,3.819l0,7.213L46.767,12.816Z" transform="translate(-11.521 -0.991)" fill="#27debf"/>
        <g id="Grupo_1026398" data-name="Grupo 1026398" transform="translate(35.973 1.437)" opacity="0.4">
          <g id="Grupo_1026397" data-name="Grupo 1026397">
            <g id="Grupo_1026396" data-name="Grupo 1026396" clip-path="url(#clip-path-6)">
              <path id="Trazado_767903" data-name="Trazado 767903" d="M49.209,3.8l58.706,33.846a4.537,4.537,0,0,1,1.553,1.637l2.8-1.623a4.4,4.4,0,0,0-1.534-1.611L52.026,2.2a1.55,1.55,0,0,0-1.6-.13c-.4.243-2.227,1.283-2.691,1.532a1.6,1.6,0,0,1,1.477.194" transform="translate(-47.732 -1.907)" fill="#fff"/>
            </g>
          </g>
        </g>
        <g id="Grupo_1026401" data-name="Grupo 1026401" transform="translate(97.702 37.191)" opacity="0.15">
          <g id="Grupo_1026400" data-name="Grupo 1026400">
            <g id="Grupo_1026399" data-name="Grupo 1026399" clip-path="url(#clip-path-7)">
              <path id="Trazado_767904" data-name="Trazado 767904" d="M133.122,58.723V51.554a4.551,4.551,0,0,0-.671-2.206l-2.809,1.616a4.461,4.461,0,0,1,.659,2.192v7.212Z" transform="translate(-129.64 -49.348)"/>
            </g>
          </g>
        </g>
        <path id="Trazado_767905" data-name="Trazado 767905" d="M63.985,16.939a3.286,3.286,0,0,1,1.246,2.638c0,1.06-.558,1.6-1.246,1.2a3.286,3.286,0,0,1-1.246-2.638c0-1.06.558-1.6,1.246-1.2" transform="translate(-15.456 -4.141)" fill="#455a64"/>
        <path id="Trazado_767906" data-name="Trazado 767906" d="M58.033,13.5a3.286,3.286,0,0,1,1.246,2.638c0,1.06-.558,1.6-1.246,1.2A3.286,3.286,0,0,1,56.787,14.7c0-1.06.558-1.6,1.246-1.2" transform="translate(-13.99 -3.293)" fill="#455a64"/>
        <path id="Trazado_767907" data-name="Trazado 767907" d="M52.081,10.053a3.286,3.286,0,0,1,1.246,2.638c0,1.06-.558,1.6-1.246,1.2a3.289,3.289,0,0,1-1.246-2.638c0-1.06.558-1.6,1.246-1.2" transform="translate(-12.524 -2.445)" fill="#455a64"/>
        <path id="Trazado_767908" data-name="Trazado 767908" d="M129.443,149.408c.08-.05.173-.1.275-.159.2-.124.434-.254.681-.384l.007-.008c.124-.072.246-.145.369-.21a.055.055,0,0,1,.029-.015c.2-.115.4-.231.579-.333s.355-.2.485-.275.231-.13.275-.151a1.248,1.248,0,0,0,.376-.3,1.67,1.67,0,0,0,.3-.448,2.735,2.735,0,0,0,.253-1.166V61.776l-2.816,1.65v84.128a3.3,3.3,0,0,1-.232,1.115,1.736,1.736,0,0,1-.405.58.361.361,0,0,1-.123.109.161.161,0,0,1-.051.05" transform="translate(-31.889 -15.219)" fill="#37474f"/>
        <path id="Trazado_767909" data-name="Trazado 767909" d="M122.711,67.7a.242.242,0,0,1-.084.209l-1.177,1.078A.057.057,0,0,1,121.4,69l-.03-.013a.243.243,0,0,1-.092-.113.378.378,0,0,1-.039-.165v-.818a.737.737,0,0,1,.024-.226.323.323,0,0,1,.084-.126l.621-.571-.621-1.288a1.2,1.2,0,0,1-.084-.223,1.046,1.046,0,0,1-.024-.252v-.819a.156.156,0,0,1,.039-.119.069.069,0,0,1,.092-.007.323.323,0,0,1,.03.022.248.248,0,0,1,.054.072l1.177,2.437a.653.653,0,0,1,.084.306Z" transform="translate(-29.867 -15.827)" fill="#27debf"/>
        <path id="Trazado_767910" data-name="Trazado 767910" d="M119.205,68.286a.392.392,0,0,1,.011.089.16.16,0,0,1-.038.121.071.071,0,0,1-.093.007l-.424-.245a.437.437,0,0,1-.179-.2,1.111,1.111,0,0,1-.084-.232l-2.019-8.607a.446.446,0,0,1-.011-.09.161.161,0,0,1,.038-.12.071.071,0,0,1,.093-.007l.442.255a.434.434,0,0,1,.173.187,1.2,1.2,0,0,1,.089.24Z" transform="translate(-28.668 -14.533)" fill="#27debf"/>
        <path id="Trazado_767911" data-name="Trazado 767911" d="M113.332,61.908a.245.245,0,0,1,.084-.21l1.177-1.078a.058.058,0,0,1,.054-.01l.029.013a.24.24,0,0,1,.093.113.374.374,0,0,1,.038.164v.819a.765.765,0,0,1-.023.225.329.329,0,0,1-.084.127l-.621.571.621,1.287a1.279,1.279,0,0,1,.084.223,1.1,1.1,0,0,1,.023.253v.818a.161.161,0,0,1-.038.121.071.071,0,0,1-.093.006l-.029-.022a.239.239,0,0,1-.054-.073l-1.177-2.436a.655.655,0,0,1-.084-.306Z" transform="translate(-27.92 -14.931)" fill="#27debf"/>
        <path id="Trazado_767912" data-name="Trazado 767912" d="M109.491,62.7a.3.3,0,0,1,.114.139.471.471,0,0,1,.047.2v.9a.2.2,0,0,1-.047.148.087.087,0,0,1-.114.008l-.555-.321a.305.305,0,0,1-.114-.139.474.474,0,0,1-.047-.2v-.9a.2.2,0,0,1,.047-.147.088.088,0,0,1,.114-.008Z" transform="translate(-26.797 -15.364)" fill="#27debf"/>
        <path id="Trazado_767913" data-name="Trazado 767913" d="M107.026,61.28a.3.3,0,0,1,.113.139.462.462,0,0,1,.048.2v.9a.194.194,0,0,1-.048.147.085.085,0,0,1-.113.008l-.556-.321a.3.3,0,0,1-.113-.139.464.464,0,0,1-.047-.2v-.9a.2.2,0,0,1,.047-.147.087.087,0,0,1,.113-.008Z" transform="translate(-26.19 -15.013)" fill="#27debf"/>
        <path id="Trazado_767914" data-name="Trazado 767914" d="M104.56,59.857a.3.3,0,0,1,.113.139.462.462,0,0,1,.048.2v.9a.2.2,0,0,1-.048.148.086.086,0,0,1-.113.008l-.555-.321a.305.305,0,0,1-.114-.139.475.475,0,0,1-.048-.2v-.9a.2.2,0,0,1,.048-.147.088.088,0,0,1,.114-.008Z" transform="translate(-25.582 -14.663)" fill="#27debf"/>
        <path id="Trazado_767915" data-name="Trazado 767915" d="M109.919,69.545,71.906,47.6c-.321-.185-.582-.054-.582.295a1.248,1.248,0,0,0,.582.966l38.013,21.947c.321.185.582.054.582-.295a1.248,1.248,0,0,0-.582-.966" transform="translate(-17.571 -11.706)" fill="#27debf"/>
        <path id="Trazado_767916" data-name="Trazado 767916" d="M98.329,82.927,60.316,60.981c-.321-.185-.582-.054-.582.295a1.248,1.248,0,0,0,.582.966L98.329,84.188c.321.185.582.054.582-.295a1.248,1.248,0,0,0-.582-.966" transform="translate(-14.716 -15.002)" fill="#f4a338"/>
        <path id="Trazado_767917" data-name="Trazado 767917" d="M102.968,92.3,79.149,78.553c-.321-.185-.582-.054-.582.294a1.251,1.251,0,0,0,.582.967l23.82,13.746c.321.185.582.054.582-.295a1.248,1.248,0,0,0-.582-.966" transform="translate(-19.356 -19.331)" fill="#f4a338"/>
        <path id="Trazado_767918" data-name="Trazado 767918" d="M102.968,98.991,79.149,85.244c-.321-.185-.582-.054-.582.294a1.251,1.251,0,0,0,.582.967l23.82,13.746c.321.185.582.054.582-.295a1.248,1.248,0,0,0-.582-.966" transform="translate(-19.356 -20.98)" fill="#f4a338"/>
        <path id="Trazado_767919" data-name="Trazado 767919" d="M65.367,43.816,54.522,37.531c-.322-.186-.582-.054-.582.294a1.246,1.246,0,0,0,.582.966l10.846,6.285c.321.185.582.054.582-.295a1.248,1.248,0,0,0-.582-.966" transform="translate(-13.289 -9.225)" fill="#27debf"/>
        <path id="Trazado_767920" data-name="Trazado 767920" d="M100.55,137.789,71.906,121.2c-.321-.185-.582-.054-.582.295a1.248,1.248,0,0,0,.582.966l28.644,16.593c.321.185.582.054.582-.295a1.248,1.248,0,0,0-.582-.966" transform="translate(-17.571 -29.837)" fill="#27debf"/>
        <path id="Trazado_767921" data-name="Trazado 767921" d="M65.367,117.413l-10.846-6.285c-.322-.186-.582-.054-.582.294a1.246,1.246,0,0,0,.582.966l10.846,6.285c.321.185.582.054.582-.295a1.248,1.248,0,0,0-.582-.966" transform="translate(-13.289 -27.356)" fill="#27debf"/>
        <path id="Trazado_767922" data-name="Trazado 767922" d="M91.373,112.342,54.522,91.09c-.321-.185-.582-.054-.582.295a1.248,1.248,0,0,0,.582.966L91.373,113.6c.321.185.582.054.582-.295a1.248,1.248,0,0,0-.582-.966" transform="translate(-13.289 -22.42)" fill="#27debf"/>
        <path id="Trazado_767923" data-name="Trazado 767923" d="M100.621,124.544,54.522,97.78c-.321-.185-.582-.054-.582.295a1.248,1.248,0,0,0,.582.966l46.1,26.765c.321.185.582.054.582-.295a1.248,1.248,0,0,0-.582-.966" transform="translate(-13.289 -24.068)" fill="#27debf"/>
        <path id="Trazado_767924" data-name="Trazado 767924" d="M102.737,132.373,71.906,114.512c-.321-.187-.582-.055-.582.294a1.25,1.25,0,0,0,.582.966l30.831,17.861c.321.186.582.054.582-.294a1.248,1.248,0,0,0-.582-.966" transform="translate(-17.571 -28.19)" fill="#f4a338"/>
        <path id="Trazado_767925" data-name="Trazado 767925" d="M113.7,125.2l-6.094-3.518c-.321-.185-.582-.054-.582.295a1.248,1.248,0,0,0,.582.966l6.094,3.518c.321.185.582.054.582-.295a1.248,1.248,0,0,0-.582-.966" transform="translate(-26.366 -29.958)" fill="#27debf"/>
        <path id="Trazado_767926" data-name="Trazado 767926" d="M113.627,78.39l-26.668-15.4c-.321-.185-.582-.054-.582.295a1.249,1.249,0,0,0,.582.966l26.668,15.4c.321.185.582.054.582-.295a1.248,1.248,0,0,0-.582-.966" transform="translate(-21.28 -15.497)" fill="#27debf"/>
        <g id="Grupo_1026404" data-name="Grupo 1026404" transform="translate(65.097 47.406)" opacity="0.6">
          <g id="Grupo_1026403" data-name="Grupo 1026403">
            <g id="Grupo_1026402" data-name="Grupo 1026402" clip-path="url(#clip-path-8)">
              <path id="Trazado_767927" data-name="Trazado 767927" d="M113.627,78.39l-26.668-15.4c-.321-.185-.582-.054-.582.295a1.249,1.249,0,0,0,.582.966l26.668,15.4c.321.185.582.054.582-.295a1.248,1.248,0,0,0-.582-.966" transform="translate(-86.377 -62.903)" fill="#fff"/>
            </g>
          </g>
        </g>
        <path id="Trazado_767928" data-name="Trazado 767928" d="M120.584,89.087,115.2,85.973c-.321-.185-.582-.054-.582.295a1.248,1.248,0,0,0,.582.966l5.387,3.114c.321.185.582.054.582-.295a1.248,1.248,0,0,0-.582-.966" transform="translate(-28.236 -21.159)" fill="#27debf"/>
        <g id="Grupo_1026407" data-name="Grupo 1026407" transform="translate(86.379 64.73)" opacity="0.6">
          <g id="Grupo_1026406" data-name="Grupo 1026406">
            <g id="Grupo_1026405" data-name="Grupo 1026405" clip-path="url(#clip-path-9)">
              <path id="Trazado_767929" data-name="Trazado 767929" d="M120.584,89.087,115.2,85.973c-.321-.185-.582-.054-.582.295a1.248,1.248,0,0,0,.582.966l5.387,3.114c.321.185.582.054.582-.295a1.248,1.248,0,0,0-.582-.966" transform="translate(-114.615 -85.889)" fill="#fff"/>
            </g>
          </g>
        </g>
        <path id="Trazado_767930" data-name="Trazado 767930" d="M120.584,95.778,115.2,92.664c-.321-.185-.582-.054-.582.295a1.248,1.248,0,0,0,.582.966l5.387,3.114c.321.185.582.054.582-.295a1.248,1.248,0,0,0-.582-.966" transform="translate(-28.236 -22.808)" fill="#27debf"/>
        <g id="Grupo_1026410" data-name="Grupo 1026410" transform="translate(86.379 69.772)" opacity="0.6">
          <g id="Grupo_1026409" data-name="Grupo 1026409">
            <g id="Grupo_1026408" data-name="Grupo 1026408" clip-path="url(#clip-path-9)">
              <path id="Trazado_767931" data-name="Trazado 767931" d="M120.584,95.778,115.2,92.664c-.321-.185-.582-.054-.582.295a1.248,1.248,0,0,0,.582.966l5.387,3.114c.321.185.582.054.582-.295a1.248,1.248,0,0,0-.582-.966" transform="translate(-114.615 -92.58)" fill="#fff"/>
            </g>
          </g>
        </g>
        <path id="Trazado_767932" data-name="Trazado 767932" d="M120.584,102.469,115.2,99.355c-.321-.185-.582-.054-.582.295a1.248,1.248,0,0,0,.582.966l5.387,3.114c.321.185.582.054.582-.295a1.248,1.248,0,0,0-.582-.966" transform="translate(-28.236 -24.456)" fill="#27debf"/>
        <g id="Grupo_1026413" data-name="Grupo 1026413" transform="translate(86.379 74.815)" opacity="0.6">
          <g id="Grupo_1026412" data-name="Grupo 1026412">
            <g id="Grupo_1026411" data-name="Grupo 1026411" clip-path="url(#clip-path-9)">
              <path id="Trazado_767933" data-name="Trazado 767933" d="M120.584,102.469,115.2,99.355c-.321-.185-.582-.054-.582.295a1.248,1.248,0,0,0,.582.966l5.387,3.114c.321.185.582.054.582-.295a1.248,1.248,0,0,0-.582-.966" transform="translate(-114.615 -99.271)" fill="#fff"/>
            </g>
          </g>
        </g>
        <path id="Trazado_767934" data-name="Trazado 767934" d="M120.584,109.16l-5.387-3.114c-.321-.185-.582-.054-.582.295a1.248,1.248,0,0,0,.582.966l5.387,3.114c.321.185.582.054.582-.295a1.248,1.248,0,0,0-.582-.966" transform="translate(-28.236 -26.104)" fill="#27debf"/>
        <g id="Grupo_1026416" data-name="Grupo 1026416" transform="translate(86.379 79.857)" opacity="0.6">
          <g id="Grupo_1026415" data-name="Grupo 1026415">
            <g id="Grupo_1026414" data-name="Grupo 1026414" clip-path="url(#clip-path-12)">
              <path id="Trazado_767935" data-name="Trazado 767935" d="M120.584,109.16l-5.387-3.114c-.321-.185-.582-.054-.582.295a1.248,1.248,0,0,0,.582.966l5.387,3.114c.321.185.582.054.582-.295a1.248,1.248,0,0,0-.582-.966" transform="translate(-114.615 -105.961)" fill="#fff"/>
            </g>
          </g>
        </g>
        <path id="Trazado_767936" data-name="Trazado 767936" d="M102.968,146.062l-23.82-13.746c-.321-.185-.582-.054-.582.294a1.251,1.251,0,0,0,.582.967l23.82,13.746c.321.185.582.054.582-.295a1.248,1.248,0,0,0-.582-.966" transform="translate(-19.356 -32.576)" fill="#f4a338"/>
        <path id="Trazado_767937" data-name="Trazado 767937" d="M102.968,152.754l-23.82-13.746c-.321-.185-.582-.054-.582.294a1.251,1.251,0,0,0,.582.967l23.82,13.746c.321.185.582.053.582-.295a1.248,1.248,0,0,0-.582-.966" transform="translate(-19.356 -34.225)" fill="#f4a338"/>
        <path id="Trazado_767938" data-name="Trazado 767938" d="M69.659,126.841l-14.965-8.61c-.321-.185-.582-.053-.582.3a1.249,1.249,0,0,0,.582.966L69.659,128.1c.321.186.582.054.582-.294a1.248,1.248,0,0,0-.582-.966" transform="translate(-13.331 -29.106)" fill="#f4a338"/>
        <path id="Trazado_767939" data-name="Trazado 767939" d="M69.659,133.532l-14.965-8.61c-.321-.186-.582-.054-.582.294a1.251,1.251,0,0,0,.582.967l14.965,8.61c.321.185.582.053.582-.295a1.248,1.248,0,0,0-.582-.966" transform="translate(-13.331 -30.755)" fill="#f4a338"/>
        <path id="Trazado_767940" data-name="Trazado 767940" d="M120.584,156.232l-5.387-3.114c-.321-.185-.582-.053-.582.295a1.248,1.248,0,0,0,.582.966l5.387,3.114c.321.185.582.054.582-.295a1.248,1.248,0,0,0-.582-.966" transform="translate(-28.236 -37.701)" fill="#27debf"/>
        <g id="Grupo_1026419" data-name="Grupo 1026419" transform="translate(86.379 115.332)" opacity="0.6">
          <g id="Grupo_1026418" data-name="Grupo 1026418">
            <g id="Grupo_1026417" data-name="Grupo 1026417" clip-path="url(#clip-path-12)">
              <path id="Trazado_767941" data-name="Trazado 767941" d="M120.584,156.232l-5.387-3.114c-.321-.185-.582-.053-.582.295a1.248,1.248,0,0,0,.582.966l5.387,3.114c.321.185.582.054.582-.295a1.248,1.248,0,0,0-.582-.966" transform="translate(-114.615 -153.033)" fill="#fff"/>
            </g>
          </g>
        </g>
        <path id="Trazado_767942" data-name="Trazado 767942" d="M120.584,162.923l-5.387-3.114c-.321-.185-.582-.053-.582.295a1.248,1.248,0,0,0,.582.966l5.387,3.114c.321.185.582.054.582-.295a1.248,1.248,0,0,0-.582-.966" transform="translate(-28.236 -39.349)" fill="#27debf"/>
        <g id="Grupo_1026422" data-name="Grupo 1026422" transform="translate(86.379 120.375)" opacity="0.6">
          <g id="Grupo_1026421" data-name="Grupo 1026421">
            <g id="Grupo_1026420" data-name="Grupo 1026420" clip-path="url(#clip-path-12)">
              <path id="Trazado_767943" data-name="Trazado 767943" d="M120.584,162.923l-5.387-3.114c-.321-.185-.582-.053-.582.295a1.248,1.248,0,0,0,.582.966l5.387,3.114c.321.185.582.054.582-.295a1.248,1.248,0,0,0-.582-.966" transform="translate(-114.615 -159.724)" fill="#fff"/>
            </g>
          </g>
        </g>
        <path id="Trazado_767944" data-name="Trazado 767944" d="M81.709,59.96l-6.9-3.974c-.322-.185-.582-.054-.582.295a1.246,1.246,0,0,0,.582.966l6.9,3.974c.321.185.582.054.582-.295a1.248,1.248,0,0,0-.582-.966" transform="translate(-18.285 -13.772)" fill="#27debf"/>
        <g id="Grupo_1026425" data-name="Grupo 1026425" transform="translate(55.937 42.13)" opacity="0.6">
          <g id="Grupo_1026424" data-name="Grupo 1026424">
            <g id="Grupo_1026423" data-name="Grupo 1026423" clip-path="url(#clip-path-15)">
              <path id="Trazado_767945" data-name="Trazado 767945" d="M81.709,59.96l-6.9-3.974c-.322-.185-.582-.054-.582.295a1.246,1.246,0,0,0,.582.966l6.9,3.974c.321.185.582.054.582-.295a1.248,1.248,0,0,0-.582-.966" transform="translate(-74.222 -55.902)" fill="#fff"/>
            </g>
          </g>
        </g>
        <path id="Trazado_767946" data-name="Trazado 767946" d="M100.307,104.1,66.677,84.709c-.321-.185-.582-.054-.582.294a1.248,1.248,0,0,0,.582.967l33.631,19.389c.321.185.582.054.582-.295a1.248,1.248,0,0,0-.582-.966" transform="translate(-16.283 -20.848)" fill="#f4a338"/>
        <path id="Trazado_767947" data-name="Trazado 767947" d="M105.636,113.993,54.522,84.408c-.322-.185-.583-.054-.583.295a1.247,1.247,0,0,0,.583.966l51.114,29.586c.321.185.582.054.582-.295a1.248,1.248,0,0,0-.582-.966" transform="translate(-13.288 -20.774)" fill="#f4a338"/>
        <path id="Trazado_767948" data-name="Trazado 767948" d="M61.427,81.681l-6.9-3.974c-.321-.185-.582-.054-.582.295a1.248,1.248,0,0,0,.582.966l6.9,3.974c.321.185.582.054.582-.295a1.246,1.246,0,0,0-.582-.966" transform="translate(-13.289 -19.123)" fill="#f4a338"/>
        <path id="Trazado_767949" data-name="Trazado 767949" d="M102.037,78.378l-26.668-15.4c-.321-.185-.582-.054-.582.294a1.251,1.251,0,0,0,.582.967l26.668,15.4c.321.185.582.054.582-.295a1.248,1.248,0,0,0-.582-.966" transform="translate(-18.424 -15.494)" fill="#27debf"/>
        <g id="Grupo_1026428" data-name="Grupo 1026428" transform="translate(56.363 47.397)" opacity="0.6">
          <g id="Grupo_1026427" data-name="Grupo 1026427">
            <g id="Grupo_1026426" data-name="Grupo 1026426" clip-path="url(#clip-path-16)">
              <path id="Trazado_767950" data-name="Trazado 767950" d="M102.037,78.378l-26.668-15.4c-.321-.185-.582-.054-.582.294a1.251,1.251,0,0,0,.582.967l26.668,15.4c.321.185.582.054.582-.295a1.248,1.248,0,0,0-.582-.966" transform="translate(-74.787 -62.89)" fill="#fff"/>
            </g>
          </g>
        </g>
        <path id="Trazado_767951" data-name="Trazado 767951" d="M70.12,59.947l-6.9-3.973c-.322-.185-.582-.054-.582.294a1.244,1.244,0,0,0,.582.966l6.9,3.975c.321.185.582.054.582-.3a1.25,1.25,0,0,0-.582-.966" transform="translate(-15.43 -13.769)" fill="#27debf"/>
        <g id="Grupo_1026431" data-name="Grupo 1026431" transform="translate(47.202 42.12)" opacity="0.6">
          <g id="Grupo_1026430" data-name="Grupo 1026430">
            <g id="Grupo_1026429" data-name="Grupo 1026429" clip-path="url(#clip-path-17)">
              <path id="Trazado_767952" data-name="Trazado 767952" d="M70.12,59.947l-6.9-3.973c-.322-.185-.582-.054-.582.294a1.244,1.244,0,0,0,.582.966l6.9,3.975c.321.185.582.054.582-.3a1.25,1.25,0,0,0-.582-.966" transform="translate(-62.633 -55.889)" fill="#fff"/>
            </g>
          </g>
        </g>
      </g>
    </g>
    <g id="Grupo_1026441" data-name="Grupo 1026441">
      <g id="Grupo_1026440" data-name="Grupo 1026440" clip-path="url(#clip-path)">
        <path id="Trazado_767953" data-name="Trazado 767953" d="M3.293,33.663l13.2,7.634a1.041,1.041,0,0,1,.471.815V58.241a1.027,1.027,0,0,1-.473.811l-1.874,1.066a1.056,1.056,0,0,1-.945-.005L.472,52.478A1.039,1.039,0,0,1,0,51.663V35.535a1.028,1.028,0,0,1,.473-.811l1.874-1.066a1.054,1.054,0,0,1,.944,0" transform="translate(0 -8.265)" fill="#f0dcc0"/>
        <path id="Trazado_767954" data-name="Trazado 767954" d="M18.135,62.754a1.08,1.08,0,0,0,.946.005l1.873-1.067a1.024,1.024,0,0,0,.474-.809V44.754a.972.972,0,0,0-.15-.481l-2.81,1.617c.087.146.139.314.139.058V62.076c0,.681-.194.839-.471.678" transform="translate(-4.468 -10.907)" fill="#f0dcc0"/>
        <path id="Trazado_767956" data-name="Trazado 767956" d="M22.872,58.572c.3-.176,2.552-1.448,2.623-1.488a.44.44,0,0,0,.093-.673l-4.008-4.595L18.76,53.434l4.192,4.478a.444.444,0,0,1-.08.66" transform="translate(-4.622 -12.765)" fill="#e8e8e8"/>
        <path id="Trazado_767958" data-name="Trazado 767958" d="M.471,35.8l13.2,7.634a1.041,1.041,0,0,1,.471.816v5.223l4.193,4.476a.423.423,0,0,1-.27.723l-3.923-.287v5.993c0,.3-.211.423-.471.272L.471,53.017A1.041,1.041,0,0,1,0,52.2V36.074c0-.3.211-.422.471-.272" transform="translate(0 -8.804)" fill="#e6b046"/>
        <path id="Trazado_767959" data-name="Trazado 767959" d="M3.962,51.926,6.646,49.9,3.853,44.562a1.014,1.014,0,1,1,1.8-.941l2.636,5.036L10.7,46.833a1.014,1.014,0,1,1,1.223,1.618L9.239,50.479l2.674,5.109a1.014,1.014,0,1,1-1.8.941L7.6,51.718,5.186,53.543a1.014,1.014,0,1,1-1.223-1.617" transform="translate(-0.877 -10.612)" fill="#fafafa"/>
        <path id="Trazado_767960" data-name="Trazado 767960" d="M18.135,29.207a1.08,1.08,0,0,0,.946.005l1.873-1.067c.261-.145.474-.509.474-.4V11.612a1.559,1.559,0,0,0-.15-.886l-2.81,1.618a1.561,1.561,0,0,1,.139.869V29.339c0-.13-.194.028-.471-.133" transform="translate(-4.468 -2.642)" fill="#340b81"/>
        <path id="Trazado_767961" data-name="Trazado 767961" d="M.008,1.9c.037-.237.231-.322.466-.187L13.668,9.349A.962.962,0,0,1,14,9.7l2.813-1.617a.931.931,0,0,0-.324-.335L3.293.114a1.054,1.054,0,0,0-.944,0L.476,1.175A1.038,1.038,0,0,0,.008,1.9" transform="translate(-0.002 0)" fill="#ae9dcc"/>
        <path id="Trazado_767962" data-name="Trazado 767962" d="M22.872,25.025c.3-.176,2.552-1.448,2.623-1.488a.44.44,0,0,0,.093-.673l-4.008-4.595L18.76,19.887l4.192,4.478a.444.444,0,0,1-.08.66" transform="translate(-4.622 -4.501)" fill="#ae9dcc"/>
        <path id="Trazado_767963" data-name="Trazado 767963" d="M.471,2.255l13.2,7.634a1.041,1.041,0,0,1,.471.816v5.223L18.332,20.4a.422.422,0,0,1-.27.722l-3.923-.286v5.993c0,.3-.211.422-.471.272L.471,19.47A1.041,1.041,0,0,1,0,18.654V2.527c0-.3.211-.422.471-.272" transform="translate(0 -0.54)" fill="#d6cee6"/>
        <path id="Trazado_767964" data-name="Trazado 767964" d="M2.979,15.587a.276.276,0,0,0,.184.106.209.209,0,0,0,.037,0,.278.278,0,0,0,.275-.241l.244-1.818.6.482c.008.007.017.011.025.017a7,7,0,0,0-.053,1.152,9.4,9.4,0,0,0,.334,2.169l-.972.16a.276.276,0,0,0-.2.134.28.28,0,0,0-.021.235l1.005,2.757a.278.278,0,0,0,.522-.191l-.89-2.441L4.752,18l.034-.009A7.411,7.411,0,0,0,7.712,22.12l.006,0,.017.01a2.427,2.427,0,0,0,1.148.314,1.772,1.772,0,0,0,.947-.268,2.347,2.347,0,0,0,.828-.933l.659.8-.786,1.592a.279.279,0,0,0,.127.372.278.278,0,0,0,.372-.126l.865-1.754a.278.278,0,0,0-.036-.3l-.9-1.085a.3.3,0,0,0-.07-.06,6.053,6.053,0,0,0,.247-2.032,8.961,8.961,0,0,0-.09-1.009l.612.161.436,2.547a.275.275,0,0,0,.273.231.336.336,0,0,0,.047,0,.279.279,0,0,0,.228-.321l-.466-2.724a.282.282,0,0,0-.2-.222l-.966-.254a.291.291,0,0,0-.063-.008,10.34,10.34,0,0,0-.644-2.031l.352-.542.418-1.308a.279.279,0,0,0-.179-.35.276.276,0,0,0-.085-.014.279.279,0,0,0-.266.193l-.4,1.236-.125.194A7.384,7.384,0,0,0,8.6,12.472L9,10.986a.278.278,0,0,0-.2-.341.256.256,0,0,0-.072-.01.278.278,0,0,0-.268.2l-.335,1.239a3.873,3.873,0,0,0-.432-.274,2.765,2.765,0,0,0-.617-.244l-.523-2.03a.279.279,0,0,0-.269-.209.319.319,0,0,0-.07.009.281.281,0,0,0-.2.339l.471,1.822a1.763,1.763,0,0,0-.886.265,1.948,1.948,0,0,0-.263.2l-.295-.7L4.54,9.5a.281.281,0,0,0-.268-.2.265.265,0,0,0-.076.011A.278.278,0,0,0,4,9.65l.519,1.808.4.948,0,0v0l0,.009a3.559,3.559,0,0,0-.47,1.1l-.777-.626a.276.276,0,0,0-.174-.062.285.285,0,0,0-.1.02.28.28,0,0,0-.173.222l-.31,2.307a.277.277,0,0,0,.055.206m6.667-.653a1.232,1.232,0,0,1-.864.334,2.114,2.114,0,0,1-.99-.283A5.8,5.8,0,0,1,5.58,12.491a1.5,1.5,0,0,1,.311-.261,1.226,1.226,0,0,1,.656-.185,1.879,1.879,0,0,1,.883.249,5.828,5.828,0,0,1,2.216,2.639m-.109,6.774a1.226,1.226,0,0,1-.656.185,1.784,1.784,0,0,1-.742-.179l-.187-6.047a2.42,2.42,0,0,0,.843.162,1.744,1.744,0,0,0,1.088-.363,9.482,9.482,0,0,1,.7,3.2c.046,1.47-.346,2.608-1.045,3.041M4.846,15.272A4.935,4.935,0,0,1,5.23,13.02a6.224,6.224,0,0,0,2.158,2.374l.185,5.973a8.576,8.576,0,0,1-2.727-6.1" transform="translate(-0.72 -2.29)" fill="#12263f"/>
      </g>
    </g>
  </g>
</svg>
