<svg xmlns="http://www.w3.org/2000/svg" xmlns:xlink="http://www.w3.org/1999/xlink" width="136.934" height="135.983" viewBox="0 0 136.934 135.983">
  <defs>
    <clipPath id="clip-path">
      <rect id="Rectángulo_360961" data-name="Rectángulo 360961" width="63.602" height="63.552" fill="none"/>
    </clipPath>
  </defs>
  <g id="Grupo_1136599" data-name="Grupo 1136599" transform="translate(-263 -595.534)">
    <g id="Grupo_156356" data-name="Grupo 156356" transform="translate(263 650.743)">
      <g id="Grupo_156332" data-name="Grupo 156332" transform="translate(0 0)">
        <path id="Trazado_99257" data-name="Trazado 99257" d="M419.306,105.213a2.549,2.549,0,1,1-2.548-2.434A2.492,2.492,0,0,1,419.306,105.213Z" transform="translate(-414.214 -102.779)" fill="#12263f"/>
        <path id="Trazado_116526" data-name="Trazado 116526" d="M419.306,105.213a2.549,2.549,0,1,1-2.548-2.434A2.492,2.492,0,0,1,419.306,105.213Z" transform="translate(-356.555 -102.779)" fill="#12263f"/>
        <path id="Trazado_99258" data-name="Trazado 99258" d="M427.752,105.213a2.549,2.549,0,1,1-2.545-2.434A2.492,2.492,0,0,1,427.752,105.213Z" transform="translate(-411.129 -102.779)" fill="#12263f"/>
        <path id="Trazado_116527" data-name="Trazado 116527" d="M427.752,105.213a2.549,2.549,0,1,1-2.545-2.434A2.492,2.492,0,0,1,427.752,105.213Z" transform="translate(-353.469 -102.779)" fill="#12263f"/>
        <path id="Trazado_99259" data-name="Trazado 99259" d="M436.2,105.213a2.549,2.549,0,1,1-2.545-2.434A2.492,2.492,0,0,1,436.2,105.213Z" transform="translate(-408.043 -102.779)" fill="#12263f"/>
        <path id="Trazado_116531" data-name="Trazado 116531" d="M436.2,105.213a2.549,2.549,0,1,1-2.545-2.434A2.492,2.492,0,0,1,436.2,105.213Z" transform="translate(-350.384 -102.779)" fill="#12263f"/>
        <path id="Trazado_99260" data-name="Trazado 99260" d="M444.645,105.213a2.549,2.549,0,1,1-2.547-2.434A2.492,2.492,0,0,1,444.645,105.213Z" transform="translate(-404.958 -102.779)" fill="#12263f"/>
        <path id="Trazado_116532" data-name="Trazado 116532" d="M444.645,105.213a2.549,2.549,0,1,1-2.547-2.434A2.492,2.492,0,0,1,444.645,105.213Z" transform="translate(-347.298 -102.779)" fill="#12263f"/>
        <path id="Trazado_99261" data-name="Trazado 99261" d="M453.091,105.213a2.549,2.549,0,1,1-2.545-2.434A2.492,2.492,0,0,1,453.091,105.213Z" transform="translate(-401.872 -102.779)" fill="#12263f"/>
      </g>
      <g id="Grupo_156331" data-name="Grupo 156331" transform="translate(0 12.649)">
        <ellipse id="Elipse_3975" data-name="Elipse 3975" cx="2.546" cy="2.435" rx="2.546" ry="2.435" transform="translate(0 0.001)" fill="#12263f"/>
        <ellipse id="Elipse_4742" data-name="Elipse 4742" cx="2.546" cy="2.435" rx="2.546" ry="2.435" transform="translate(57.659 0.001)" fill="#12263f"/>
        <path id="Trazado_99268" data-name="Trazado 99268" d="M427.752,112.721a2.549,2.549,0,1,1-2.545-2.434A2.493,2.493,0,0,1,427.752,112.721Z" transform="translate(-411.129 -110.287)" fill="#12263f"/>
        <path id="Trazado_116528" data-name="Trazado 116528" d="M427.752,112.721a2.549,2.549,0,1,1-2.545-2.434A2.493,2.493,0,0,1,427.752,112.721Z" transform="translate(-353.469 -110.287)" fill="#12263f"/>
        <ellipse id="Elipse_3976" data-name="Elipse 3976" cx="2.546" cy="2.435" rx="2.546" ry="2.435" transform="translate(23.064 0.001)" fill="#12263f"/>
        <ellipse id="Elipse_4743" data-name="Elipse 4743" cx="2.546" cy="2.435" rx="2.546" ry="2.435" transform="translate(80.723 0.001)" fill="#12263f"/>
        <path id="Trazado_99269" data-name="Trazado 99269" d="M444.645,112.721a2.549,2.549,0,1,1-2.547-2.434A2.494,2.494,0,0,1,444.645,112.721Z" transform="translate(-404.958 -110.287)" fill="#12263f"/>
        <path id="Trazado_116533" data-name="Trazado 116533" d="M444.645,112.721a2.549,2.549,0,1,1-2.547-2.434A2.494,2.494,0,0,1,444.645,112.721Z" transform="translate(-347.298 -110.287)" fill="#12263f"/>
        <path id="Trazado_99270" data-name="Trazado 99270" d="M453.091,112.721a2.549,2.549,0,1,1-2.545-2.434A2.493,2.493,0,0,1,453.091,112.721Z" transform="translate(-401.872 -110.287)" fill="#12263f"/>
      </g>
      <g id="Grupo_156330" data-name="Grupo 156330" transform="translate(0 25.3)">
        <path id="Trazado_99274" data-name="Trazado 99274" d="M419.306,120.23a2.549,2.549,0,1,1-2.548-2.436A2.494,2.494,0,0,1,419.306,120.23Z" transform="translate(-414.214 -117.794)" fill="#12263f"/>
        <path id="Trazado_116529" data-name="Trazado 116529" d="M419.306,120.23a2.549,2.549,0,1,1-2.548-2.436A2.494,2.494,0,0,1,419.306,120.23Z" transform="translate(-356.555 -117.794)" fill="#12263f"/>
        <path id="Trazado_99275" data-name="Trazado 99275" d="M427.752,120.23a2.549,2.549,0,1,1-2.545-2.436A2.493,2.493,0,0,1,427.752,120.23Z" transform="translate(-411.129 -117.794)" fill="#12263f"/>
        <path id="Trazado_116530" data-name="Trazado 116530" d="M427.752,120.23a2.549,2.549,0,1,1-2.545-2.436A2.493,2.493,0,0,1,427.752,120.23Z" transform="translate(-353.469 -117.794)" fill="#12263f"/>
        <path id="Trazado_99276" data-name="Trazado 99276" d="M436.2,120.23a2.549,2.549,0,1,1-2.545-2.436A2.493,2.493,0,0,1,436.2,120.23Z" transform="translate(-408.043 -117.794)" fill="#12263f"/>
        <path id="Trazado_116534" data-name="Trazado 116534" d="M436.2,120.23a2.549,2.549,0,1,1-2.545-2.436A2.493,2.493,0,0,1,436.2,120.23Z" transform="translate(-350.384 -117.794)" fill="#12263f"/>
        <path id="Trazado_99277" data-name="Trazado 99277" d="M444.645,120.23a2.549,2.549,0,1,1-2.547-2.436A2.494,2.494,0,0,1,444.645,120.23Z" transform="translate(-404.958 -117.794)" fill="#12263f"/>
        <path id="Trazado_116535" data-name="Trazado 116535" d="M444.645,120.23a2.549,2.549,0,1,1-2.547-2.436A2.494,2.494,0,0,1,444.645,120.23Z" transform="translate(-347.298 -117.794)" fill="#12263f"/>
        <path id="Trazado_99278" data-name="Trazado 99278" d="M453.091,120.23a2.549,2.549,0,1,1-2.545-2.436A2.493,2.493,0,0,1,453.091,120.23Z" transform="translate(-401.872 -117.794)" fill="#12263f"/>
      </g>
      <g id="Grupo_156327" data-name="Grupo 156327" transform="translate(0 63.252)">
        <path id="Trazado_116550" data-name="Trazado 116550" d="M419.306,120.23a2.549,2.549,0,1,1-2.548-2.436A2.494,2.494,0,0,1,419.306,120.23Z" transform="translate(-414.214 -117.794)" fill="#12263f"/>
        <path id="Trazado_116551" data-name="Trazado 116551" d="M419.306,120.23a2.549,2.549,0,1,1-2.548-2.436A2.494,2.494,0,0,1,419.306,120.23Z" transform="translate(-356.555 -117.794)" fill="#12263f"/>
        <path id="Trazado_116552" data-name="Trazado 116552" d="M427.752,120.23a2.549,2.549,0,1,1-2.545-2.436A2.493,2.493,0,0,1,427.752,120.23Z" transform="translate(-411.129 -117.794)" fill="#12263f"/>
        <path id="Trazado_116553" data-name="Trazado 116553" d="M427.752,120.23a2.549,2.549,0,1,1-2.545-2.436A2.493,2.493,0,0,1,427.752,120.23Z" transform="translate(-353.469 -117.794)" fill="#12263f"/>
        <path id="Trazado_116554" data-name="Trazado 116554" d="M436.2,120.23a2.549,2.549,0,1,1-2.545-2.436A2.493,2.493,0,0,1,436.2,120.23Z" transform="translate(-408.043 -117.794)" fill="#12263f"/>
        <path id="Trazado_116555" data-name="Trazado 116555" d="M436.2,120.23a2.549,2.549,0,1,1-2.545-2.436A2.493,2.493,0,0,1,436.2,120.23Z" transform="translate(-350.384 -117.794)" fill="#12263f"/>
        <path id="Trazado_116556" data-name="Trazado 116556" d="M444.645,120.23a2.549,2.549,0,1,1-2.547-2.436A2.494,2.494,0,0,1,444.645,120.23Z" transform="translate(-404.958 -117.794)" fill="#12263f"/>
        <path id="Trazado_116557" data-name="Trazado 116557" d="M444.645,120.23a2.549,2.549,0,1,1-2.547-2.436A2.494,2.494,0,0,1,444.645,120.23Z" transform="translate(-347.298 -117.794)" fill="#12263f"/>
        <path id="Trazado_116558" data-name="Trazado 116558" d="M453.091,120.23a2.549,2.549,0,1,1-2.545-2.436A2.493,2.493,0,0,1,453.091,120.23Z" transform="translate(-401.872 -117.794)" fill="#12263f"/>
      </g>
      <g id="Grupo_156329" data-name="Grupo 156329" transform="translate(0 37.951)">
        <ellipse id="Elipse_3980" data-name="Elipse 3980" cx="2.546" cy="2.435" rx="2.546" ry="2.435" transform="translate(0 0.002)" fill="#12263f"/>
        <ellipse id="Elipse_4744" data-name="Elipse 4744" cx="2.546" cy="2.435" rx="2.546" ry="2.435" transform="translate(57.659 0.002)" fill="#12263f"/>
        <path id="Trazado_99285" data-name="Trazado 99285" d="M427.752,127.738a2.549,2.549,0,1,1-2.545-2.436A2.491,2.491,0,0,1,427.752,127.738Z" transform="translate(-411.129 -125.302)" fill="#12263f"/>
        <path id="Trazado_116536" data-name="Trazado 116536" d="M427.752,127.738a2.549,2.549,0,1,1-2.545-2.436A2.491,2.491,0,0,1,427.752,127.738Z" transform="translate(-353.469 -125.302)" fill="#12263f"/>
        <ellipse id="Elipse_3981" data-name="Elipse 3981" cx="2.546" cy="2.435" rx="2.546" ry="2.435" transform="translate(23.064 0.002)" fill="#12263f"/>
        <ellipse id="Elipse_4745" data-name="Elipse 4745" cx="2.546" cy="2.435" rx="2.546" ry="2.435" transform="translate(80.723 0.002)" fill="#12263f"/>
        <path id="Trazado_99286" data-name="Trazado 99286" d="M444.645,127.738A2.549,2.549,0,1,1,442.1,125.3,2.492,2.492,0,0,1,444.645,127.738Z" transform="translate(-404.958 -125.302)" fill="#12263f"/>
        <path id="Trazado_116537" data-name="Trazado 116537" d="M444.645,127.738A2.549,2.549,0,1,1,442.1,125.3,2.492,2.492,0,0,1,444.645,127.738Z" transform="translate(-347.298 -125.302)" fill="#12263f"/>
        <path id="Trazado_99287" data-name="Trazado 99287" d="M453.091,127.738a2.549,2.549,0,1,1-2.545-2.436A2.491,2.491,0,0,1,453.091,127.738Z" transform="translate(-401.872 -125.302)" fill="#12263f"/>
      </g>
      <g id="Grupo_156326" data-name="Grupo 156326" transform="translate(0 75.904)">
        <ellipse id="Elipse_4754" data-name="Elipse 4754" cx="2.546" cy="2.435" rx="2.546" ry="2.435" transform="translate(0 0.001)" fill="#12263f"/>
        <ellipse id="Elipse_4750" data-name="Elipse 4750" cx="2.546" cy="2.435" rx="2.546" ry="2.435" transform="translate(57.659 0.001)" fill="#12263f"/>
        <path id="Trazado_116548" data-name="Trazado 116548" d="M427.752,127.738a2.549,2.549,0,1,1-2.545-2.436A2.491,2.491,0,0,1,427.752,127.738Z" transform="translate(-411.129 -125.302)" fill="#12263f"/>
        <path id="Trazado_116542" data-name="Trazado 116542" d="M427.752,127.738a2.549,2.549,0,1,1-2.545-2.436A2.491,2.491,0,0,1,427.752,127.738Z" transform="translate(-353.469 -125.302)" fill="#12263f"/>
        <ellipse id="Elipse_4751" data-name="Elipse 4751" cx="2.546" cy="2.435" rx="2.546" ry="2.435" transform="translate(23.064 0.001)" fill="#12263f"/>
        <ellipse id="Elipse_4752" data-name="Elipse 4752" cx="2.546" cy="2.435" rx="2.546" ry="2.435" transform="translate(80.723 0.001)" fill="#12263f"/>
        <path id="Trazado_116543" data-name="Trazado 116543" d="M444.645,127.738A2.549,2.549,0,1,1,442.1,125.3,2.492,2.492,0,0,1,444.645,127.738Z" transform="translate(-404.958 -125.302)" fill="#12263f"/>
        <path id="Trazado_116544" data-name="Trazado 116544" d="M444.645,127.738A2.549,2.549,0,1,1,442.1,125.3,2.492,2.492,0,0,1,444.645,127.738Z" transform="translate(-347.298 -125.302)" fill="#12263f"/>
        <path id="Trazado_116545" data-name="Trazado 116545" d="M453.091,127.738a2.549,2.549,0,1,1-2.545-2.436A2.491,2.491,0,0,1,453.091,127.738Z" transform="translate(-401.872 -125.302)" fill="#12263f"/>
      </g>
      <g id="Grupo_156328" data-name="Grupo 156328" transform="translate(0 50.602)">
        <ellipse id="Elipse_3985" data-name="Elipse 3985" cx="2.546" cy="2.435" rx="2.546" ry="2.435" transform="translate(0 0.001)" fill="#12263f"/>
        <ellipse id="Elipse_4746" data-name="Elipse 4746" cx="2.546" cy="2.435" rx="2.546" ry="2.435" transform="translate(57.659 0.001)" fill="#12263f"/>
        <path id="Trazado_99291" data-name="Trazado 99291" d="M427.752,135.246a2.549,2.549,0,1,1-2.545-2.436A2.491,2.491,0,0,1,427.752,135.246Z" transform="translate(-411.129 -132.81)" fill="#12263f"/>
        <path id="Trazado_116538" data-name="Trazado 116538" d="M427.752,135.246a2.549,2.549,0,1,1-2.545-2.436A2.491,2.491,0,0,1,427.752,135.246Z" transform="translate(-353.469 -132.81)" fill="#12263f"/>
        <ellipse id="Elipse_3986" data-name="Elipse 3986" cx="2.546" cy="2.435" rx="2.546" ry="2.435" transform="translate(23.064 0.001)" fill="#12263f"/>
        <ellipse id="Elipse_4747" data-name="Elipse 4747" cx="2.546" cy="2.435" rx="2.546" ry="2.435" transform="translate(80.723 0.001)" fill="#12263f"/>
        <path id="Trazado_99292" data-name="Trazado 99292" d="M444.645,135.246a2.549,2.549,0,1,1-2.547-2.436A2.492,2.492,0,0,1,444.645,135.246Z" transform="translate(-404.958 -132.81)" fill="#12263f"/>
        <path id="Trazado_116539" data-name="Trazado 116539" d="M444.645,135.246a2.549,2.549,0,1,1-2.547-2.436A2.492,2.492,0,0,1,444.645,135.246Z" transform="translate(-347.298 -132.81)" fill="#12263f"/>
        <path id="Trazado_99293" data-name="Trazado 99293" d="M453.091,135.246a2.549,2.549,0,1,1-2.545-2.436A2.491,2.491,0,0,1,453.091,135.246Z" transform="translate(-401.872 -132.81)" fill="#12263f"/>
      </g>
    </g>
    <g id="Grupo_1015138" data-name="Grupo 1015138" transform="translate(277.562 595.534)">
      <circle id="Elipse_8447" data-name="Elipse 8447" cx="61.186" cy="61.186" r="61.186" transform="translate(0 0)" fill="#340b81"/>
      <circle id="Elipse_8448" data-name="Elipse 8448" cx="51.264" cy="51.264" r="51.264" transform="translate(9.922 9.922)" fill="#fff"/>
      <g id="Grupo_1024808" data-name="Grupo 1024808" transform="translate(27.221 26.142)">
        <g id="Grupo_1024807" data-name="Grupo 1024807" clip-path="url(#clip-path)">
          <path id="Trazado_764773" data-name="Trazado 764773" d="M57.646,18.236a5.971,5.971,0,0,1-1.991.673c-.123-.012-.25-.058-.37.055a1,1,0,0,0,.182.049A1.037,1.037,0,0,0,55.655,19l4.437.024a1.218,1.218,0,0,1,1.392,1.4c0,3.092.006,6.183-.006,9.275a1.1,1.1,0,0,0,.337.866c1.033,1.036.987,1.407-.219,2.232-.1.07-.182.11-.172.29.044.766.058,1.535.058,2.3q.006,10.567-.012,21.134c0,.557.135.7.682.673,1.048-.045,1.462.4,1.449,1.462a13.1,13.1,0,0,1-.118,2.421,3.369,3.369,0,0,1-3.014,2.474q-28.885-.029-57.77-.02A3.345,3.345,0,0,1,.01,60.889C0,60.05,0,59.21.006,58.371s.354-1.177,1.2-1.19c.916-.014.916-.014.916-.94V20.6c0-1.343.23-1.578,1.545-1.578,3.18,0,6.36-.009,9.54.011.446,0,.6-.08.589-.563-.023-1.567,0-1.567-1.561-1.567q-4.936,0-9.871,0c-.979,0-1.274-.316-1.3-1.291a7.148,7.148,0,0,1,4.5-6.541c.227.236.351.167.4-.133l.4-.228c.022.109.047.22.189.221.179,0,.194-.136.208-.269a7.186,7.186,0,0,1,1.565-.238q13.944,0,27.888.008A6.22,6.22,0,0,1,40.4,9.618c.021.073.052.133.146.106a.145.145,0,0,0,.115.028c.022.178.074.332.285.361.213.294.433.584.639.883a6.308,6.308,0,0,1,.8,3.461c.061,1.364.018,2.734.011,4.1,0,.29,0,.476.4.473,3.2-.02,6.392-.011,9.6-.044a9.594,9.594,0,0,1-3.377-1.41c-.012-.268.013-.594-.4-.265a7.529,7.529,0,0,1-2.795-3.055c.116-.072.185-.176.1-.3s-.165-.035-.227.049a7.385,7.385,0,0,1-1.051-2.664,3.593,3.593,0,0,1-.108-1.468c.16-.021.332-.063.319-.257s-.2-.121-.317-.141a5.485,5.485,0,0,1,.131-1.987c.186-.036.31-.094.1-.271.037-.224-.038-.478.171-.657.137-.014.309.03.348-.166.032-.16-.085-.21-.217-.231l.226-.4c.358-.063.295-.271.173-.5a9.538,9.538,0,0,1,3.572-3.942.971.971,0,0,1,.24-.073c.24.23.241.026.261-.144.041-.159.22-.071.3-.166.224.057.458.136.5-.223l-.007.007.15-.094.26-.041c.23.237.353.165.4-.137.417-.463,1.009-.286,1.509-.356A9.579,9.579,0,0,1,57.27.581,10.22,10.22,0,0,1,60,2.058c.028.071.057.139.155.111A8.586,8.586,0,0,1,62.3,4.835c-.23.233-.039.245.139.264A8.676,8.676,0,0,1,63.1,6.474c-.022.1-.074.207.1.2q.187,1.336.373,2.672c-.114.022-.3-.045-.3.133s.19.11.3.132a8.65,8.65,0,0,1-.754,3.451c-.174.023-.356.041-.134.264a.967.967,0,0,1-.254.534c-.17.022-.373.026-.139.263a8.037,8.037,0,0,1-3.591,3.585c-.222-.221-.243-.043-.266.133a.4.4,0,0,1-.4.264c-.222-.235-.348-.169-.4.128m.783-2.8a.393.393,0,0,0,.405-.264A17.639,17.639,0,0,0,60.01,13.85,7.421,7.421,0,0,0,55.428,2.214c-.181-.035-.323-.006-.3.211.036.317-.132.658.11.95.208.139.417.277.624.417A3.525,3.525,0,0,1,57.21,6.331c.165.9.109,1.04-.8,1.024-.412-.007-.916.171-1.207-.094-.184-.166-.047-.664-.093-1.008a1.176,1.176,0,0,0-1.169-1.006c-.616.033-.928.411-.939,1.144,0,.2.008.4,0,.6-.071,1.33.3,1.38,1.529,1.562a2.791,2.791,0,0,1,1.918,1.08,4.132,4.132,0,0,1,.672,3.378,3.121,3.121,0,0,1-1.6,2.436.234.234,0,0,0-.264.232.92.92,0,0,0-.044,1.039c.149.229.518-.014.787-.072a9.426,9.426,0,0,0,2.035-.936.269.269,0,0,0,.269-.133l.125-.133M9.274,10.7a3.665,3.665,0,0,0-1.783-.042,5.453,5.453,0,0,0-4.015,3.277c-.212.535,0,.842.516.842,2.512,0,5.023-.012,7.535-.019h2.1A5.023,5.023,0,0,0,9.274,10.7M44.393,21.164c-.543-.008-1.086,0-1.628-.029-.287-.014-.38.08-.366.367.026.542.021,1.085.029,1.628q0,2.846,0,5.693,0,2.189,0,4.377,0,2.715,0,5.431c-.007.706.012,1.413-.03,2.117-.026.433.106.548.54.544q3.178-.035,6.358,0c.433,0,.547-.111.542-.543-.023-2.1-.011-4.194-.011-6.291,0-1.722,0-1.722-1.723-1.635-.484-.007-.968-.021-1.452-.019a.962.962,0,0,1-.972-.618,1.01,1.01,0,0,1,.152-1.142c1.279-1.472,2.572-2.932,3.852-4.4,1.093-1.256,2.187-2.51,3.257-3.785a1.265,1.265,0,0,1,1.971-.127c.458.465.872.972,1.306,1.46l3.125,3.591V21.4c.076-.358-.2-.26-.363-.26-1.682,0-3.363.012-5.045.02h-9.54m8.116-5.595c-.161-.295-.578-.319-.7-.658l-.1-.128a2.947,2.947,0,0,1-.832-2.31c.041-.871.009-.873.87-.873,1.2,0,1.213,0,1.259,1.2a.868.868,0,0,0,.566.865,1.215,1.215,0,0,0,1.133-.141,2.553,2.553,0,0,0,.354-2.178,1.236,1.236,0,0,0-1.329-.814A2.805,2.805,0,0,1,51.7,9.524c-1.1-1.162-.923-2.625-.724-4.016a3.073,3.073,0,0,1,1.906-2.159,1.175,1.175,0,0,0,.07-1.056c-.054-.207-.416-.139-.6-.08a9.123,9.123,0,0,0-2.14.866,7.22,7.22,0,0,0-3.524,7.632c.48,3.112,2.531,5.082,5.626,6.026.2.06.644.243.664-.2.016-.351.318-.962-.471-.964M2.148,60.227c-.025.913.227,1.183,1.115,1.194.176,0,.353,0,.53,0H59.849c1.247,0,1.247,0,1.611-1.2.056-.925.056-.925-.847-.925H3c-.9,0-.9,0-.847.925m48.865-7.264q-4.4-.01-8.807-.02-7.086,0-14.172,0c-.306,0-.682-.051-.711.354a6.986,6.986,0,0,1-.959,2.551l-1.043,1.314c.121.013.164.022.207.022,7.48,0,14.961-.012,22.442.007A5.209,5.209,0,0,0,52.8,52.962H51.014m-1.852-22.31c.44.01.88.013,1.32.03a1.319,1.319,0,0,1,1.457,1.448c.016,3.284.039,6.568-.013,9.851a1.262,1.262,0,0,1-1.449,1.434c-5.157-.029-10.314-.015-15.471-.015-.007-.551.008-1.1-.029-1.654-.025-.376.1-.48.472-.474,1.39.022,2.782-.021,4.172.023.551.018.68-.125.678-.677-.02-8.83-.008-17.66-.018-26.489a3.259,3.259,0,0,0-3.573-3.585q-11.191-.018-22.383,0h-.738A6.442,6.442,0,0,1,14.736,12c-.028.1.027.124.107.133a8.364,8.364,0,0,1,1.044,4.314c.056,2.956.017,5.914.017,8.871,0,1.091,0,1.091-1.058,1.146a1.462,1.462,0,0,0-.329-.018c-.594.1-.772-.121-.749-.73.051-1.345,0-2.694.026-4.04.009-.431-.107-.547-.542-.543-2.76.021-5.521.03-8.28-.005-.605-.008-.744.153-.743.748q.028,17.29.014,34.58a2.378,2.378,0,0,1,0,.331c-.046.323.09.407.4.4,1.81-.021,3.62-.021,5.43-.029H15.36a6.268,6.268,0,0,1-1.6-3.817c.007-.828.018-1.656.021-2.484,0-1.063,0-1.063,1.063-1.119a1.752,1.752,0,0,0,.395.018c.55-.1.724.11.676.666-.055.635-.019,1.279-.011,1.919a6.2,6.2,0,0,0,.068,1.637,4.424,4.424,0,0,0,4.411,3.235,5.362,5.362,0,0,0,4.944-4.778c.042-1.013.186-1.621,1.65-1.619,4.788.006,9.576-.01,14.363-.017.242.007.485.021.727.021q5.73,0,11.461,0c.6,0,1.254.079,1.424.742a3.561,3.561,0,0,1-.016,1.634,8.018,8.018,0,0,1-2.11,3.981c2.049,0,3.984-.024,5.918.015.546.011.63-.17.629-.659q-.022-11.527-.01-23.054a2.427,2.427,0,0,1,0-.331c.043-.31-.121-.334-.382-.362-.527-.057-.7.081-.7.66.029,4.527.017,9.054.015,13.581,0,1.259-.411,1.669-1.66,1.671l-15.3.022c-1.457-.007-2.914,0-4.37-.028-.653-.012-1.577.295-1.887-.123-.327-.441-.078-1.308-.08-1.989,6.817,0,13.635-.011,20.452.015.627,0,.743-.187.74-.766-.023-4.567-.013-9.134-.013-13.7,0-1.109.319-1.434,1.432-1.448.468-.006.936,0,1.5,0-1.615-1.858-3.142-3.605-4.655-5.364-.309-.359-.54-.433-.885-.026-1.472,1.731-2.966,3.443-4.452,5.162l-.179.155.22.045m5.311-11.779-.158.088c.036.018.073.051.109.05a.866.866,0,0,0,.176-.041l-.127-.1m-.637.078c-.038-.019-.072-.05-.1-.05s-.065.034-.1.054c.033.018.067.05.1.05s.065-.033.1-.054" transform="translate(0 0)" fill="#12263f"/>
          <path id="Trazado_764774" data-name="Trazado 764774" d="M142.156,30.253c.12.02.3-.044.317.141s-.159.236-.319.257l0-.4" transform="translate(-97.607 -20.773)"/>
          <path id="Trazado_764775" data-name="Trazado 764775" d="M155.173,54.945c.411-.329.385,0,.4.265l-.4-.265" transform="translate(-106.547 -37.632)"/>
          <path id="Trazado_764776" data-name="Trazado 764776" d="M143.559,19.682c.132.022.249.071.217.231-.039.2-.212.153-.348.166l.131-.4" transform="translate(-98.482 -13.514)"/>
          <path id="Trazado_764777" data-name="Trazado 764777" d="M20.7,27.632c-.014.133-.029.269-.208.269-.142,0-.167-.112-.189-.22l.4-.049" transform="translate(-13.943 -18.973)"/>
          <path id="Trazado_764778" data-name="Trazado 764778" d="M145.855,44.462c.062-.084.139-.178.227-.049s.014.226-.1.3c-.14-.033-.116-.149-.125-.248" transform="translate(-100.149 -30.452)"/>
          <path id="Trazado_764779" data-name="Trazado 764779" d="M162.333,1.439c-.044.3-.167.374-.4.138.078-.2.267-.084.4-.138" transform="translate(-111.19 -0.988)"/>
          <path id="Trazado_764780" data-name="Trazado 764780" d="M18.149,28.514c-.047.3-.171.369-.4.133.079-.205.27-.075.4-.133" transform="translate(-12.188 -19.579)"/>
          <path id="Trazado_764781" data-name="Trazado 764781" d="M183.956,57.6c.051-.3.178-.363.4-.128-.081.207-.266.087-.4.128" transform="translate(-126.31 -39.365)"/>
          <path id="Trazado_764782" data-name="Trazado 764782" d="M202.229,30.1c-.114-.022-.3.045-.3-.132s.189-.111.3-.133Z" transform="translate(-138.648 -20.482)"/>
          <path id="Trazado_764783" data-name="Trazado 764783" d="M144.738,16.8c.122.228.185.437-.173.5a.6.6,0,0,1,.173-.5" transform="translate(-99.263 -11.535)"/>
          <path id="Trazado_764784" data-name="Trazado 764784" d="M130.045,31.481c-.211-.029-.263-.183-.285-.361.263-.012.291.161.285.361" transform="translate(-89.097 -21.368)" fill="#fdfdfd"/>
          <path id="Trazado_764785" data-name="Trazado 764785" d="M159.564,2.286c-.037.359-.271.28-.5.223l.5-.223" transform="translate(-109.221 -1.57)"/>
          <path id="Trazado_764786" data-name="Trazado 764786" d="M198.712,15.69c-.178-.019-.369-.03-.139-.264.156.03.115.164.139.264" transform="translate(-136.274 -10.592)"/>
          <path id="Trazado_764787" data-name="Trazado 764787" d="M157.544,3.527c-.02.17-.021.374-.261.144.034-.145.164-.114.261-.144" transform="translate(-107.996 -2.422)"/>
          <path id="Trazado_764788" data-name="Trazado 764788" d="M186.5,56.423c.023-.176.044-.354.266-.133-.028.166-.167.108-.266.133" transform="translate(-128.056 -38.58)"/>
          <path id="Trazado_764789" data-name="Trazado 764789" d="M198.573,44.5c-.234-.237-.031-.241.139-.263-.023.1.018.234-.139.263" transform="translate(-136.274 -30.375)"/>
          <path id="Trazado_764790" data-name="Trazado 764790" d="M199.835,41.954c-.222-.223-.04-.242.134-.264-.018.1.023.234-.134.264" transform="translate(-137.143 -28.626)"/>
          <path id="Trazado_764791" data-name="Trazado 764791" d="M142.626,23.047c.214.177.091.235-.1.271-.023-.11-.059-.224.1-.271" transform="translate(-97.852 -15.825)"/>
          <path id="Trazado_764792" data-name="Trazado 764792" d="M176.791,60.387a1.038,1.038,0,0,1-.188.018,1.026,1.026,0,0,1-.182-.049c.12-.113.247-.068.37-.055,0,.029,0,.058,0,.087" transform="translate(-121.136 -41.391)" fill="#fdfdfd"/>
          <path id="Trazado_764793" data-name="Trazado 764793" d="M191.632,6.68c-.1.028-.128-.04-.155-.112l.155.112" transform="translate(-131.474 -4.51)" fill="#fdfdfd"/>
          <path id="Trazado_764794" data-name="Trazado 764794" d="M160.777,1.985l-.15.094c.022-.076.058-.129.15-.094" transform="translate(-110.292 -1.355)"/>
          <path id="Trazado_764795" data-name="Trazado 764795" d="M129.074,30.8c-.094.027-.125-.033-.146-.106l.146.106" transform="translate(-88.526 -21.075)" fill="#fdfdfd"/>
          <path id="Trazado_764796" data-name="Trazado 764796" d="M201.424,20.86c-.177.006-.124-.106-.1-.2l.1.2" transform="translate(-138.217 -14.185)" fill="#fdfdfd"/>
          <path id="Trazado_764797" data-name="Trazado 764797" d="M44.506,35.09a6.457,6.457,0,0,0-1.149-1.459h.737q11.191,0,22.383,0a3.26,3.26,0,0,1,3.573,3.585c.009,8.829,0,17.66.018,26.489,0,.552-.127.695-.678.677-1.389-.044-2.781,0-4.172-.024-.375-.006-.5.1-.472.474.036.55.022,1.1.029,1.654v3.183c0,.681-.246,1.548.08,1.989.31.418,1.234.112,1.887.124,1.456.026,2.913.02,4.37.028V73.89c-4.788.007-9.575.023-14.363.017-1.465,0-1.608.607-1.65,1.619A5.362,5.362,0,0,1,50.155,80.3a4.423,4.423,0,0,1-4.411-3.235,6.2,6.2,0,0,1-.068-1.637c-.008-.64-.044-1.284.011-1.919.048-.556-.126-.764-.676-.666a1.752,1.752,0,0,1-.395-.018V70.753c.823-.259,1-.524,1.045-1.538.055-1.16.013-2.324.013-3.459.175-.087.247.01.342.057q3.7,1.851,7.394,3.693a1.168,1.168,0,0,0,1.629-.419,3.4,3.4,0,0,0,.184-1.138q-.018-8.8-.01-17.6a9.019,9.019,0,0,0-.132-2.275l-.11-.133a1.125,1.125,0,0,0-1.565-.224c-2.4,1.183-4.8,2.377-7.178,3.6a2.56,2.56,0,0,1-1.612.312V49.553c1.058-.055,1.058-.055,1.058-1.146,0-2.957.039-5.915-.017-8.87a8.364,8.364,0,0,0-1.044-4.314l-.107-.133M58.4,63.3c0,.175-.008.35-.009.526,0,1.658,0,1.648,1.684,1.613.329-.007.465-.07.443-.43-.034-.568-.014-1.139-.017-1.708.175,0,.35.009.526.01,1.657,0,1.648,0,1.612-1.685-.007-.33-.071-.464-.43-.443-.568.034-1.138.014-1.708.017,0-.175.009-.35.01-.526,0-1.657,0-1.648-1.684-1.612-.329.007-.465.069-.444.43.034.568.015,1.138.018,1.708-.175,0-.35-.008-.526-.009-1.658,0-1.648,0-1.613,1.684.007.328.068.465.429.444.568-.034,1.139-.015,1.708-.018m4.24-12.7c-.175,0-.35-.009-.526-.009-1.657,0-1.648,0-1.612,1.684.007.33.071.464.43.443.568-.033,1.138-.014,1.708-.017,0,.175-.009.35-.01.526,0,1.657,0,1.648,1.684,1.612.329-.007.465-.069.444-.429-.034-.568-.015-1.138-.018-1.708.175,0,.35.009.526.009,1.658,0,1.648,0,1.613-1.684-.007-.328-.068-.466-.429-.444-.568.034-1.139.015-1.708.018,0-.175.008-.35.009-.526,0-1.658,0-1.648-1.684-1.613-.329.007-.465.07-.443.43.034.568.014,1.139.017,1.708m-5.31-14.85H49.252c-1.46,0-1.431,0-1.473,1.458-.016.555.132.678.68.676,5.631-.023,11.261-.014,16.891-.014,1.531,0,1.507,0,1.538-1.524.01-.5-.12-.613-.612-.609-2.981.026-5.962.013-8.943.013m-1.126,6.36h7.021c1.533,0,1.509,0,1.539-1.522.01-.5-.116-.612-.61-.61-4.924.021-9.848.013-14.772.013-1.61,0-1.593,0-1.6,1.589,0,.432.11.545.542.541,2.627-.021,5.255-.01,7.882-.01m-1.059,4.24h5.962c1.532,0,1.508,0,1.539-1.524.01-.5-.117-.612-.611-.609-4.217.022-8.434.013-12.652.013-1.61,0-1.593,0-1.6,1.59,0,.433.111.545.543.541,2.274-.022,4.548-.01,6.822-.01m9.607,12.664c0,1.116,0,1.116,1.136,1.116.984,0,.984,0,.984-1,0-1.116,0-1.116-1.136-1.116-.984,0-.984,0-.984,1" transform="translate(-29.77 -23.09)" fill="#fff"/>
          <path id="Trazado_764798" data-name="Trazado 764798" d="M24.113,93.951v2.076c-1.062.056-1.059.056-1.063,1.119,0,.828-.014,1.656-.021,2.484l-3.686,3.817c-1.81.008-3.62.008-5.43.029-.314,0-.451-.081-.4-.4a2.377,2.377,0,0,0,0-.331q0-17.29-.014-34.58c0-.6.137-.756.743-.748,2.76.036,5.521.026,8.28.005.434,0,.551.112.542.544-.029,1.346.025,2.695-.026,4.04-.023.609.155.832.749.73a1.442,1.442,0,0,1,.329.018v2.076c-.838.008-1.677.05-2.513.014-1.365-.059-1.942.442-1.729,1.669.066.383-.1.478-.471.467-.86-.026-1.721-.028-2.581,0a1.137,1.137,0,0,0-1.208,1.2c.05,2.382.018,4.765.021,7.147,0,.811.38,1.181,1.2,1.184.838,0,1.678.029,2.514-.011.452-.022.537.137.532.552-.021,1.9-.011,3.795-.008,5.692,0,.813.378,1.182,1.2,1.188l3.043.022" transform="translate(-9.267 -46.287)" fill="#d8edfe"/>
          <path id="Trazado_764799" data-name="Trazado 764799" d="M111.708,101.394V98.211c5.157,0,10.314-.014,15.471.015a1.262,1.262,0,0,0,1.448-1.434c.052-3.283.029-6.567.013-9.851a1.319,1.319,0,0,0-1.457-1.448c-.44-.016-.88-.02-1.32-.03q-.021-.1-.041-.2c1.486-1.719,2.98-3.431,4.452-5.162.346-.407.577-.333.885.026,1.514,1.759,3.04,3.506,4.655,5.364-.56,0-1.028-.005-1.5,0-1.114.014-1.432.339-1.432,1.448,0,4.567-.01,9.134.013,13.7,0,.579-.113.768-.74.766-6.817-.025-13.634-.015-20.452-.015" transform="translate(-76.702 -54.811)" fill="#57dbd8"/>
          <path id="Trazado_764800" data-name="Trazado 764800" d="M131.929,122.619v-2.076l15.3-.022c1.248,0,1.66-.412,1.66-1.671,0-4.527.013-9.054-.015-13.581,0-.579.169-.717.7-.66.261.029.425.053.382.362a2.43,2.43,0,0,0,0,.331q0,11.527.01,23.055c0,.489-.083.67-.629.659-1.934-.039-3.869-.015-5.918-.015a8.018,8.018,0,0,0,2.11-3.981,3.56,3.56,0,0,0,.016-1.634c-.169-.663-.828-.741-1.424-.742q-5.731-.01-11.461,0c-.242,0-.485-.014-.727-.021" transform="translate(-90.587 -71.82)" fill="#d8edfe"/>
          <path id="Trazado_764801" data-name="Trazado 764801" d="M84.135,171.835a6.986,6.986,0,0,0,.959-2.551c.029-.406.4-.354.711-.354q7.086.005,14.172,0,4.4,0,8.807.02a5.632,5.632,0,0,1-4.957,3.12c-6.394.107-12.791.039-19.187.039-.216,0-.463.045-.5-.277" transform="translate(-57.77 -115.991)" fill="#e4e4e4"/>
          <path id="Trazado_764802" data-name="Trazado 764802" d="M6.813,190.164c-.056-.925-.056-.925.847-.925H65.277c.9,0,.9,0,.847.925a17.977,17.977,0,0,1-3.492.131q-26.163.008-52.327,0a18.05,18.05,0,0,1-3.492-.131" transform="translate(-4.664 -129.938)" fill="#6699eb"/>
          <path id="Trazado_764803" data-name="Trazado 764803" d="M6.853,192.19a18.05,18.05,0,0,0,3.492.131q26.163.008,52.327,0a17.975,17.975,0,0,0,3.492-.131c-.364,1.195-.364,1.2-1.611,1.2H8.5c-.176,0-.353,0-.529,0-.889-.011-1.141-.281-1.115-1.194" transform="translate(-4.704 -131.964)" fill="#5d8cdd"/>
          <path id="Trazado_764804" data-name="Trazado 764804" d="M140.988,104.676c1.723-.086,1.723-.086,1.723,1.635,0,2.1-.013,4.194.01,6.291,0,.432-.109.547-.542.543q-3.178-.035-6.358,0c-.434,0-.566-.111-.54-.544.042-.7.023-1.411.03-2.117a.551.551,0,0,0,.394-.215q2.556-2.624,5.114-5.248a.516.516,0,0,0,.169-.346" transform="translate(-92.886 -71.854)" fill="#d8edfe"/>
          <path id="Trazado_764805" data-name="Trazado 764805" d="M142.784,67.533H146.9a.59.59,0,0,1-.218.393c-1.793,1.88-3.577,3.768-5.38,5.639q-2.546,2.643-5.126,5.251c-.253.256-.327.707-.782.752q0-2.189,0-4.377c2.573-2.449,4.931-5.106,7.4-7.66" transform="translate(-92.962 -46.37)" fill="#d8edfe"/>
          <path id="Trazado_764806" data-name="Trazado 764806" d="M171.639,22.619a3.12,3.12,0,0,0,1.6-2.436,4.133,4.133,0,0,0-.672-3.378,2.79,2.79,0,0,0-1.918-1.08c-1.23-.182-1.6-.232-1.529-1.562.011-.2,0-.4,0-.6.011-.732.322-1.111.939-1.144a1.176,1.176,0,0,1,1.17,1.007c.046.344-.091.842.093,1.008.292.264.795.086,1.207.093.906.015.961-.12.8-1.024a3.524,3.524,0,0,0-1.346-2.539c-.207-.141-.416-.278-.624-.417.15-.172.31-.081.482-.033a6.333,6.333,0,0,1,4.277,8.391,5.86,5.86,0,0,1-4.507,3.835c.011-.042.02-.083.028-.126" transform="translate(-116.118 -7.176)" fill="#f0dcc0"/>
          <path id="Trazado_764807" data-name="Trazado 764807" d="M135.386,79.5c.455-.045.529-.5.782-.752q2.579-2.61,5.126-5.251c1.8-1.871,3.587-3.759,5.38-5.639a.589.589,0,0,0,.218-.393c1.682-.008,3.363-.018,5.045-.02.166,0,.438-.1.363.26a6.922,6.922,0,0,0-1.707,1.6c-.422.453-.724,1.056-1.418,1.185-.434-.488-.849-1-1.306-1.461a1.265,1.265,0,0,0-1.971.127c-1.07,1.275-2.164,2.53-3.257,3.785-1.28,1.472-2.573,2.932-3.852,4.4a1.011,1.011,0,0,0-.152,1.142.962.962,0,0,0,.972.618c.484,0,.968.012,1.452.019a.517.517,0,0,1-.169.346q-2.559,2.623-5.114,5.247a.55.55,0,0,1-.393.215q0-2.716,0-5.431" transform="translate(-92.959 -46.302)" fill="#e7f4ff"/>
          <path id="Trazado_764808" data-name="Trazado 764808" d="M157.38,10.675a3.073,3.073,0,0,0-1.906,2.159c-.2,1.392-.376,2.854.724,4.016a2.805,2.805,0,0,0,2.03,1.011,1.236,1.236,0,0,1,1.329.814,2.553,2.553,0,0,1-.354,2.178,1.215,1.215,0,0,1-1.133.141.868.868,0,0,1-.566-.865c-.046-1.2-.061-1.2-1.259-1.2-.861,0-.828,0-.87.873a2.948,2.948,0,0,0,.832,2.31c-.023.09.031.117.1.128.119.339.536.363.7.658a5,5,0,0,1-3.573-2.356,6.29,6.29,0,0,1,1.274-8.784,4.036,4.036,0,0,1,2.671-1.081" transform="translate(-104.499 -7.326)" fill="#f0dcc0"/>
          <path id="Trazado_764809" data-name="Trazado 764809" d="M81.849,171.891c.042.322.288.277.5.277,6.4,0,12.793.069,19.187-.039a5.632,5.632,0,0,0,4.957-3.12h1.783a5.209,5.209,0,0,1-4.826,4.225c-7.48-.019-14.961-.007-22.442-.007-.043,0-.085-.009-.207-.022l1.044-1.314" transform="translate(-55.483 -116.047)" fill="#c7c7c7"/>
          <path id="Trazado_764810" data-name="Trazado 764810" d="M142.784,67.533c-2.465,2.554-4.822,5.211-7.4,7.66q0-2.846,0-5.693a6.431,6.431,0,0,0,1.965-1.966h5.429" transform="translate(-92.962 -46.37)" fill="#e7f4ff"/>
          <path id="Trazado_764811" data-name="Trazado 764811" d="M18.966,37.919c-2.512.007-5.023.018-7.535.019-.517,0-.729-.307-.516-.842a5.453,5.453,0,0,1,4.015-3.277,3.665,3.665,0,0,1,1.783.042c.128.457.554.666.835,1a5.709,5.709,0,0,1,1.419,3.062" transform="translate(-7.438 -23.16)" fill="#e4e4e4"/>
          <path id="Trazado_764812" data-name="Trazado 764812" d="M154.948,8.065a4.036,4.036,0,0,0-2.671,1.081A6.29,6.29,0,0,0,151,17.93a5,5,0,0,0,3.573,2.356c.789,0,.487.614.471.964-.02.446-.466.264-.664.2-3.1-.944-5.146-2.914-5.626-6.026A7.219,7.219,0,0,1,152.281,7.8a9.115,9.115,0,0,1,2.139-.866c.181-.059.544-.128.6.08a1.173,1.173,0,0,1-.07,1.056" transform="translate(-102.067 -4.716)" fill="#e6b046"/>
          <path id="Trazado_764813" data-name="Trazado 764813" d="M176.166,20.393a5.86,5.86,0,0,0,4.507-3.835A6.333,6.333,0,0,0,176.4,8.167c-.172-.049-.332-.139-.482.033-.241-.292-.074-.633-.11-.95-.025-.217.117-.246.3-.212a7.421,7.421,0,0,1,4.582,11.636A17.575,17.575,0,0,1,179.508,20a.446.446,0,0,0-.406.264l-.125.133c-.094.037-.226,0-.269.133a9.436,9.436,0,0,1-2.036.936c-.268.057-.637.3-.787.072a.921.921,0,0,1,.044-1.039l.235-.106" transform="translate(-120.673 -4.825)" fill="#e6b046"/>
          <path id="Trazado_764814" data-name="Trazado 764814" d="M179.4,71.087c.694-.129,1-.733,1.418-1.185a6.922,6.922,0,0,1,1.707-1.6v6.375L179.4,71.087" transform="translate(-123.178 -46.9)" fill="#d8edfe"/>
          <path id="Trazado_764815" data-name="Trazado 764815" d="M32.154,174.04l3.686-3.817a6.269,6.269,0,0,0,1.6,3.817Z" transform="translate(-22.078 -116.881)" fill="#e7f4ff"/>
          <path id="Trazado_764816" data-name="Trazado 764816" d="M31.848,38.206a5.709,5.709,0,0,0-1.419-3.062c-.28-.33-.707-.538-.835-1a5.023,5.023,0,0,1,4.351,4.058Z" transform="translate(-20.321 -23.447)" fill="#c7c7c7"/>
          <path id="Trazado_764817" data-name="Trazado 764817" d="M137.292,67.472a6.436,6.436,0,0,1-1.966,1.966c-.008-.543,0-1.086-.029-1.628-.014-.287.08-.38.366-.366.542.026,1.085.021,1.628.029" transform="translate(-92.899 -46.308)" fill="#d8edfe"/>
          <path id="Trazado_764818" data-name="Trazado 764818" d="M186.454,48.693a.444.444,0,0,1,.405-.264.393.393,0,0,1-.405.264" transform="translate(-128.025 -33.253)"/>
          <path id="Trazado_764819" data-name="Trazado 764819" d="M173.483,60.228l.126.1a.864.864,0,0,1-.175.041c-.036,0-.073-.032-.109-.05l.159-.088" transform="translate(-119.01 -41.354)"/>
          <path id="Trazado_764820" data-name="Trazado 764820" d="M171.354,60.369c-.037.021-.07.054-.1.054s-.066-.032-.1-.05c.033-.019.065-.052.1-.054s.067.03.1.05" transform="translate(-117.518 -41.418)"/>
          <path id="Trazado_764821" data-name="Trazado 764821" d="M176.569,49.406l-.235.106a.234.234,0,0,1,.263-.232c-.008.042-.017.084-.028.126" transform="translate(-121.077 -33.837)"/>
          <path id="Trazado_764822" data-name="Trazado 764822" d="M156.36,97.179c.013.066.027.133.041.2l-.22-.045.179-.155" transform="translate(-107.239 -66.726)" fill="#d88327"/>
          <path id="Trazado_764823" data-name="Trazado 764823" d="M185.2,49.828c.043-.138.175-.1.269-.133a.268.268,0,0,1-.269.133" transform="translate(-127.162 -34.122)"/>
          <path id="Trazado_764824" data-name="Trazado 764824" d="M165.1,47.3c-.074-.011-.127-.038-.1-.128l.1.128" transform="translate(-113.287 -32.393)"/>
          <path id="Trazado_764825" data-name="Trazado 764825" d="M47.007,38.291l.107.133c-.08-.008-.135-.038-.107-.133" transform="translate(-32.272 -26.292)" fill="#fdfdfd"/>
          <path id="Trazado_764826" data-name="Trazado 764826" d="M28.745,101.16l-3.043-.022c-.82-.006-1.2-.375-1.2-1.188,0-1.9-.013-3.794.008-5.691,0-.415-.08-.573-.532-.552-.836.04-1.676.013-2.514.011-.822,0-1.2-.373-1.2-1.184,0-2.383.029-4.766-.021-7.147a1.137,1.137,0,0,1,1.208-1.2c.86-.026,1.721-.023,2.581,0,.366.011.537-.085.471-.467-.213-1.227.364-1.728,1.729-1.669.836.036,1.675-.007,2.513-.014a2.56,2.56,0,0,0,1.612-.312c2.381-1.223,4.777-2.416,7.178-3.6a1.125,1.125,0,0,1,1.565.224c-.026.1.028.127.11.133a9.021,9.021,0,0,1,.132,2.275q0,8.8.01,17.6a3.4,3.4,0,0,1-.184,1.138,1.168,1.168,0,0,1-1.629.419q-3.7-1.844-7.394-3.693c-.095-.047-.167-.144-.342-.058,0,1.135.043,2.3-.013,3.459-.048,1.014-.222,1.28-1.045,1.538M23.44,86.32a3.109,3.109,0,0,1-.395-.024c-.554-.1-.7.118-.675.667.053,1.056.026,2.117.033,3.174-.065,1.462-.065,1.462,1.372,1.461a1.769,1.769,0,0,1,.264,0c.379.059.479-.1.473-.473-.021-1.279-.008-2.557-.008-3.837,0-1.026,0-1.026-1.064-.971m4.242-2.12c-1.058-.056-1.058-.056-1.058.984v7.66c0,.9,0,.9.928.87.044,0,.087-.012.131-.018,1.062.055,1.062.055,1.062-.984V85.118c0-.967,0-.967-1-.928a.523.523,0,0,0-.065.01M37.2,94.38q.01-6.635.024-13.271c0-.378-.087-.46-.457-.27-1.606.827-3.227,1.625-4.842,2.433-.829.215-1.113.692-1.09,1.594.073,2.842.043,5.688.013,8.531a.923.923,0,0,0,.644,1.061c.815.324,1.583.769,2.371,1.163L37.2,97.289Zm-9.519,3.049a10.842,10.842,0,0,1,.008-1.12c.048-.463-.2-.469-.552-.482-.4-.015-.545.094-.524.512.034.7.025,1.406,0,2.108-.013.388.042.586.518.589.5,0,.592-.194.554-.62-.029-.327-.006-.658-.006-.988" transform="translate(-13.899 -53.497)" fill="#12263f"/>
          <path id="Trazado_764827" data-name="Trazado 764827" d="M67.02,40.373c2.981,0,5.962.013,8.943-.013.492,0,.622.11.612.609-.031,1.524-.007,1.524-1.538,1.524-5.631,0-11.261-.009-16.891.014-.548,0-.7-.121-.68-.676.043-1.457.013-1.458,1.473-1.458Z" transform="translate(-39.457 -27.712)" fill="#12263f"/>
          <path id="Trazado_764828" data-name="Trazado 764828" d="M65.9,56.024c-2.628,0-5.255-.011-7.882.01-.432,0-.545-.109-.542-.541.01-1.589-.007-1.589,1.6-1.589,4.924,0,9.848.008,14.772-.013.495,0,.62.114.61.61-.03,1.522-.007,1.523-1.539,1.523H65.9" transform="translate(-39.467 -37.003)" fill="#12263f"/>
          <path id="Trazado_764829" data-name="Trazado 764829" d="M64.844,69.555c-2.274,0-4.549-.012-6.822.01-.432,0-.546-.107-.543-.541.01-1.59-.007-1.59,1.6-1.59,4.217,0,8.434.009,12.652-.013.494,0,.621.112.611.609-.03,1.523-.007,1.523-1.539,1.523Z" transform="translate(-39.467 -46.294)" fill="#12263f"/>
          <path id="Trazado_764830" data-name="Trazado 764830" d="M106.963,94.5c0,.569-.016,1.14.018,1.708.022.36-.115.423-.444.43-1.687.036-1.687.045-1.684-1.612,0-.175.006-.35.01-.526l-.019.018h2.139Z" transform="translate(-71.989 -64.883)" fill="#12263f"/>
          <path id="Trazado_764831" data-name="Trazado 764831" d="M111.639,112.442c0-1,0-1,.984-1,1.136,0,1.136,0,1.136,1.116,0,1,0,1-.984,1-1.136,0-1.136,0-1.136-1.116" transform="translate(-76.655 -76.517)" fill="#12263f"/>
          <path id="Trazado_764832" data-name="Trazado 764832" d="M111.608,87.746c.57,0,1.14.016,1.708-.018.361-.022.422.116.429.444.035,1.686.045,1.686-1.613,1.684-.175,0-.35-.006-.526-.009l.019.018V87.727l-.018.019" transform="translate(-76.633 -60.235)" fill="#12263f"/>
          <path id="Trazado_764833" data-name="Trazado 764833" d="M91.33,116.912c0-.569.016-1.14-.018-1.708-.022-.361.115-.423.444-.43,1.687-.036,1.687-.045,1.684,1.612,0,.175-.006.35-.01.526l.019-.018H91.311Z" transform="translate(-62.696 -78.802)" fill="#12263f"/>
          <path id="Trazado_764834" data-name="Trazado 764834" d="M100.2,89.849c-.57,0-1.14-.016-1.708.017-.359.021-.423-.113-.43-.443-.036-1.687-.045-1.687,1.612-1.685.175,0,.35.006.526.01l-.018-.019v2.139Z" transform="translate(-67.326 -60.238)" fill="#12263f"/>
          <path id="Trazado_764835" data-name="Trazado 764835" d="M98.076,121.573c.57,0,1.14.016,1.708-.017.359-.021.423.113.43.443.036,1.687.045,1.687-1.612,1.685-.175,0-.35-.006-.526-.01l.018.019v-2.139Z" transform="translate(-67.342 -83.462)" fill="#12263f"/>
          <path id="Trazado_764836" data-name="Trazado 764836" d="M86.669,123.675c-.57,0-1.14-.016-1.708.018-.361.022-.422-.116-.429-.444-.035-1.686-.045-1.686,1.613-1.684.175,0,.35.006.526.009l-.019-.018v2.139l.018-.019" transform="translate(-58.036 -83.464)" fill="#12263f"/>
          <path id="Trazado_764837" data-name="Trazado 764837" d="M93.433,128.319c0,.57-.016,1.141.017,1.708.021.36-.114.423-.443.43-1.687.036-1.687.045-1.684-1.613,0-.175.006-.35.009-.526l-.018.019h2.139Z" transform="translate(-62.698 -88.108)" fill="#12263f"/>
          <path id="Trazado_764838" data-name="Trazado 764838" d="M104.86,83.086c0-.57.016-1.141-.017-1.708-.021-.36.114-.423.443-.43,1.687-.036,1.687-.045,1.684,1.613,0,.175-.006.35-.009.526l.018-.019h-2.139l.018.019" transform="translate(-71.987 -55.575)" fill="#12263f"/>
          <path id="Trazado_764839" data-name="Trazado 764839" d="M80.516,79.439c-.082-.007-.136-.037-.11-.133l.11.133" transform="translate(-55.204 -54.454)" fill="#fdfdfd"/>
          <path id="Trazado_764840" data-name="Trazado 764840" d="M57.475,89.469c1.615-.808,3.236-1.606,4.842-2.433.37-.191.458-.108.457.27q-.016,6.635-.024,13.271c-.19-.055-.379-.113-.571-.163a6.3,6.3,0,0,1-4.721-6.442c.073-1.5.015-3,.016-4.5" transform="translate(-39.448 -59.694)" fill="#f0dcc0"/>
          <path id="Trazado_764841" data-name="Trazado 764841" d="M55.135,95.016c0,1.5.057,3.006-.016,4.5a6.3,6.3,0,0,0,4.721,6.442c.191.05.38.108.571.163v2.909l-3.339-1.668c-.788-.394-1.555-.839-2.371-1.163-.545-.217-.649-.52-.644-1.061.03-2.844.06-5.689-.013-8.531-.023-.9.261-1.38,1.09-1.594" transform="translate(-37.108 -65.241)" fill="#e6b046"/>
          <path id="Trazado_764842" data-name="Trazado 764842" d="M41.661,107.432a1.248,1.248,0,0,1-.131.018c-.927.027-.928.027-.928-.87V98.92c0-1.04,0-1.04,1.058-.984v9.5" transform="translate(-27.879 -67.233)" fill="#91b3fa"/>
          <path id="Trazado_764843" data-name="Trazado 764843" d="M43.98,107.426v-9.5a.585.585,0,0,1,.065-.01c1-.04,1-.039,1,.928v7.594c0,1.04,0,1.04-1.062.984" transform="translate(-30.198 -67.227)" fill="#91b3fa"/>
          <path id="Trazado_764844" data-name="Trazado 764844" d="M28.125,104.7c1.064-.055,1.064-.055,1.064.971,0,1.279-.013,2.558.008,3.837.006.369-.095.531-.473.473a1.77,1.77,0,0,0-.264,0c-1.437,0-1.437,0-1.372-1.461a1.658,1.658,0,0,0,1.032-1.656c.039-.719.007-1.441.006-2.162" transform="translate(-18.584 -71.878)" fill="#c7c7c7"/>
          <path id="Trazado_764845" data-name="Trazado 764845" d="M28.092,104.634c0,.721.033,1.443-.006,2.162a1.658,1.658,0,0,1-1.032,1.656c-.006-1.058.021-2.118-.033-3.174-.028-.55.121-.772.675-.668a3.053,3.053,0,0,0,.395.024" transform="translate(-18.552 -71.811)" fill="#e4e4e4"/>
          <path id="Trazado_764846" data-name="Trazado 764846" d="M41.638,136.681c0,.33-.024.662.006.988.038.426-.054.624-.554.62-.477,0-.531-.2-.519-.589.023-.7.031-1.406,0-2.108-.02-.419.129-.527.525-.512.348.013.6.019.552.482a10.93,10.93,0,0,0-.008,1.12" transform="translate(-27.855 -92.749)" fill="#7e7e7e"/>
          <rect id="Rectángulo_360959" data-name="Rectángulo 360959" width="2.138" height="2.138" transform="translate(32.855 27.491)" fill="#fff"/>
          <rect id="Rectángulo_360960" data-name="Rectángulo 360960" width="2.138" height="2.139" transform="translate(28.615 38.091)" fill="#fff"/>
        </g>
      </g>
    </g>
  </g>
</svg>
