<svg xmlns="http://www.w3.org/2000/svg" xmlns:xlink="http://www.w3.org/1999/xlink" width="1241.809" height="420.77" viewBox="0 0 1241.809 420.77">
  <defs>
    <clipPath id="clip-path">
      <path id="Rectangle_652" data-name="Rectangle 652" d="M19.556,420.77h1202.7c10.8,0,19.556-6.977,19.556-15.584V15.584c0-8.607-8.756-15.584-19.556-15.584H19.556C8.756,0,0,6.977,0,15.584v389.6C0,413.792,8.756,420.77,19.556,420.77Z" transform="translate(0 -2.391)" fill="none" opacity="0.238"/>
    </clipPath>
    <clipPath id="clip-path-2">
      <rect id="Rect치ngulo_34915" data-name="Rect치ngulo 34915" width="129.188" height="59" transform="translate(0)" fill="#ccf6f0" stroke="#707070" stroke-width="1"/>
    </clipPath>
  </defs>
  <g id="Grupo_1022323" data-name="Grupo 1022323" transform="translate(-180 -3266.16)">
    <path id="Trazado_730055" data-name="Trazado 730055" d="M1218.775,0H23.034C10.313,0,0,8.264,0,18.458v379.6c0,10.194,10.313,18.458,23.034,18.458H1218.775c12.721,0,23.034-8.264,23.034-18.458V18.458C1241.809,8.264,1231.5,0,1218.775,0Z" transform="translate(180 3267.733)" fill="#f6f6f6"/>
    <g id="Grupo_80238" data-name="Grupo 80238" transform="translate(180 3268.551)" clip-path="url(#clip-path)">
      <path id="Trazado_151747" data-name="Trazado 151747" d="M461.719,54.327l114.75,225.209,10.241,20.1L627,419.4l-27.238-53.457c-1.887-2.094,45.756,46.981,43.7,45.07-15.417-14.313-5.624-31.137-22.311-43.788-33.086-25.08-5.792-62.6-44.375-46.4q-20.141,8.458-39.755,18.152c-24.2,11.993-49.323,19.126-76.648,17.546-17.1-.988-32.2-6.277-45.363-17.383-19.7-16.624-33.406-38.166-48.92-58.259-8.221-10.647-16.614-21.247-25.828-31.025-18.949-20.11-41.977-29.312-70.262-26.79-30.426,2.713-55.848,12.963-74.227,38.561-15.337,21.36-30.876,42.675-47.785,62.786-27.369,32.553-63.093,43.519-104.4,35.144-14.787-3-29.051-8.541-43.556-12.921L91.29,96.82Z" transform="matrix(-0.454, 0.891, -0.891, -0.454, 1479.192, 64.14)" fill="#eaeaea"/>
      <path id="Trazado_151748" data-name="Trazado 151748" d="M986.751,112.533S900.031,113.57,753.6,199.794s-163.989-67-252.809-65.985S388.909,200.423,292.62,182.916,171.984,92.489,57.537,125.2,34.778,20.841,34.778,20.841L973.824,0Z" transform="matrix(-0.995, -0.105, 0.105, -0.995, 677.578, 607.517)" fill="none" stroke="#12263f" stroke-width="3" stroke-dasharray="11" opacity="0.142"/>
      <g id="Grupo_80237" data-name="Grupo 80237" transform="translate(1096.597 0)" clip-path="url(#clip-path-2)">
        <g id="Grupo_80236" data-name="Grupo 80236" transform="translate(1.002 -68)">
          <path id="Sustracci칩n_11" data-name="Sustracci칩n 11" d="M62.591,125a63.142,63.142,0,0,1-12.614-1.27,62.3,62.3,0,0,1-22.381-9.4,62.694,62.694,0,0,1-22.677-27.5A62.121,62.121,0,0,1,1.272,75.1a63.02,63.02,0,0,1,0-25.192A62.11,62.11,0,0,1,10.69,27.556,62.65,62.65,0,0,1,120.264,38.172,62.121,62.121,0,0,1,123.911,49.9a63.02,63.02,0,0,1,0,25.192,62.109,62.109,0,0,1-9.418,22.348A62.508,62.508,0,0,1,62.591,125Zm-.233-95.339a32.941,32.941,0,0,0-6.581.662A32.5,32.5,0,0,0,44.1,35.23,32.708,32.708,0,0,0,32.271,49.575a32.406,32.406,0,0,0-1.9,6.121,32.877,32.877,0,0,0,0,13.143A32.4,32.4,0,0,0,35.281,80.5a32.684,32.684,0,0,0,57.164-5.539,32.406,32.406,0,0,0,1.9-6.121,32.877,32.877,0,0,0,0-13.143,32.4,32.4,0,0,0-4.913-11.659A32.742,32.742,0,0,0,75.068,32.223a32.522,32.522,0,0,0-6.129-1.9A32.94,32.94,0,0,0,62.358,29.661Z" transform="translate(125.182 125) rotate(180)" fill="#ccf6f0"/>
        </g>
      </g>
      <path id="Trazado_151751" data-name="Trazado 151751" d="M1371.926,0l-107.2,305.9,29.393,140.127L1082.933,562.721c-2.771-3.078-5.331-6.385-8.354-9.194C1051.939,532.489,1030.7,509.59,1006.2,491c-48.588-36.861-102.488-43.183-159.153-19.363q-29.581,12.435-58.387,26.688c-35.539,17.632-72.438,28.119-112.569,25.8-25.118-1.451-47.293-9.223-66.619-25.547-28.924-24.434-49.055-56.1-71.837-85.63-12.072-15.649-24.4-31.229-37.928-45.6-27.826-29.558-61.644-43.081-103.184-39.371-44.684,3.992-82.02,19.062-109.015,56.691-22.526,31.4-45.35,62.733-70.185,92.3C177.121,524.813,124.655,540.936,64,528.63c-21.715-4.4-42.664-12.55-63.964-18.988L134.085,142.422Z" transform="matrix(-0.891, -0.454, 0.454, -0.891, 768.154, 945.476)" fill="none" stroke="#fff" stroke-width="1" opacity="0.81"/>
    </g>
  </g>
</svg>
