<svg xmlns="http://www.w3.org/2000/svg" xmlns:xlink="http://www.w3.org/1999/xlink" width="506.854" height="289.018" viewBox="0 0 506.854 289.018">
  <defs>
    <clipPath id="clip-path">
      <path id="Rectangle_652" data-name="Rectangle 652" d="M7.982,289.018h490.89c4.408,0,7.982-4.792,7.982-10.7V10.7c0-5.912-3.574-10.7-7.982-10.7H7.982C3.574,0,0,4.793,0,10.7V278.314C0,284.226,3.574,289.018,7.982,289.018Z" transform="translate(0 0)" fill="none" opacity="0.238"/>
    </clipPath>
    <clipPath id="clip-path-2">
      <rect id="Rect치ngulo_34915" data-name="Rect치ngulo 34915" width="131.999" height="60.284" transform="translate(0)" fill="#ccf6f0" stroke="#707070" stroke-width="1"/>
    </clipPath>
  </defs>
  <g id="Grupo_1136837" data-name="Grupo 1136837" transform="translate(-179.146 -4014.793)">
    <g id="Grupo_1022323" data-name="Grupo 1022323" transform="translate(179.146 4014.793)">
      <path id="Trazado_730055" data-name="Trazado 730055" d="M497.452,0H9.4C4.209,0,0,5.684,0,12.7V273.8c0,7.012,4.209,12.7,9.4,12.7H497.452c5.192,0,9.4-5.684,9.4-12.7V12.7C506.854,5.684,502.644,0,497.452,0Z" transform="translate(0 1.607)" fill="#f6f6f6"/>
      <g id="Grupo_80238" data-name="Grupo 80238" transform="translate(0 0)" clip-path="url(#clip-path)">
        <path id="Trazado_151747" data-name="Trazado 151747" d="M471.731,0,588.977,230.108l10.464,20.537,41.166,122.368-27.83-54.62c-1.928-2.139,46.751,48,44.648,46.051-15.752-14.625-5.746-31.814-22.8-44.741-33.806-25.625-5.919-63.964-45.34-47.41q-20.579,8.642-40.62,18.547c-24.725,12.254-50.4,19.542-78.316,17.927-17.475-1.01-32.9-6.414-46.35-17.762-20.125-16.986-34.132-39-49.985-59.526-8.4-10.879-16.975-21.709-26.39-31.7-19.361-20.548-42.89-29.949-71.79-27.373-31.088,2.772-57.063,13.245-75.842,39.4-15.67,21.824-31.548,43.6-48.824,64.152C123.207,309.222,86.706,320.426,44.5,311.869c-15.108-3.062-29.683-8.726-44.5-13.2L93.244,43.418Z" transform="matrix(-0.454, 0.891, -0.891, -0.454, 771.192, 42.807)" fill="#eaeaea"/>
        <path id="Trazado_151748" data-name="Trazado 151748" d="M1008.2,114.979s-88.606,1.06-238.226,89.159-167.557-68.454-258.309-67.421-114.312,68.064-212.7,50.176S175.707,94.5,58.77,127.927,35.516,21.292,35.516,21.292L994.991,0Z" transform="matrix(-0.995, -0.105, 0.105, -0.995, 697.409, 518.953)" fill="none" stroke="#12263f" stroke-width="3" stroke-dasharray="11" opacity="0.142"/>
        <g id="Grupo_80237" data-name="Grupo 80237" transform="translate(296.919 2.443)" clip-path="url(#clip-path-2)">
          <g id="Grupo_80236" data-name="Grupo 80236" transform="translate(1.023 -69.479)">
            <path id="Sustracci칩n_11" data-name="Sustracci칩n 11" d="M63.953,127.719a64.516,64.516,0,0,1-12.889-1.3A63.653,63.653,0,0,1,28.2,116.813a64.058,64.058,0,0,1-23.17-28.1A63.472,63.472,0,0,1,1.3,76.73a64.391,64.391,0,0,1,0-25.74,63.461,63.461,0,0,1,9.623-22.835A64.013,64.013,0,0,1,122.88,39a63.473,63.473,0,0,1,3.726,11.987,64.391,64.391,0,0,1,0,25.74,63.46,63.46,0,0,1-9.623,22.835,63.868,63.868,0,0,1-53.031,28.155Zm-.238-97.413a33.657,33.657,0,0,0-6.724.677A33.208,33.208,0,0,0,45.061,36,33.42,33.42,0,0,0,32.973,50.654a33.111,33.111,0,0,0-1.944,6.254,33.592,33.592,0,0,0,0,13.428,33.107,33.107,0,0,0,5.02,11.913A33.4,33.4,0,0,0,94.457,76.59,33.111,33.111,0,0,0,96.4,70.336a33.592,33.592,0,0,0,0-13.428,33.107,33.107,0,0,0-5.02-11.913A33.455,33.455,0,0,0,76.7,32.924a33.229,33.229,0,0,0-6.263-1.941A33.657,33.657,0,0,0,63.715,30.306Z" transform="translate(127.906 127.719) rotate(180)" fill="#ccf6f0"/>
          </g>
        </g>
        <path id="Trazado_151751" data-name="Trazado 151751" d="M1401.74,0,1292.213,312.558l30.032,143.176L1106.46,574.963c-2.832-3.145-5.447-6.524-8.536-9.394-23.131-21.5-44.832-44.893-69.871-63.892-49.645-37.663-104.718-44.123-162.615-19.785Q835.213,494.6,805.78,509.16c-36.312,18.016-74.014,28.731-115.018,26.362-25.664-1.482-48.322-9.424-68.068-26.1-29.554-24.965-50.122-57.318-73.4-87.493-12.335-15.99-24.928-31.909-38.753-46.594-28.432-30.2-62.985-44.018-105.429-40.227-45.657,4.079-83.8,19.477-111.387,57.924-23.017,32.082-46.337,64.1-71.712,94.305-41.073,48.9-94.68,65.369-156.659,52.8-22.188-4.5-43.592-12.823-65.356-19.4L136.969,145.52Z" transform="matrix(-0.891, -0.454, 0.454, -0.891, 784.836, 968.473)" fill="none" stroke="#fff" stroke-width="1" opacity="0.81"/>
      </g>
    </g>
  </g>
</svg>
